<?xml version="1.0" encoding="UTF-8"?>
<svg width="165px" height="159px" viewBox="0 0 165 159" version="1.1" xmlns="http://www.w3.org/2000/svg" xmlns:xlink="http://www.w3.org/1999/xlink">
    <!-- Generator: Sketch 51.2 (57519) - http://www.bohemiancoding.com/sketch -->
    <title>Group 6</title>
    <desc>Created with Sketch.</desc>
    <defs></defs>
    <g id="Page-1" stroke="none" stroke-width="1" fill="none" fill-rule="evenodd">
        <g id="Project-Page-Error-4xx" transform="translate(-630.000000, -344.000000)">
            <g id="Group-8" transform="translate(530.000000, 315.000000)">
                <g id="Group-6" transform="translate(82.000000, 0.000000)">
                    <g id="Group-3">
                        <circle id="Oval-2" cx="108.5" cy="108.5" r="108.5"></circle>
                        <g id="Group-2" transform="translate(19.664804, 38.994413)" stroke="#4A9CF8">
                            <path d="M138.073094,78.3631285 L136.428417,78.3631285 C135.480415,81.0459983 134.063394,83.3748745 132.150036,85.2225831 C125.042921,92.0858445 116.413431,96.4007152 107.392223,98.186931 C99.4050869,99.7683984 91.1108882,99.3676896 83.2943366,96.9985017 C75.477785,94.6293138 68.1388805,90.2916467 62.0623331,83.9991977 C43.045977,64.3071845 43.5937053,32.9278512 63.2857185,13.9114951 C82.9777317,-5.10486101 114.357065,-4.55713271 133.373421,15.1348805 C142.085443,24.156443 146.691239,35.6310094 147.231175,47.246007 C147.024987,47.2200575 146.815104,47.2067039 146.602371,47.2067039 L133.289694,47.2067039 C133.074319,47.2067039 132.861782,47.2204115 132.652978,47.2470507 C122.213602,24.5178781 96.9054841,3.23047852 63.2857185,13.9114951 C43.5937053,32.9278512 43.045977,64.3071845 62.0623331,83.9991977 C68.1388805,90.2916467 75.477785,94.6293138 83.2943366,96.9985017 C91.1108882,99.3676896 99.4050869,99.7683984 107.392223,98.186931 C116.413431,96.4007152 125.042921,92.0858445 132.150036,85.2225831 C134.367302,83.0813937 136.341855,80.7834647 138.073094,78.3631285 Z" id="Combined-Shape" stroke-width="3"></path>
                            <path d="M133.620132,47.7625698 C131.877458,47.7625698 130.400262,49.0446089 130.154975,50.7699335 L127.147197,71.9263581 C127.123997,72.0895449 127.112353,72.2541667 127.112353,72.4189944 C127.112353,74.351991 128.679356,75.9189944 130.612353,75.9189944 L149.188643,75.9189944 C149.312601,75.9189944 149.436472,75.9124091 149.559732,75.8992664 C151.481833,75.6943196 152.873861,73.9700066 152.668915,72.0479054 L150.413081,50.8914809 C150.223364,49.1122159 148.722159,47.7625698 146.932809,47.7625698 L133.620132,47.7625698 Z" id="Rectangle-5" stroke-width="3"></path>
                            <path d="M139.981844,45.7905028 L139.981844,8.96927374" id="Line-17" stroke-width="3" stroke-linecap="round"></path>
                            <path d="M65.146096,87.2397791 C63.8528331,85.844995 62.0046151,84.972067 59.952514,84.972067 C56.0417826,84.972067 52.8715084,88.1423412 52.8715084,92.0530726 C52.8715084,94.7793257 54.412191,97.1457331 56.6703701,98.3291085" id="Oval-11" stroke-width="3"></path>
                            <path d="M136.564749,99.8432712 C138.473642,98.5748368 139.731844,96.4050232 139.731844,93.9413408 C139.731844,90.0306094 136.561569,86.8603352 132.650838,86.8603352 C130.918803,86.8603352 129.332012,87.4821971 128.101556,88.5148302" id="Oval-11" stroke-width="3"></path>
                            <path d="M55.7039106,98.1899441 C72.0689013,108.260708 88.7994405,112.04161 105.895528,109.53265 M119.905825,108.215889 C125.569832,108.215889 131.248944,103.534987 136.899441,100.078212" id="Path-2" stroke-width="3" stroke-linecap="round" stroke-linejoin="round"></path>
                            <polygon id="Path-3" stroke-width="3" stroke-linecap="round" stroke-linejoin="round" points="26.4357542 111.407821 65.1452514 121.793296 65.1452514 147.284916 26.4357542 135.955307"></polygon>
                            <polyline id="Path-4" stroke-width="3" stroke-linecap="round" stroke-linejoin="round" points="27.3798883 110.463687 36.8212291 107.631285 73.6424581 117.072626 65.1452514 120.849162"></polyline>
                            <polyline id="Path-5" stroke-width="3" stroke-linecap="round" stroke-linejoin="round" points="73.6424581 118.960894 73.6424581 143.50838 66.0893855 147.284916"></polyline>
                            <path d="M58.5363128,101.96648 C55.3891993,103.854749 53.8156425,105.428305 53.8156425,106.687151" id="Path-6" stroke-width="3" stroke-linecap="round"></path>
                            <polygon id="Path-7" stroke-width="3" stroke-linecap="round" stroke-linejoin="round" points="46.2625698 122.73743 57.5921788 125.569832 57.5921788 137.843575 46.2625698 134.067039"></polygon>
                            <path d="M78.3631285,142.564246 L144.452514,142.564246 C146.340782,122.422719 143.50838,110.463687 135.955307,106.687151" id="Path-8" stroke-width="3" stroke-linecap="round" stroke-linejoin="round"></path>
                            <rect id="Rectangle-29" stroke-width="3" x="103.46648" y="117.628492" width="29.1005587" height="16.8268156" rx="6"></rect>
                            <path d="M109.072332,123.209497 L126.961188,123.209497" id="Line-18" stroke-width="3" stroke-linecap="round"></path>
                            <path d="M109.072332,128.874302 L126.961188,128.874302" id="Line-18" stroke-width="3" stroke-linecap="round"></path>
                            <circle id="Oval-12" stroke-width="3" cx="93.4692737" cy="120.849162" r="2.83240223"></circle>
                            <circle id="Oval-12" stroke-width="3" cx="93.4692737" cy="131.234637" r="2.83240223"></circle>
                            <path d="M141.751557,94.0251397 L147.073118,137.287709 C150.105993,137.287709 150.792092,137.287709 156.726257,137.287709 C159.547846,137.287709 161.835196,135.00036 161.835196,132.178771 L161.835196,99.1340782 C161.835196,96.3124894 159.547846,94.0251397 156.726257,94.0251397 L141.751557,94.0251397 Z" id="Rectangle-30" stroke-width="3"></path>
                            <path d="M32.1005587,101.97877 C28.3240223,100.719924 28.3240223,98.5169446 32.1005587,95.369831 C37.7653631,90.6491607 21.7150838,97.6644217 21.7150838,95.369831 C21.7150838,93.0752404 33.6301775,88.2469315 31.1564246,86.8726243 C30.5708042,86.5472797 26.8623034,83.997222 25.4916201,84.5122892 C21.0723204,86.1729471 13.2178771,90.6491607 16.0502793,92.5374288 C18.8826816,94.425697 29.2681564,84.0402221 29.2681564,81.2078199 C29.2681564,78.3754176 25.7077494,77.1322249 22.6592179,78.3754176 C15.8767739,81.1413019 5.66480447,84.9843562 5.66480447,87.8167584 C5.66480447,90.6491607 14.0341316,88.9918924 22.6592179,81.2078199 C24.7145641,79.3528861 29.7142535,73.3347805 21.7150838,73.6547473 C16.382304,73.8680584 9.14394274,77.6445948 0,84.9843562" id="Path-9" stroke-width="3" stroke-linecap="round"></path>
                            <path d="" id="Path-10"></path>
                            <path d="M100.078212,33.0446927 C108.260708,34.9329609 113.296089,40.283054 115.184358,49.0949721" id="Path-11" stroke-width="3" stroke-linecap="round"></path>
                            <path d="M100.078212,39.6536313 C102.448323,40.2058734 104.02188,40.8352961 104.798883,41.5418994 C107.657479,44.1414949 108.575419,47.1568145 108.575419,46.2625698" id="Path-12" stroke-width="3" stroke-linecap="round"></path>
                            <path d="M99.1340782,27.3798883 C113.610801,30.5270019 120.849162,39.0242086 120.849162,52.8715084" id="Path-13" stroke-width="3" stroke-linecap="round"></path>
                            <circle id="Oval-13" stroke-width="3" cx="140.203911" cy="59.0083799" r="4.24860335"></circle>
                        </g>
                    </g>
                    <polygon id="Star" stroke="#4A9CF8" stroke-width="3" stroke-linecap="round" stroke-linejoin="round" transform="translate(38.335018, 53.335018) rotate(-24.000000) translate(-38.335018, -53.335018) " points="38.3350182 58.7637892 31.9531152 62.1189541 33.1719502 55.0126007 28.0088823 49.9798533 35.1440667 48.9430503 38.3350182 42.4774763 41.5259697 48.9430503 48.6611542 49.9798533 43.4980862 55.0126007 44.7169212 62.1189541"></polygon>
                    <polygon id="Star" stroke="#4A9CF8" stroke-width="3" stroke-linecap="round" stroke-linejoin="round" transform="translate(51.392879, 77.614680) rotate(15.000000) translate(-51.392879, -77.614680) " points="51.3928788 84.0802537 45.0109758 87.4354186 46.2298108 80.3290652 41.0667428 75.2963178 48.2019273 74.2595148 51.3928788 67.7939408 54.5838303 74.2595148 61.7190147 75.2963178 56.5559467 80.3290652 57.7747818 87.4354186"></polygon>
                    <polygon id="Star" stroke="#4A9CF8" stroke-width="3" stroke-linecap="round" stroke-linejoin="round" points="66.5670391 47.7276536 60.1851361 51.0828186 61.4039711 43.9764652 56.2409031 38.9437177 63.3760876 37.9069147 66.5670391 31.4413408 69.7579906 37.9069147 76.8931751 38.9437177 71.7301071 43.9764652 72.9489421 51.0828186"></polygon>
                </g>
            </g>
        </g>
    </g>
</svg>