<?xml version="1.0" encoding="UTF-8"?>
<svg width="153px" height="151px" viewBox="0 0 153 151" version="1.1" xmlns="http://www.w3.org/2000/svg" xmlns:xlink="http://www.w3.org/1999/xlink">
    <!-- Generator: Sketch 51.2 (57519) - http://www.bohemiancoding.com/sketch -->
    <title>Group 2</title>
    <desc>Created with Sketch.</desc>
    <defs></defs>
    <g id="Page-1" stroke="none" stroke-width="1" fill="none" fill-rule="evenodd">
        <g id="Project-Page-Empty" transform="translate(-643.000000, -370.000000)" stroke="#4A9CF8">
            <g id="Group-21" transform="translate(550.000000, 371.000000)">
                <g id="Group-2" transform="translate(94.000000, 0.000000)">
                    <path d="M126.737899,79.3575419 L125.093221,79.3575419 C124.14522,82.0404117 122.728198,84.3692879 120.81484,86.2169965 C113.707725,93.0802579 105.078236,97.3951286 96.0570272,99.1813444 C88.0698914,100.762812 79.7756927,100.362103 71.959141,97.9929151 C64.1425894,95.6237272 56.8036849,91.2860601 50.7271376,84.9936111 C31.7107814,65.3015979 32.2585097,33.9222646 51.950523,14.9059085 C71.6425362,-4.11044761 103.021869,-3.5627193 122.038226,16.1292939 C130.750247,25.1508564 135.356043,36.6254228 135.89598,48.2404204 C135.689791,48.2144709 135.479909,48.2011173 135.267176,48.2011173 L121.954499,48.2011173 C121.739124,48.2011173 121.526587,48.2148249 121.317782,48.2414641 C110.878407,25.5122915 85.5702886,4.22489193 51.950523,14.9059085 C32.2585097,33.9222646 31.7107814,65.3015979 50.7271376,84.9936111 C56.8036849,91.2860601 64.1425894,95.6237272 71.959141,97.9929151 C79.7756927,100.362103 88.0698914,100.762812 96.0570272,99.1813444 C105.078236,97.3951286 113.707725,93.0802579 120.81484,86.2169965 C123.032107,84.0758071 125.006659,81.7778781 126.737899,79.3575419 Z" id="Combined-Shape" stroke-width="3"></path>
                    <path d="M122.284936,48.7569832 C120.542263,48.7569832 119.065067,50.0390223 118.81978,51.7643469 L115.812001,72.9207715 C115.788801,73.0839583 115.777158,73.2485801 115.777158,73.4134078 C115.777158,75.3464044 117.344161,76.9134078 119.277158,76.9134078 L137.853447,76.9134078 C137.977405,76.9134078 138.101276,76.9068225 138.224536,76.8936798 C140.146637,76.688733 141.538666,74.96442 141.333719,73.0423189 L139.077885,51.8858943 C138.888168,50.1066293 137.386964,48.7569832 135.597613,48.7569832 L122.284936,48.7569832 Z" id="Rectangle-5" stroke-width="3"></path>
                    <path d="M128.646648,46.7849162 L128.646648,9.96368715" id="Line-17" stroke-width="3" stroke-linecap="round"></path>
                    <path d="M53.8109005,88.2341925 C52.5176376,86.8394084 50.6694196,85.9664804 48.6173184,85.9664804 C44.706587,85.9664804 41.5363128,89.1367546 41.5363128,93.047486 C41.5363128,95.7737391 43.0769955,98.1401465 45.3351745,99.3235219" id="Oval-11" stroke-width="3"></path>
                    <path d="M125.229553,100.837685 C127.138446,99.5692502 128.396648,97.3994366 128.396648,94.9357542 C128.396648,91.0250228 125.226374,87.8547486 121.315642,87.8547486 C119.583608,87.8547486 117.996817,88.4766105 116.76636,89.5092436" id="Oval-11" stroke-width="3"></path>
                    <path d="M44.3687151,99.1843575 C60.7337058,109.255121 77.464245,113.036023 94.5603328,110.527064 M108.57063,109.210302 C114.234637,109.210302 119.913749,104.5294 125.564246,101.072626" id="Path-2" stroke-width="3" stroke-linecap="round" stroke-linejoin="round"></path>
                    <polygon id="Path-3" stroke-width="3" stroke-linecap="round" stroke-linejoin="round" points="15.1005587 112.402235 53.8100559 122.787709 53.8100559 148.27933 15.1005587 136.949721"></polygon>
                    <polyline id="Path-4" stroke-width="3" stroke-linecap="round" stroke-linejoin="round" points="16.0446927 111.458101 25.4860335 108.625698 62.3072626 118.067039 53.8100559 121.843575"></polyline>
                    <polyline id="Path-5" stroke-width="3" stroke-linecap="round" stroke-linejoin="round" points="62.3072626 119.955307 62.3072626 144.502793 54.7541899 148.27933"></polyline>
                    <path d="M47.2011173,102.960894 C44.0540037,104.849162 42.4804469,106.422719 42.4804469,107.681564" id="Path-6" stroke-width="3" stroke-linecap="round"></path>
                    <polygon id="Path-7" stroke-width="3" stroke-linecap="round" stroke-linejoin="round" points="34.9273743 123.731844 46.2569832 126.564246 46.2569832 138.837989 34.9273743 135.061453"></polygon>
                    <path d="M67.027933,143.558659 L133.117318,143.558659 C135.005587,123.417132 132.173184,111.458101 124.620112,107.681564" id="Path-8" stroke-width="3" stroke-linecap="round" stroke-linejoin="round"></path>
                    <rect id="Rectangle-29" stroke-width="3" x="92.1312849" y="118.622905" width="29.1005587" height="16.8268156" rx="6"></rect>
                    <path d="M97.7371361,124.203911 L115.625992,124.203911" id="Line-18" stroke-width="3" stroke-linecap="round"></path>
                    <path d="M97.7371361,129.868715 L115.625992,129.868715" id="Line-18" stroke-width="3" stroke-linecap="round"></path>
                    <circle id="Oval-12" stroke-width="3" cx="82.1340782" cy="121.843575" r="2.83240223"></circle>
                    <circle id="Oval-12" stroke-width="3" cx="82.1340782" cy="132.22905" r="2.83240223"></circle>
                    <path d="M130.416362,95.0195531 L135.737922,138.282123 C138.770797,138.282123 139.456897,138.282123 145.391061,138.282123 C148.21265,138.282123 150.5,135.994773 150.5,133.173184 L150.5,100.128492 C150.5,97.3069028 148.21265,95.0195531 145.391061,95.0195531 L130.416362,95.0195531 Z" id="Rectangle-30" stroke-width="3"></path>
                    <path d="" id="Path-10"></path>
                    <path d="M88.7430168,34.0391061 C96.9255121,35.9273743 101.960894,41.2774674 103.849162,50.0893855" id="Path-11" stroke-width="3" stroke-linecap="round"></path>
                    <path d="M88.7430168,40.6480447 C91.1131272,41.2002868 92.686684,41.8297095 93.4636872,42.5363128 C96.3222836,45.1359083 97.2402235,48.1512279 97.2402235,47.2569832" id="Path-12" stroke-width="3" stroke-linecap="round"></path>
                    <path d="M87.7988827,28.3743017 C102.275605,31.5214153 109.513966,40.018622 109.513966,53.8659218" id="Path-13" stroke-width="3" stroke-linecap="round"></path>
                    <circle id="Oval-13" stroke-width="3" cx="128.868715" cy="60.0027933" r="4.24860335"></circle>
                    <path d="M15.5,111.5 L0.5,62.5" id="Line-24" stroke-width="3" stroke-linecap="round"></path>
                </g>
            </g>
        </g>
    </g>
</svg>