<?xml version="1.0" encoding="UTF-8"?>
<svg width="92px" height="96px" viewBox="0 0 92 96" version="1.1" xmlns="http://www.w3.org/2000/svg" xmlns:xlink="http://www.w3.org/1999/xlink">
    <!-- Generator: Sketch 48.2 (47327) - http://www.bohemiancoding.com/sketch -->
    <title>noun_Download_2725709</title>
    <desc>Created with Sketch.</desc>
    <defs></defs>
    <g id="Page-1" stroke="none" stroke-width="1" fill="none" fill-rule="evenodd">
        <g id="noun_Download_2725709" fill="#575757" fill-rule="nonzero">
            <g id="Group">
                <g id="Shape">
                    <path d="M68.3,13.5 C63.1,5.4 54.3,0.5 44.6,0.5 C32.7,0.5 22.3,7.9 18.3,18.8 C7.8,19.3 -0.6,28.4 0.2,39.2 C0.9,49.2 10,56.7 20.2,56.7 L28.5,56.7 C30.6,56.7 32.3,55 32.3,52.9 C32.3,50.8 30.6,49.1 28.5,49.1 L19.8,49.1 C13.8,49.1 8.4,44.8 7.8,38.9 C7.1,32.1 12.5,26.4 19.1,26.4 C19.5,26.4 19.8,26.5 20.6,26.6 C22.4,26.8 24.1,25.7 24.7,24 C26.4,18.7 29.1,13.6 34,11 C45.4,4.8 57.9,9.3 63,19.4 C63.8,21 65.5,21.8 67.2,21.4 C67.8,21.3 68.4,21.2 69,21.1 C76,20.4 82.8,25.5 84,32.6 C85.5,41.4 78.7,49.2 70.2,49.2 L63.6,49.2 C61.5,49.2 59.8,50.9 59.8,53 C59.8,55.1 61.5,56.8 63.6,56.8 L69.1,56.8 C80.6,56.8 91,48.2 91.8,36.7 C92.7,23.4 81.6,12.3 68.3,13.5 Z"></path>
                    <path d="M59.5,70.2 L51.1,78.4 L51.1,37.7 C51.1,34.9 48.8,32.6 46,32.6 C43.2,32.6 40.9,34.9 40.9,37.7 L40.9,78.4 L32.5,70.2 C30.5,68.2 27.3,68.3 25.3,70.3 C23.3,72.3 23.4,75.5 25.4,77.5 L42.4,94.1 C43.4,95.1 44.7,95.5 45.9,95.5 C47.1,95.5 48.5,95 49.4,94.1 L66.4,77.5 C68.4,75.5 68.4,72.3 66.5,70.3 C64.7,68.3 61.5,68.2 59.5,70.2 Z"></path>
                </g>
            </g>
        </g>
    </g>
</svg>