<?xml version="1.0" encoding="UTF-8"?>
<svg width="603px" height="473px" viewBox="0 0 603 473" version="1.1" xmlns="http://www.w3.org/2000/svg" xmlns:xlink="http://www.w3.org/1999/xlink">
    <!-- Generator: Sketch 57.1 (83088) - https://sketch.com -->
    <title>undraw_empty_xct9Empty</title>
    <desc>Created with Sketch.</desc>
    <defs>
        <linearGradient x1="0.0418254486%" y1="50.0117741%" x2="100%" y2="50.0117741%" id="linearGradient-1">
            <stop stop-color="#808080" stop-opacity="0.25" offset="0%"></stop>
            <stop stop-color="#808080" stop-opacity="0.12" offset="54%"></stop>
            <stop stop-color="#808080" stop-opacity="0.1" offset="100%"></stop>
        </linearGradient>
    </defs>
    <g id="Page-1" stroke="none" stroke-width="1" fill="none" fill-rule="evenodd" opacity="0.281622024">
        <g id="undraw_empty_xct9" fill-rule="nonzero">
            <ellipse id="Oval" fill="#6C63FF" opacity="0.1" cx="210" cy="444.5" rx="105" ry="19.5"></ellipse>
            <path d="M350.348493,66.9316851 C311.691268,65.5858008 274.873725,53.0282198 239.716675,39.2929901 C204.559625,25.5577604 169.737062,10.3444614 132.005651,3.0682745 C107.737371,-1.6122784 79.9808619,-2.27921213 60.4312483,10.7950923 C41.6103402,23.4127574 35.529831,45.1331665 32.2626025,65.3034054 C29.8017285,80.480654 28.3562636,96.4570214 35.0938023,110.666916 C39.7766306,120.532728 48.0790941,128.824337 53.8251155,138.275569 C73.8167307,171.153599 59.6846239,211.698363 38.026543,243.801308 C27.872451,258.858388 16.0757853,273.242526 8.23324251,289.254944 C0.3906997,305.267362 -3.23490844,323.677136 3.62806314,340.056067 C10.4253318,356.278779 26.630068,368.439805 44.1847011,377.001792 C79.83751,394.396145 121.83364,399.37111 162.81436,402.195063 C253.502348,408.431795 344.668175,405.734018 435.595082,403.024224 C469.246938,402.026828 503.042145,401.011406 536.144485,395.778079 C554.529364,392.870008 573.50557,388.255548 586.855215,377.115952 C603.794629,362.978159 607.993645,339.040645 596.638981,321.31583 C577.597072,291.574191 524.963038,284.189853 511.637285,252.279177 C504.314393,234.71058 511.834394,215.147191 522.484245,198.858386 C545.324978,163.907454 583.605905,133.246528 585.618805,93.3026051 C587.00454,65.8681962 568.601741,38.3917283 540.146392,25.4075501 C510.323226,11.7984971 468.960234,13.5108945 446.967665,36.0364309 C424.300148,59.2048673 384.484161,68.1273591 350.348493,66.9316851 Z" id="Path" fill="#6C63FF" opacity="0.1"></path>
            <path d="M319,216.717073 L300.656956,204.378243 L300.656956,204.378243 L309.909324,190.635237 L261.46165,186.78122 L244.052826,200.213515 L222.260355,188.024066 L204.084992,190.205021 L203.869402,185.424845 C203.644429,180.441499 203.142613,175.474438 202.366267,170.546548 C202.444119,169.052743 202.498016,167.337854 202.492027,165.473586 C202.492027,157.616172 201.426059,147.201363 196.742983,140.258157 L197.820929,130.590251 L189.077591,120.282997 C190.481702,117.492328 192.082687,114.804684 193.868461,112.240351 C194.16789,111.810135 194.46732,111.39187 194.790703,110.985555 C206.139077,110.16695 215.092016,100.857557 215.092016,89.4747627 C215.092016,88.9489433 215.092016,88.4231239 215.03213,87.9032798 C215.03213,87.6941471 214.99021,87.4790392 214.966255,87.2699065 C216.074144,87.8674285 217.19401,88.4649505 218.313876,89.0624725 C218.523476,89.3612335 218.76302,89.6599945 219.026518,90.0125325 L219.026518,90.0125325 L219.080415,90.0782599 L219.415776,90.4905501 L219.52357,90.6160297 C219.643342,90.759435 219.769103,90.896865 219.894863,91.0402703 L219.978703,91.1358738 C220.296098,91.4884118 220.631459,91.846925 220.990774,92.199463 C221.03355,92.2341933 221.073592,92.2721478 221.110546,92.3129922 L221.55969,92.7312576 L221.685451,92.8447867 C222.06872,93.1853743 222.475944,93.5140114 222.883168,93.8247228 L223.014917,93.9203263 L223.529936,94.2728643 L223.697616,94.3804183 C223.895239,94.4999227 224.098851,94.6254023 224.296475,94.7389315 L224.368338,94.780758 C224.601893,94.9062376 224.841436,95.025742 225.08098,95.1392712 L225.200752,95.187073 C225.404364,95.2747095 225.603983,95.3583626 225.79961,95.4380322 L225.985257,95.5037596 C226.194857,95.5754623 226.398469,95.6411897 226.614058,95.7009419 L226.745807,95.7367932 C227.009305,95.8025206 227.272803,95.8562976 227.542289,95.8981242 L227.572232,95.8981242 C227.825986,95.9390811 228.081946,95.965019 228.338772,95.975802 L228.512441,95.975802 C228.741846,95.9877833 228.971723,95.9877833 229.201128,95.975802 L229.350843,95.975802 C229.638099,95.959296 229.924083,95.9253738 230.207211,95.8742233 C231.547123,95.6984413 232.833662,95.2379512 233.980021,94.5238236 C234.271884,94.3290864 234.530664,94.0890394 234.74656,93.8127724 C235.944278,92.2472647 234.626789,90.5323766 234.626789,90.5323766 L234.626789,90.5323766 C234.159679,89.4209857 231.129453,88.6382319 231.129453,88.6382319 C231.129453,88.6382319 221.547713,84.6467849 221.547713,81.4679679 C221.547713,78.2891508 219.152278,61.7975436 194.4254,58.0271798 C194.4254,58.0271798 178.340053,57.1249216 173.81867,65.7172879 L173.722852,66.7211249 C172.393386,67.5516805 171.291486,69.2187669 169.979985,69.7087349 C169.413369,69.8301618 168.866932,70.0313488 168.357078,70.3062569 L168.357078,70.1927277 L168.357078,70.1927277 C168.205676,70.3248502 168.081586,70.4851976 167.991774,70.6647701 C167.71006,71.2240578 167.541179,71.8331062 167.494721,72.4573361 C167.359804,73.2198726 167.094433,73.9535716 166.710216,74.626341 C166.603096,74.8175104 166.483046,75.0011757 166.350901,75.1760612 L166.350901,75.1760612 L166.249095,75.3373921 C166.944357,75.3914533 167.642494,75.2787716 168.285215,75.008755 C168.183934,75.8268195 167.982823,76.6294663 167.686356,77.398843 C168.463798,77.4239192 169.184495,76.9943335 169.530841,76.2994026 L169.530841,76.2516008 L169.608692,76.1440468 C169.759286,75.8674394 169.883593,75.5773713 169.979985,75.2776399 L169.91411,75.3493426 C170.033882,74.9609533 170.141677,74.5665888 170.273426,74.1841747 C170.333787,73.9687692 170.433248,73.7662422 170.566866,73.5866527 C170.891016,73.2606053 171.351119,73.1075799 171.806504,73.1743625 L171.560972,78.3548782 L171.668767,78.3548782 C171.524522,78.7317142 171.348213,79.0955389 171.141771,79.4423683 C170.291391,80.8166689 168.746336,81.7547784 168.17742,83.2605339 C167.932122,83.9867755 167.838373,84.7554219 167.901945,85.519167 C167.901945,85.9673085 167.955842,86.4214252 167.991774,86.8695667 L167.991774,86.8337154 C168.075614,88.0287594 168.099568,89.1640512 167.452801,90.1260616 C167.009645,90.7833358 166.297003,91.2792791 166.051471,92.0261816 C165.983551,92.2343046 165.953138,92.4527915 165.961643,92.6715054 C166.00969,93.3263059 166.146684,93.9715564 166.368866,94.589551 C166.371463,94.577741 166.371463,94.5655097 166.368866,94.5536997 C166.518227,95.0083002 166.553189,95.4925853 166.470672,95.9638516 C166.201186,97.1588956 164.745959,98.1567573 164.817822,99.2980243 C164.813714,99.4481216 164.836009,99.5977756 164.883697,99.7401906 C165.163687,100.297635 165.648522,100.725735 166.237118,100.935235 C167.160423,101.459103 168.220832,101.692372 169.27932,101.604459 C169.676045,101.532942 170.059655,101.401999 170.417152,101.21607 C169.997951,102.17808 169.566772,103.12814 169.129605,104.030399 C169.063731,104.173804 168.991868,104.317209 168.920005,104.460614 C168.920005,104.460614 165.219058,101.992849 163.117063,107.023984 C162.503444,108.069506 162.064527,109.207738 161.81754,110.394008 C161.712232,110.868537 161.563903,111.33253 161.374384,111.780259 C160.441204,113.356551 159.044567,114.608215 157.374008,115.365391 C153.086179,117.325263 135.767184,138.877882 135.461766,144.458737 C135.31188,146.637269 134.942721,148.79523 134.359865,150.900024 C132.996527,155.856713 132.646236,161.036358 133.329828,166.13086 C133.543819,167.777316 133.898435,169.402513 134.389808,170.988714 C136.228305,176.563594 137.455965,186.966452 137.455965,186.966452 L139.444176,205.023567 C139.370369,207.515784 139.478449,210.010056 139.76756,212.486617 C137.737429,214.799027 129.586961,224.437057 132.701027,227.060178 C135.096462,229.127604 139.288473,228.787017 141.641988,228.362776 C139.659766,233.256481 136.539711,241.765195 136.126499,247.60896 C135.52764,256.255103 137.150547,267.7096 139.719651,272.107362 C142.288756,276.505124 150.852436,287.786339 150.852436,287.786339 C150.852436,287.786339 150.451201,303.262159 153.511369,308.884841 C156.571537,314.507523 157.805186,326.171152 157.805186,326.171152 C157.805186,326.171152 160.661742,336.018315 159.23047,339.639298 C157.799198,343.260282 161.883414,346.271793 157.595586,348.679806 C153.307757,351.08782 147.822211,405.360743 147.822211,405.360743 C147.822211,405.360743 145.612422,440.931228 147.822211,442.741719 C147.940459,442.827491 148.066819,442.901537 148.199492,442.962803 L148.199492,454.913243 C148.199492,454.913243 146.666413,457.422835 152.900533,457.930729 C157.170396,458.271316 169.273332,459.04212 176.453648,459.490261 L182.017046,459.836824 C182.017046,459.836824 195.191939,462.45397 201.012846,459.836824 C206.833753,457.219677 217.15209,457.27943 215.619011,450.3661 C215.415726,449.425286 215.143512,448.500627 214.804563,447.599573 C213.12177,443.309365 210.265214,442.819397 205.001245,441.624353 C204.695827,441.558626 204.402387,441.498874 204.1329,441.451072 C198.587468,440.489061 196.766937,443.064381 193.65886,439.712283 C190.958007,436.814301 182.358396,433.569757 179.429976,432.542019 C179.501839,432.326911 179.591668,432.117778 179.663531,431.896695 C178.834291,431.756325 178.063031,431.380889 177.441765,430.81518 L185.376644,431.317099 L190.101639,431.609885 C190.101639,431.609885 201.300298,433.838642 206.270826,431.609885 C211.241354,429.381128 219.984692,429.44088 218.67918,423.567238 C218.507213,422.766849 218.277042,421.980021 217.990492,421.213002 C216.55922,417.568118 214.127853,417.167778 209.654378,416.157966 C209.396869,416.104189 209.157325,416.050412 208.917782,416.008585 C204.204763,415.18998 202.659708,417.376911 200.018741,414.532706 C197.755054,412.106766 190.610669,409.388041 188.041565,408.461882 C188.041565,407.135383 186.244989,405.247214 185.113146,403.353069 C183.783679,401.142238 186.239,393.404328 186.239,393.404328 L187.64033,361.299471 C188.173976,361.062307 188.738464,360.901384 189.317134,360.821453 C189.317134,360.821453 195.65306,354.786481 194.221788,348.357144 C193.930163,346.412567 193.778065,344.449696 193.766655,342.483503 C195.850684,340.553507 198.719217,337.703327 199.533665,335.946612 C200.863131,333.084482 199.533665,319.215996 199.533665,319.215996 L199.533665,266.185919 L210.133465,267.255483 L219.751137,268.241395 L222.679556,268.540156 L232.297228,269.508141 L254.401105,271.736898 L274.319148,267.97251 L282.936725,266.34725 L300.656956,263.001127 L300.656956,219.740534 L319,216.717073 Z M173.112016,73.3655695 L171.878367,73.2341147 C172.285591,73.2520404 172.716769,73.3297182 173.112016,73.3655695 Z" id="Shape" fill="url(#linearGradient-1)"></path>
            <path d="M277.486554,245.754489 C271.492929,254.347002 249.945848,249.795552 249.945848,249.795552 L233.247609,234.141687 L231,232.022081 L234.76999,224 C234.76999,224 235.968715,224.33025 238.024528,224.918696 C248.819047,228.059077 282.545173,238.531014 277.486554,245.754489 Z" id="Path" fill="#EFB7B9"></path>
            <path d="M238,222.996448 C237.264103,225.783896 235.247863,229.958555 233.24359,233 L231,230.701007 L234.763248,222 C234.763248,222 235.971795,222.3582 238,222.996448 Z" id="Path" fill="#000000" opacity="0.1"></path>
            <path d="M178.663982,134.252311 C178.663982,134.252311 163.27168,141.092096 164.02691,157.8883 C164.570325,168.709211 165.74715,179.488844 167.551315,190.171603 C167.551315,190.171603 164.404525,215.446978 177.507162,221.962489 C190.609799,228.477999 202.735433,233.834529 202.735433,233.834529 C202.735433,233.834529 223.234527,236.044398 225.781929,236.95717 C228.329331,237.869942 236.289213,223.914139 234.820711,221.740301 C233.352208,219.566462 214.537397,215.008608 212.139842,211.38154 C209.742287,207.754473 204.197941,205.514578 204.197941,205.514578 C204.197941,205.514578 198.473779,202.043643 198.084176,198.908992 C197.694574,195.774341 199.205033,193.438365 199.588642,192.063202 C199.972251,190.688039 200.943261,177.410811 200.943261,177.410811 C200.943261,177.410811 207.404671,130.150842 178.663982,134.252311 Z" id="Path" fill="#DCE6F2"></path>
            <path d="M189,189 C189,189 168.116441,192.560066 170.137813,200 C170.137813,200 177.71944,191.968733 189,189 Z" id="Path" fill="#000000" opacity="0.1"></path>
            <path d="M190,191 C190,191 179.15289,201.446688 181.275272,201.981907 C183.397655,202.517127 190,191 190,191 Z" id="Path" fill="#000000" opacity="0.1"></path>
            <path d="M194.933231,195 C194.933231,195 193.338255,202.482158 194.318597,201.975371 C195.298938,201.468583 194.933231,195 194.933231,195 Z" id="Path" fill="#000000" opacity="0.1"></path>
            <path d="M238.342394,222.877209 L237.070377,222.510308 C237.432961,221.307356 237.534009,220.332964 237.236809,219.881856 C235.780529,217.704511 217.134198,213.14532 214.762542,209.506387 C212.390886,205.867454 206.886741,203.629962 206.886741,203.629962 C206.886741,203.629962 201.21022,200.153428 200.82386,197.013721 C200.4375,193.874013 201.935388,191.53427 202.315804,190.156889 C202.69622,188.779508 203.659148,175.474848 203.659148,175.474848 C203.659148,175.474848 210.048949,128.144664 181.547465,132.252748 C181.547465,132.252748 166.28327,139.10958 167.026271,155.932877 C167.565367,166.771503 168.734394,177.568629 170.527287,188.268253 C170.527287,188.268253 167.406687,213.584398 180.400273,220.110417 C193.393859,226.636437 205.418572,232.001607 205.418572,232.001607 C205.418572,232.001607 225.741112,234.209026 228.273256,235.129285 C229.23024,235.478141 230.959944,233.679727 232.653985,231.207658 L233.616913,232.115888 L250.176899,247.790365 C250.176899,247.790365 271.545583,252.355571 277.489584,243.748443 C282.512264,236.506666 249.071315,226.016916 238.342394,222.877209 Z" id="Path" fill="#000000" opacity="0.1"></path>
            <path d="M171.643435,71.4118897 C171.050944,71.5254178 170.483465,71.7402834 169.966971,72.046652 C169.361749,72.5390377 169.361749,73.3814324 169.210443,74.1170448 C169.032703,75.1403348 168.618677,76.1102604 168,76.9527116 C168.688692,77.0022355 169.37952,76.8903944 170.015388,76.626432 C169.911796,77.4384023 169.708585,78.2351465 169.410167,78.999375 C170.180423,79.0185799 170.890768,78.5938508 171.225832,77.9137535 C171.546069,77.2452642 171.79943,76.5479162 171.982359,75.8314961 C172.039207,75.6172194 172.137859,75.4157641 172.272865,75.2382603 C172.829669,74.5916334 173.864598,74.8823189 174.724013,74.9653719 C176.180502,75.0857468 177.589083,74.4226545 178.403761,73.2331235 C179.317646,71.8746136 179.372116,68.3982521 177.193318,68.030446 C174.917684,67.6626398 173.501465,70.735601 171.643435,71.4118897 Z" id="Path" fill="#965D7B"></path>
            <g id="Group" opacity="0.1" transform="translate(168.000000, 72.000000)" fill="#000000">
                <path d="M2.06526316,0.9975 C2.12210526,0.711666667 2.16,0.414166667 2.22947368,0.128333333 L2.22947368,0.128333333 C1.62947368,0.6125 1.59789474,1.435 1.44,2.16416667 C1.36044725,2.58487553 1.23561771,2.99719798 1.06736842,3.395 C1.5646642,2.6629228 1.90355004,1.84872991 2.06526316,0.9975 L2.06526316,0.9975 Z" id="Path"></path>
                <path d="M2.26736842,5.81583333 C2.58187615,5.06526468 2.79403265,4.28146427 2.89894737,3.4825 C2.26657251,3.72834063 1.58192091,3.83805467 0.896842105,3.80333333 C0.697425208,4.21360067 0.454110657,4.60443201 0.170526316,4.97 C0.8866811,5.02118207 1.60569111,4.91316814 2.26736842,4.655 C2.1624537,5.45396427 1.9502972,6.23776468 1.63578947,6.98833333 C2.43916024,7.00573405 3.17963946,6.588546 3.53052632,5.92083333 C3.68787526,5.65569202 3.81487707,5.37612633 3.90947368,5.08666667 C3.53286297,5.57280103 2.91364664,5.84776021 2.26736842,5.81583333 L2.26736842,5.81583333 Z" id="Path"></path>
                <path d="M7.81263158,1.84916667 C6.91578947,1.7675 5.82947368,1.48166667 5.24842105,2.1175 C5.11009945,2.29346333 5.00739232,2.49109136 4.94526316,2.70083333 C4.88842105,2.8525 4.83789474,3.01 4.79368421,3.1675 C5.39368421,2.73 6.36631579,2.96333333 7.18105263,3.03916667 C8.70021374,3.15374289 10.1681663,2.50259379 11.0210526,1.33583333 C11.2124849,1.05257991 11.3552316,0.743635683 11.4442105,0.42 C10.5659041,1.42401428 9.2050466,1.95956428 7.81263158,1.84916667 Z" id="Path"></path>
            </g>
            <polygon id="Path" fill="#DCE6F2" points="189.038198 121 198 131.949254 196.830558 143 186 125.776119"></polygon>
            <polygon id="Path" fill="#000000" opacity="0.1" points="198 131.949254 196.900539 142.343284 196.829985 143 187.052425 127.453731 186 125.776119 186.305732 125.292537 189.033807 121 189.639392 121.740299"></polygon>
            <path d="M201.438344,104.910007 C198.380243,105.783729 195.458452,108.782721 192.915961,112.425198 C191.197496,114.938392 189.660618,117.570131 188.316955,120.300504 C187.481311,121.965299 186.746419,123.565155 186.135984,124.958387 L185.709272,125.95018 C184.678052,128.37653 184.103176,130 184.103176,130 C184.103176,130 160.693292,112.466523 164.397387,111.285817 C165.641963,110.890281 167.277692,108.233693 168.895641,104.886393 L169.097144,104.461339 C170.122438,102.312455 171.129952,99.9156228 172.024861,97.6604752 C173.856166,93.0262059 175.213347,89 175.213347,89 C175.213347,89 210.772665,102.25342 201.438344,104.910007 Z" id="Path" fill="#EFB7B9"></path>
            <path d="M217,88 C217,88 222.544633,98.2691116 229.992194,96.8687782 C237.439755,95.4684448 234.375615,91.3545764 234.375615,91.3545764 L217,88 Z" id="Path" fill="#444053"></path>
            <path d="M206.578561,430.98965 C201.675266,433.262937 190.588237,430.98965 190.588237,430.98965 L185.915542,430.693938 C179.847108,430.299655 169.688548,429.634303 166.096035,429.33859 C160.852908,428.901183 162.139416,426.720306 162.139416,426.720306 L162.139416,413.542632 L187.578293,407 C187.578293,407 197.633689,410.4931 200.388758,413.542632 C203.004253,416.450468 204.533499,414.214145 209.200125,415.051996 C209.430726,415.095121 209.673463,415.144406 209.928337,415.206013 C214.358294,416.234845 216.761394,416.641449 218.181408,420.368655 C218.466758,421.151706 218.695934,421.954689 218.867141,422.771316 C220.177923,428.771809 211.475788,428.728684 206.578561,430.98965 Z" id="Path" fill="#A36468"></path>
            <path d="M218,420.098464 C217.091391,420.652972 216.136287,421.131251 215.144948,421.528161 C211.818086,423.011028 208.654543,424.818826 205.291388,426.218984 C201.928233,427.619141 198.304978,428.617566 194.663577,428.351713 C192.758192,428.215833 190.810466,427.760929 188.989765,428.292635 C187.863775,428.717259 186.803263,429.291815 185.83832,430 C179.78948,429.621898 169.663722,428.983852 166.082809,428.700276 C160.856612,428.280819 162.138966,426.189445 162.138966,426.189445 L162.138966,424.712485 C162.32648,424.712485 162.538189,424.659315 162.780143,424.641591 C164.031931,424.622051 165.27849,424.803678 166.469935,425.179204 C169.095131,425.876329 171.70823,426.561638 174.333427,427.246948 C174.769797,425.63868 175.863221,424.275994 177.357846,423.477747 C178.856227,422.700879 180.537944,422.323875 182.233211,422.384797 C186.30408,422.437968 190.157191,424.322568 194.222011,424.511619 C195.358436,424.613672 196.502546,424.426414 197.542824,423.968098 C198.099318,423.696337 198.589274,423.300512 199.133669,422.999212 C200.004914,422.587577 200.925425,422.283924 201.873793,422.095313 C204.539381,421.44725 207.156551,420.622172 209.707041,419.625837 C210.432902,419.348169 211.279739,418.846002 211.182958,418.089799 C211.055932,417.085467 209.440892,416.96731 209.017473,416.045687 C208.866019,415.70878 208.883909,415.32219 209.065864,415 C209.29572,415.041355 209.537673,415.088618 209.791725,415.147696 C214.189231,416.134305 216.584572,416.524222 218,420.098464 Z" id="Path" fill="#000000" opacity="0.1"></path>
            <path d="M201.609899,459.788358 C195.936617,462.514552 183.097084,459.788358 183.097084,459.788358 L177.692536,459.455436 C170.693498,458.984319 158.905015,458.199125 154.742617,457.828514 C148.669219,457.300863 150.162188,454.687737 150.162188,454.687737 L150.162188,438.851941 L179.621452,431 C179.621452,431 191.26661,435.189796 194.455591,438.851941 C197.483333,442.338203 199.233092,439.65598 204.661527,440.661029 C204.930262,440.711281 205.21094,440.774097 205.503562,440.843194 C210.633403,442.099504 213.416297,442.570621 215.058563,447.043087 C215.391055,447.982071 215.656544,448.945819 215.852823,449.92632 C217.333848,457.12498 207.283181,457.068446 201.609899,459.788358 Z" id="Path" fill="#A36468"></path>
            <path d="M215,447.0924 C213.945525,447.757449 212.837631,448.331946 211.687984,448.809843 C207.82695,450.587546 204.150911,452.756947 200.248103,454.438232 C196.345296,456.119518 192.138141,457.312688 187.907115,456.99933 C185.699105,456.836625 183.437386,456.276197 181.34276,456.927017 C180.030294,457.443169 178.795147,458.140823 177.672689,459 C170.678666,458.548042 158.898632,457.794777 154.739218,457.439237 C148.670173,456.933043 150.162072,454.42618 150.162072,454.42618 L150.162072,452.654503 C150.409162,452.613758 150.658127,452.5856 150.908022,452.570137 C152.361814,452.543324 153.809875,452.761237 155.192755,453.214931 L164.317209,455.69769 C164.830903,453.762227 166.110714,452.125528 167.855994,451.172079 C169.595337,450.235771 171.549625,449.782438 173.519242,449.858386 C178.245578,449.924674 182.715307,452.184466 187.435675,452.413458 C188.750268,452.534551 190.073622,452.312521 191.278807,451.768664 C191.929275,451.437228 192.472326,450.961165 193.128762,450.605624 C194.138032,450.106535 195.207216,449.741919 196.30949,449.520924 C199.387001,448.736719 202.409325,447.746241 205.356365,446.556076 C206.197796,446.218614 207.18245,445.616003 207.069065,444.712086 C206.919875,443.506863 205.04605,443.362236 204.55074,442.253432 C204.381626,441.848055 204.403571,441.387124 204.610416,441 C204.878958,441.048209 205.159435,441.10847 205.451847,441.174757 C210.578012,442.331771 213.358911,442.801808 215,447.0924 Z" id="Path" fill="#000000" opacity="0.1"></path>
            <path d="M187.836964,355 L186.302185,392.40325 C186.302185,392.40325 184.002891,400.041061 185.250258,402.225844 C186.497625,404.410628 188.601479,406.589458 187.836964,407.881278 C187.072448,409.173098 177.875274,423.139041 174.903437,417.781262 C171.931599,412.423484 169,389.206442 169,389.206442 L171.741908,360.530418 L187.836964,355 Z" id="Path" fill="#444053"></path>
            <path d="M194.980329,261 L199.422598,266.957742 L199.422598,318.775687 C199.422598,318.775687 200.721752,332.589001 199.422598,335.441751 C198.123444,338.294501 191.537869,344 191.537869,344 L186,315.472504 L187.197377,285.293415 L194.980329,261 Z" id="Path" fill="#444053"></path>
            <path d="M187.836964,355 L186.302185,392.40325 C186.302185,392.40325 184.002891,400.041061 185.250258,402.225844 C186.497625,404.410628 188.601479,406.589458 187.836964,407.881278 C187.072448,409.173098 177.875274,423.139041 174.903437,417.781262 C171.931599,412.423484 169,389.206442 169,389.206442 L171.741908,360.530418 L187.836964,355 Z" id="Path" fill="#000000" opacity="0.1"></path>
            <path d="M194.980329,261 L199.422598,266.957742 L199.422598,318.775687 C199.422598,318.775687 200.721752,332.589001 199.422598,335.441751 C198.123444,338.294501 191.537869,344 191.537869,344 L186,315.472504 L187.197377,285.293415 L194.980329,261 Z" id="Path" fill="#000000" opacity="0.1"></path>
            <path d="M200,237.4065 L200,265.421139 L195.092887,287.228978 C195.092887,287.228978 193.520019,339.854721 194.892597,346.253608 C196.265175,352.652494 190.179884,358.661205 190.179884,358.661205 C190.179884,358.661205 186.645349,359.063387 186.645349,361.860649 C186.645349,364.657911 180.754457,372.665524 180.754457,372.665524 L180.948856,388.272565 C180.948856,388.272565 183.505503,417.487746 179.576279,423.088273 C175.647054,428.688799 180.948856,429.493162 180.948856,429.493162 C176.041744,445.898564 152.478177,442.098849 150.351565,440.298037 C148.224953,438.497225 150.351565,403.081246 150.351565,403.081246 C150.351565,403.081246 155.618022,349.056872 159.741646,346.655789 C163.86527,344.254706 159.941937,341.253352 161.314514,337.651727 C162.687092,334.050102 159.941937,324.247679 159.941937,324.247679 C159.941937,324.247679 158.763758,312.638442 155.818312,307.037915 C152.872867,301.437388 153.261665,286.028436 153.261665,286.028436 C153.261665,286.028436 145.014417,274.82138 142.563806,270.421395 C140.113195,266.02141 138.534436,254.616264 139.123525,246.008381 C139.524106,240.191756 142.52257,231.721935 144.425328,226.847736 C145.338416,224.512682 145.998196,223 145.998196,223 L146.557831,223.150068 L178.733881,231.73394 L200,237.4065 Z" id="Path" fill="#444053"></path>
            <path d="M201.387199,105.313959 C198.228498,106.207543 195.210591,109.274712 192.584461,113 L191.898851,113 C184.063669,113.005459 176.824391,108.87566 172.922156,102.174337 C172.120994,100.810158 171.476304,99.3622469 171,97.8573565 C172.891548,93.1177349 174.293375,89 174.293375,89 C174.293375,89 211.028585,102.596978 201.387199,105.313959 Z" id="Path" fill="#000000" opacity="0.1"></path>
            <path d="M214,91.4901909 C214.014577,100.496956 208.400265,108.555763 199.939696,111.672371 C191.479126,114.788979 181.970344,112.301045 176.126251,105.441679 C170.282158,98.5823139 169.344744,88.8092742 173.778627,80.966438 C174.430385,79.8035901 175.191583,78.7054075 176.051903,77.6867753 C177.470099,75.9992343 179.136977,74.5369045 180.995376,73.3499319 C187.380827,69.2970415 195.429096,68.8946052 202.187894,72.2902459 C208.946692,75.6858866 213.421138,82.3797723 213.969902,89.9164333 C213.98193,90.4450236 214,90.9676073 214,91.4901909 Z" id="Path" fill="#EFB7B9"></path>
            <path d="M196,142.330557 L195.928064,143 L185.958884,127.17681 C184.915807,129.678091 184.334321,131.351698 184.334321,131.351698 C184.334321,131.351698 160.655271,113.252402 164.401956,112.035234 C165.660843,111.627482 167.315379,108.888853 168.951931,105.438181 L169.155751,105 C170.894212,110.258168 180.995275,120.768418 185.197557,124.979821 C185.683128,125.466688 186.084773,125.868354 186.396497,126.160474 L187.037929,126.769058 L187.373632,127.109865 C188.90228,128.710442 195.352573,135.770019 196,142.330557 Z" id="Path" fill="#000000" opacity="0.1"></path>
            <path d="M203,194.013123 L201.9029,228.804447 L201.710004,235 C201.710004,235 188.713592,233.811975 176.585216,232.505147 C166.819823,231.453744 157.615037,230.31918 156.198452,229.653886 C154.390046,228.816328 150.514029,228.168854 147.457823,227.758985 C145.094839,227.444158 143.238209,227.277835 143.238209,227.277835 C143.238209,227.277835 142.544986,227.479799 141.478027,227.669883 C139.151211,228.085692 135.064213,228.424279 132.683145,226.386816 C129.638995,223.7791 137.638178,214.304597 139.633453,212.029529 L140.073498,211.536498 L139.319995,204.675651 L137.360889,186.884971 C137.360889,186.884971 136.155285,176.638251 134.346879,171.143634 C133.863404,169.581439 133.514551,167.981831 133.304031,166.361832 C132.632119,161.343439 132.976321,156.243577 134.316739,151.35707 C134.88943,149.280713 135.252871,147.153749 135.401782,145.007075 C135.703183,139.512457 152.73234,118.276503 156.951954,116.345961 C158.850127,115.473694 160.377536,113.97276 161.268017,112.104711 C161.561997,111.517349 161.782625,110.897029 161.925071,110.257331 C163.733477,102.535166 168.308744,105.600272 168.308744,105.600272 C169.411872,111.641381 186.489253,127.632203 186.489253,127.632203 L186.826822,127.96485 C188.520696,129.675607 196.067777,137.706658 195.531283,144.561565 C195.42408,147.112906 195.810727,149.661036 196.670579,152.069886 C200.144239,162.848083 202.141102,174.035275 202.608179,185.334597 L203,194.013123 Z" id="Path" fill="#DCE6F2"></path>
            <path d="M179.869753,154 C179.869753,154 175.67488,164.262273 172.528725,165.922347 C169.382571,167.58242 181.367922,169.423593 179.869753,154 Z" id="Path" fill="#000000" opacity="0.1"></path>
            <path d="M183,172 C183,172 174,173.410156 174,175.525391 C174,177.640625 183,172 183,172 Z" id="Path" fill="#000000" opacity="0.1"></path>
            <path d="M194,183 C194,183 180.292267,213.069638 176.459998,213.98084 C172.627729,214.892041 194,183 194,183 Z" id="Path" fill="#000000" opacity="0.1"></path>
            <path d="M187,127.199544 L175.672243,132 L162,111.867946 C162.287282,111.300157 162.502883,110.70051 162.642083,110.08213 C164.409284,102.617307 168.880302,105.580267 168.880302,105.580267 C169.958294,111.420056 186.64656,126.877983 186.64656,126.877983 L187,127.199544 Z" id="Path" fill="#000000" opacity="0.1"></path>
            <path d="M188,127.199544 L176.672243,132 L163,111.867946 C163.287282,111.300157 163.502883,110.70051 163.642083,110.08213 C165.409284,102.617307 169.880302,105.580267 169.880302,105.580267 C170.958294,111.420056 187.64656,126.877983 187.64656,126.877983 L188,127.199544 Z" id="Path" fill="#DCE6F2"></path>
            <path d="M201.809041,236.135684 C201.809041,236.135684 188.943193,234.937782 176.93666,233.620089 L198.479198,239.280177 L198.479198,245.868638 C197.536339,246.725138 196.718796,247.168362 196.187692,246.94076 C193.705228,245.892596 173.445695,242.598365 173.445695,242.598365 C173.445695,242.598365 161.67786,236.608855 148.979101,229.421443 C148.670865,229.250052 148.372058,229.062108 148.083982,228.858429 C146.603305,227.849398 145.327448,226.566793 144.324481,225.079047 C141.979269,221.671016 140.833516,217.292684 140.338217,212.998205 C140.059767,210.537043 139.95607,208.059121 140.027909,205.583191 C140.08942,202.77573 140.344642,199.975918 140.791744,197.203866 C139.56363,186.467309 138.965851,175.667536 139.001505,164.86051 C139.150692,148.089881 154.815279,142.10037 154.815279,142.10037 C183.608283,139.554829 174.68096,186.27301 174.68096,186.27301 C174.68096,186.27301 173.016038,199.449933 172.562511,200.797572 C172.108984,202.145212 170.479866,204.391279 170.700663,207.535772 C170.921459,210.680265 176.423458,214.441677 176.423458,214.441677 C176.423458,214.441677 181.794174,216.96925 184.008103,220.712694 C185.619317,223.473859 196.086245,227.217303 202,229.888624 L201.809041,236.135684 Z" id="Path" fill="#000000" opacity="0.1"></path>
            <path d="M212.999584,78.7582057 C213.010419,79.7302287 212.809616,80.6929129 212.41119,81.5790628 C212.10955,82.3021715 211.759643,83.0040597 211.36385,83.6799521 C210.744582,84.9232446 209.865598,86.0181858 208.786686,86.8902998 C207.427497,87.8640266 205.709388,88.1354899 204.079538,88.5308819 C202.449688,88.926274 200.755114,89.5577211 199.825452,90.9504455 C199.321614,91.8457543 198.984649,92.8256494 198.831067,93.842119 C198.675198,94.8577134 198.270892,95.8187583 197.65428,96.6393705 C196.993892,97.4634508 195.861403,97.7352773 194.900598,97.3003245 C194.408509,96.9675943 194.035351,96.4858075 193.835606,95.9253042 C193.164837,94.408651 192.994203,92.7267592 192.723542,91.0920785 C192.452881,89.4573977 192.070425,87.775506 191.070156,86.4594995 C190.069887,85.143493 188.298823,84.2759909 186.727812,84.7894105 C185.665324,85.1996553 184.815433,86.0264928 184.374238,87.0791438 C183.939441,88.1220893 183.640811,89.2170047 183.485764,90.3367025 C182.756156,94.3417687 181.89514,98.3232294 180.902716,102.281085 C180.872438,102.443327 180.806068,102.596632 180.708546,102.729589 C180.55212,102.885965 180.340996,102.974899 180.120153,102.977447 C178.802151,103.154488 177.537105,102.227972 176.207336,102.328296 C176.070312,102.337449 175.934413,102.359178 175.801344,102.393211 C171.397234,94.7164428 172.245806,85.0975122 177.925445,78.3156027 L178.031355,78.2860958 C178.915929,77.9711507 179.719782,77.4632222 180.38493,76.7989494 C181.234309,75.9464599 182.020899,75.0332838 182.738504,74.066613 L183.209219,73.4764756 C184.561676,71.8423424 186.102214,70.3744937 187.798688,69.103557 C188.261772,68.723048 188.792974,68.4346277 189.363815,68.2537591 C189.852336,68.158306 190.352993,68.142365 190.846567,68.2065481 C192.878576,68.4512053 194.927178,68.5281816 196.971744,68.4367017 C198.396387,68.2120916 199.832278,68.0663039 201.2729,68 C204.997432,68.1062247 208.174757,70.7441392 210.528331,73.6358127 C211.793377,75.1170577 212.923093,76.8225549 212.999584,78.7582057 Z" id="Path" fill="#000000" opacity="0.1"></path>
            <path d="M173.136334,79.9407403 C172.309649,81.3126649 170.816857,82.2453329 170.257803,83.7496362 C169.437065,85.9338846 170.822804,88.6536649 169.550065,90.603242 C169.127801,91.2591182 168.431958,91.7465125 168.194063,92.4986642 C167.789641,93.7682961 168.895854,95.1221691 168.61038,96.4279044 C168.324905,97.7336396 166.623955,98.8347896 167.075956,100.110439 C167.343067,100.666773 167.811608,101.097722 168.384379,101.313881 C169.285557,101.836911 170.322796,102.069882 171.358068,101.981792 C172.981703,101.711018 174.18902,100.098404 175.836444,99.9780601 C177.174604,99.8817847 178.45329,100.82047 179.785503,100.645971 C180.008778,100.638111 180.221011,100.545779 180.380241,100.387231 C180.481309,100.253129 180.548661,100.096192 180.576505,99.9299224 C181.575664,95.8983896 182.447946,91.8387764 183.193351,87.751083 C183.345235,86.6090782 183.645185,85.4922995 184.085458,84.4295813 C184.534861,83.3586568 185.39272,82.5167622 186.464409,82.0949026 C188.052359,81.5774223 189.836572,82.4559354 190.853574,83.7977739 C191.870576,85.1396125 192.257155,86.8545182 192.530735,88.5212863 C192.804314,90.1880543 192.976788,91.9029601 193.648842,93.4493838 C193.853048,94.0229234 194.23209,94.5159857 194.731265,94.8574117 C195.623371,95.3809093 196.824742,94.9657216 197.50869,94.1834838 C198.135261,93.3464314 198.544238,92.3637042 198.698166,91.3253076 C198.853326,90.2907651 199.193951,89.293596 199.703273,88.3828904 C200.642959,86.962828 202.361751,86.3189862 204.003227,85.915833 C205.644704,85.5126797 207.375391,85.2298707 208.76113,84.2370305 C209.850218,83.3487365 210.738483,82.2346002 211.366081,80.9696837 C212.246293,79.4172427 213.067032,77.7324231 212.995663,75.9453107 C212.918347,73.9957337 211.776451,72.2567591 210.557238,70.7404214 C208.178287,67.7919869 204.960755,65.1022926 201.196065,65 C199.739481,65.0616223 198.287771,65.2103063 196.848531,65.4452738 C194.781766,65.539306 192.71085,65.4587975 190.657311,65.2045852 C190.157967,65.1441545 189.652382,65.1624231 189.158571,65.2587402 C188.580904,65.4372309 188.04483,65.7319521 187.582516,66.1252189 C185.866075,67.4189464 184.306939,68.9135794 182.937614,70.5779566 C182.054702,71.7623852 181.097167,72.8879369 180.070977,73.947596 C179.398384,74.6259843 178.586076,75.1458019 177.692026,75.4699509 C177.097288,75.6384329 176.50255,75.5180886 175.93755,75.7046222 C174.183073,76.264223 173.951125,78.5808501 173.136334,79.9407403 Z" id="Path" fill="#965D7B"></path>
            <path d="M229.994706,96.8676467 C225.130052,97.7830569 221.098471,93.7540067 218.866811,90.8147306 C218.1814,89.9220723 217.557617,88.9815469 217,88 L233.697923,91.225731 L234.372894,91.3565039 C234.372894,91.3565039 237.443706,95.472736 229.994706,96.8676467 Z" id="Path" fill="#000000" opacity="0.1"></path>
            <g id="Group" opacity="0.1" transform="translate(167.000000, 77.000000)" fill="#000000">
                <path d="M2.07632911,19.4517391 C2.14290887,18.6841061 2.02467482,17.9118151 1.73126582,17.1978261 C1.73126582,17.2565217 1.67772152,17.3152174 1.65987342,17.373913 C1.40405063,18.1604348 1.74911392,18.9763043 1.96924051,19.7921739 C2.01651663,19.6825615 2.05239662,19.568499 2.07632911,19.4517391 L2.07632911,19.4517391 Z" id="Path"></path>
                <path d="M3.49227848,9.84326087 C3.43107113,10.6549039 3.44700561,11.4704177 3.53987342,12.2791304 C3.60087221,11.4674817 3.58493811,10.6519872 3.49227848,9.84326087 L3.49227848,9.84326087 Z" id="Path"></path>
                <path d="M44.8106329,4.35521739 C44.1844786,5.59180834 43.2957205,6.68084763 42.2048101,7.54826087 C40.8305063,8.51673913 39.0992405,8.78673913 37.4453165,9.18 C35.7913924,9.57326087 34.0839241,10.2013043 33.1439241,11.5865217 C32.6353299,12.4773807 32.2946725,13.4518371 32.138481,14.4626087 C31.9835208,15.4752536 31.5745047,16.4336368 30.9486076,17.2506522 C30.2644304,18.0136957 29.0626582,18.4245652 28.1702532,17.9080435 C27.6709118,17.5749953 27.2917429,17.0940315 27.0874684,16.5345652 C26.4151899,15.026087 26.2367089,13.3591304 25.9689873,11.7273913 C25.7012658,10.0956522 25.3026582,8.42869565 24.2912658,7.11978261 C23.2798734,5.81086957 21.4891139,4.94804348 19.9006329,5.45869565 C18.8274623,5.86847545 17.9687224,6.69028002 17.5208861,7.73608696 C17.0804667,8.77272863 16.780416,9.86210428 16.628481,10.976087 C15.8867932,14.9634783 15.0142194,18.9234783 14.0107595,22.856087 C13.982907,23.0182769 13.9155318,23.1713628 13.8144304,23.3021739 C13.6551468,23.456832 13.4428428,23.5468982 13.2194937,23.5545652 C11.8868354,23.7247826 10.6077215,22.8091304 9.26911392,22.9030435 C7.62113924,23.0204348 6.41341772,24.5934783 4.78924051,24.8517391 C3.75323854,24.9434067 2.71392251,24.7157734 1.81455696,24.2002174 C1.40103545,24.0246905 1.02995715,23.7646188 0.725822785,23.4371739 C0.443778118,23.8356281 0.362639486,24.3397285 0.505696203,24.8047826 C0.767750289,25.3512462 1.23826897,25.7732529 1.81455696,25.9786957 C2.71392251,26.4942517 3.75323854,26.721885 4.78924051,26.6302174 C6.41341772,26.3719565 7.62113924,24.798913 9.26911392,24.6815217 C10.6077215,24.5876087 11.8868354,25.5032609 13.2194937,25.3330435 C13.4428428,25.3253764 13.6551468,25.2353103 13.8144304,25.0806522 C13.9155318,24.9498411 13.982907,24.7967552 14.0107595,24.6345652 C15.0102532,20.7215217 15.882827,16.7615217 16.628481,12.7545652 C16.780416,11.6405825 17.0804667,10.5512069 17.5208861,9.51456522 C17.9687224,8.46875828 18.8274623,7.64695371 19.9006329,7.23717391 C21.4891139,6.72652174 23.2739241,7.58934783 24.2912658,8.89826087 C25.3086076,10.2071739 25.6953165,11.88 25.9689873,13.5058696 C26.2426582,15.1317391 26.4151899,16.8045652 27.0874684,18.3130435 C27.2917429,18.8725097 27.6709118,19.3534735 28.1702532,19.6865217 C29.0626582,20.1971739 30.2644304,19.7921739 30.9486076,19.0291304 C31.5745047,18.212115 31.9835208,17.2537318 32.138481,16.241087 C32.2946725,15.2303154 32.6353299,14.2558589 33.1439241,13.365 C34.0839241,11.9797826 35.8032911,11.3576087 37.4453165,10.9584783 C39.0873418,10.5593478 40.8186076,10.2952174 42.2048101,9.32673913 C43.2957205,8.4593259 44.1844786,7.3702866 44.8106329,6.13369565 C45.6911392,4.62521739 46.5121519,2.98173913 46.4407595,1.23847826 C46.4290523,1.01433998 46.4052209,0.790978445 46.3693671,0.569347826 C46.0823257,1.91277578 45.5544649,3.19484964 44.8106329,4.35521739 L44.8106329,4.35521739 Z" id="Path"></path>
            </g>
            <path d="M212.335728,80.4935298 C213.871089,83.1053355 214.781084,86.0107607 215,89 C209.665469,86.1358686 204.648256,82.9910524 202.115701,81.8969542 C197.703188,79.9894427 181.202664,80.2758558 175,80.4534319 C175.64885,79.3444888 176.406652,78.2972133 177.263134,77.3258005 C178.680459,75.7151492 180.346037,74.3205403 182.202515,73.1899947 C187.171338,70.1729046 193.218875,69.2450733 198.924559,70.6244484 C204.630243,72.0038235 209.491227,75.5688392 212.365664,80.4820733 L212.335728,80.4935298 Z" id="Path" fill="#000000" opacity="0.1"></path>
            <path d="M231.151836,94.7336856 C228.300125,95.730271 223.646086,93.804437 218.820115,91.0436259 C218.151849,90.0783762 217.543668,89.0613668 217,88 L233.280243,91.4880491 C234.359269,92.3230261 234.631989,93.5148885 231.151836,94.7336856 Z" id="Path" fill="#000000" opacity="0.1"></path>
            <path d="M195.058654,58.0266225 C195.058654,58.0266225 179.501436,57.1464172 175.127635,65.5083673 L174.422374,72.9196957 L173.237062,72.790599 L173,77.8312412 C173,77.8312412 196.777357,76.804335 202.188305,79.2219655 C207.599254,81.639596 224.412904,93.821637 231.151402,91.7678247 C237.8899,89.7140124 230.558746,87.806901 230.558746,87.806901 C230.558746,87.806901 221.28368,83.9163936 221.28368,80.8650154 C221.28368,77.8136371 218.984175,61.6941444 195.058654,58.0266225 Z" id="Path" fill="#444053"></path>
            <path d="M164,338 C164,338 173.770833,347.705621 178,346.959035 C178,346.959035 166.041667,345.913814 164,338 Z" id="Path" fill="#000000" opacity="0.1"></path>
            <path d="M162,344 C162,344 162.925499,348.401965 165.393498,347.970194 C167.861496,347.538422 162,344 162,344 Z" id="Path" fill="#000000" opacity="0.1"></path>
            <path d="M179,428 C179,428 164.891143,439.6784 167.270307,439.994032 C169.649471,440.309665 179,428 179,428 Z" id="Path" fill="#000000" opacity="0.1"></path>
            <polygon id="Path" fill="#6C63FF" points="198 208.390809 244 201 244 244 200.294026 241.740878"></polygon>
            <polygon id="Path" fill="#000000" opacity="0.05" points="198 208.390809 244 201 244 244 200.294026 241.740878"></polygon>
            <polygon id="Path" fill="#6C63FF" points="242 201 298 205.075857 294.901018 242.495885 242 244"></polygon>
            <polygon id="Path" fill="#000000" opacity="0.1" points="242 201 298 205.075857 294.901018 242.495885 242 244"></polygon>
            <polygon id="Path" fill="#6C63FF" points="259.912967 187 243 199.971536 298.010332 204 307 190.725309"></polygon>
            <polygon id="Path" fill="#6C63FF" points="180 193.897984 221.639588 189 243 200.728467 196.74714 208"></polygon>
            <polygon id="Path" fill="#6C63FF" points="254 211.801263 254 271 232.099808 268.802395 222.573498 267.852079 219.671282 267.555105 210.151044 266.59885 197 265.280287 197 208 243.7451 211.112284"></polygon>
            <polygon id="Path" fill="#6C63FF" points="298 205 298 262.43755 280.75974 265.717164 272.375166 267.312651 253 271 253 212.102874"></polygon>
            <polygon id="Path" fill="#000000" opacity="0.05" points="298 205 298 262.43755 280.75974 265.717164 272.375166 267.312651 253 271 253 212.102874"></polygon>
            <polygon id="Path" fill="#6C63FF" points="181 219.72372 197.715177 207 254 210.881402 245.714356 225"></polygon>
            <polygon id="Path" fill="#FFFFFF" opacity="0.1" points="181 219.72372 197.715177 207 254 210.881402 245.714356 225"></polygon>
            <polygon id="Path" fill="#6C63FF" points="298.108454 204 253 211.419753 267.681469 225 316 216.62963"></polygon>
            <polygon id="Path" fill="#FFFFFF" opacity="0.1" points="298.108454 204 253 211.419753 267.681469 225 316 216.62963"></polygon>
            <polygon id="Path" fill="#FFFFFF" opacity="0.1" points="281 265.430884 273 267 273 254.929431 280.493599 253"></polygon>
            <polygon id="Path" fill="#FFFFFF" opacity="0.1" points="232 261 232 269 223 268.068413 223 261"></polygon>
            <polygon id="Path" fill="#FFFFFF" opacity="0.1" points="220 263 220 267 211 266.119015 211 263"></polygon>
            <path d="M247.407557,257.29112 C241.002476,265.984943 219.850812,259.978302 219.850812,259.978302 L204.133041,242.578011 L202,240.219614 L206.170751,232 C206.170751,232 207.362394,232.417303 209.352437,233.150746 C219.886562,237.058224 252.799742,249.975664 247.407557,257.29112 Z" id="Path" fill="#000000" opacity="0.1"></path>
            <path d="M246.407557,257.29112 C240.002476,265.984943 218.850812,259.978302 218.850812,259.978302 L203.133041,242.578011 L201,240.219614 L205.170751,232 C205.170751,232 206.362394,232.417303 208.352437,233.150746 C218.886562,237.058224 251.799742,249.975664 246.407557,257.29112 Z" id="Path" fill="#EFB7B9"></path>
            <path d="M209,233.196653 C208.053485,235.958159 205.648298,240.047818 203.320908,243 L201,240.547519 L205.538088,232 C205.538088,232 206.841167,232.433951 209,233.196653 Z" id="Path" fill="#000000" opacity="0.1"></path>
            <path d="M157.545617,138.102662 C157.545617,138.102662 142.148122,144.093481 142.00148,160.867772 C141.966433,171.677158 142.55402,182.47929 143.761193,193.218192 C143.761193,193.218192 139.361909,218.229859 151.826548,225.418841 C164.291187,232.607823 175.875968,238.598641 175.875968,238.598641 C175.875968,238.598641 195.790062,241.893592 198.236064,242.941985 C200.682066,243.990378 209.181483,230.511037 207.861698,228.26448 C206.541913,226.017923 188.410996,220.476416 186.258279,216.732154 C184.105563,212.987893 178.802959,210.465758 178.802959,210.465758 C178.802959,210.465758 173.394772,206.697533 173.177741,203.552354 C172.960709,200.407174 174.556183,198.160617 175.007843,196.812683 C175.459503,195.464749 177.096037,182.284948 177.096037,182.284948 C177.096037,182.284948 185.847679,135.526611 157.545617,138.102662 Z" id="Path" fill="#DCE6F2"></path>
            <path d="M163,196 C163,196 142.499665,198.666667 144.087719,207 C144.087719,207 151.877847,198.593333 163,196 Z" id="Path" fill="#000000" opacity="0.1"></path>
            <path d="M163,198 C163,198 149.887426,206.405592 152.295194,206.975462 C154.702962,207.545333 163,198 163,198 Z" id="Path" fill="#000000" opacity="0.1"></path>
            <path d="M169.9581,201 C169.9581,201 166.736859,207.317437 168.55756,206.987513 C170.378262,206.657589 169.9581,201 169.9581,201 Z" id="Path" fill="#000000" opacity="0.1"></path>
            <path d="M390.538896,66.0283335 C390.538896,66.0283335 367.530092,64.7101043 370.21849,80.0568252 C370.21849,80.0568252 369.679599,82.7681177 372.265062,84 C372.265062,84 372.307447,82.8487081 374.626492,83.2459038 C375.452348,83.3780418 376.291764,83.4166876 377.127186,83.361033 C378.259345,83.2892465 379.335548,82.866641 380.19099,82.157933 L380.19099,82.157933 C380.19099,82.157933 386.663729,79.6193343 389.182588,69.5570431 C389.182588,69.5570431 391.047512,67.3580756 390.999072,66.7939426 L387.111796,68.3769689 C387.111796,68.3769689 388.437829,71.0422097 387.390323,73.2584466 C387.390323,73.2584466 387.269224,68.4748288 386.518411,68.5842015 C386.367037,68.5842015 384.502113,69.5109915 384.502113,69.5109915 C384.502113,69.5109915 386.784828,74.1506978 385.059168,77.5297395 C385.059168,77.5297395 385.713102,71.8078188 383.787629,69.8448661 L381.050792,71.3645714 C381.050792,71.3645714 383.721024,76.1597022 381.910595,80.0740946 C381.910595,80.0740946 382.376826,74.0701074 380.475572,71.7329848 L377.993043,73.5692954 C377.993043,73.5692954 380.505847,78.3011051 378.973945,81.5477483 C378.973945,81.5477483 378.774132,74.5594064 377.454153,74.0298122 C377.454153,74.0298122 375.286481,75.8488534 374.959514,76.5971931 C374.959514,76.5971931 376.673065,80.0510688 375.607394,81.8413277 C375.607394,81.8413277 374.953459,77.184352 374.396404,77.1613261 C374.396404,77.1613261 372.234787,80.2467884 372.010754,82.3421397 C372.115444,80.3886916 372.756319,78.4953507 373.869623,76.8504773 C372.623802,77.074563 371.474408,77.6409429 370.563622,78.4795553 C370.563622,78.4795553 370.896644,76.2978572 374.402459,76.107894 C374.402459,76.107894 376.218943,73.765015 376.66701,73.6211035 C376.66701,73.6211035 373.179359,73.3447935 371.066182,74.2370447 C371.066182,74.2370447 372.925051,72.1819887 377.308834,73.0857528 L379.730813,71.1861212 C379.730813,71.1861212 375.141163,70.6104752 373.191469,71.2494422 C373.191469,71.2494422 375.4318,69.430401 380.390803,70.7543867 L383.05498,69.2404379 C383.05498,69.2404379 379.143483,68.4345335 376.812328,68.728113 C376.812328,68.728113 379.270637,67.4674483 383.836068,68.8317292 L385.743377,68.0200685 C385.743377,68.0200685 382.873332,67.4847177 382.037749,67.3983708 C381.202166,67.3120239 381.153726,67.0932785 381.153726,67.0932785 C382.969417,66.8059797 384.833395,67.005315 386.536575,67.6689244 C386.536575,67.6689244 390.623666,66.2701048 390.538896,66.0283335 Z" id="Path" fill="#6C63FF"></path>
            <path d="M458.591204,146.028333 C458.591204,146.028333 435.523802,144.710104 438.219046,160.056825 C438.219046,160.056825 437.678783,162.768118 440.270831,164 C440.270831,164 440.313323,162.848708 442.644345,163.245904 C443.472304,163.378042 444.313858,163.416688 445.151407,163.361033 C446.273116,163.283912 447.338163,162.863764 448.186592,162.163689 L448.186592,162.163689 C448.186592,162.163689 454.681887,159.619334 457.20716,149.557043 C457.20716,149.557043 459.070763,147.363832 458.997919,146.799699 L455.100742,148.376969 C455.100742,148.376969 456.430153,151.04221 455.386049,153.258447 C455.386049,153.258447 455.258572,148.474829 454.511916,148.584201 C454.360157,148.584201 452.484413,149.510991 452.484413,149.510991 C452.484413,149.510991 454.779012,154.156454 453.048957,157.52974 C453.048957,157.52974 453.704557,151.807819 451.768109,149.844866 L449.054655,151.347302 C449.054655,151.347302 451.731687,156.142433 449.916647,160.056825 C449.916647,160.056825 450.384065,154.052838 448.477969,151.715715 L445.995189,153.557782 C445.995189,153.557782 448.508321,158.283836 446.978588,161.530479 C446.978588,161.530479 446.778266,154.542137 445.454926,154.012543 C445.454926,154.012543 443.281734,155.831584 442.947863,156.579924 C442.947863,156.579924 444.671848,160.033799 443.603463,161.824058 C443.603463,161.824058 442.947863,157.167083 442.389389,157.144057 C442.389389,157.144057 440.222268,160.229519 439.997664,162.32487 C440.106118,160.371183 440.750597,158.478202 441.867338,156.833208 C440.616767,157.05784 439.462654,157.624064 438.546846,158.462286 C438.546846,158.462286 438.886787,156.280588 442.40153,156.090625 C442.40153,156.090625 444.192289,153.747746 444.671848,153.603834 C444.671848,153.603834 441.175316,153.327524 439.056757,154.219775 C439.056757,154.219775 440.92036,152.164719 445.309237,153.097266 L447.737384,151.197634 C447.737384,151.197634 443.129974,150.621988 441.181386,151.260955 C441.181386,151.260955 443.427423,149.441914 448.399055,150.7659 L451.070017,149.251951 C451.070017,149.251951 447.142488,148.451803 444.805396,148.739626 C444.805396,148.739626 447.276036,147.478961 451.853095,148.843242 L453.765261,148.031581 C453.765261,148.031581 450.887906,147.496231 450.044125,147.409884 C449.200343,147.323537 449.157851,147.104791 449.157851,147.104791 C450.980159,146.81732 452.850883,147.016645 454.560479,147.680437 C454.560479,147.680437 458.664049,146.270105 458.591204,146.028333 Z" id="Path" fill="#6C63FF" opacity="0.1"></path>
            <path d="M320.257463,131.745436 C320.257463,131.745436 325.067436,110.286885 310.203243,110.211673 C310.203243,110.211673 307.73504,109.239704 306.179357,111.461349 C306.179357,111.461349 307.2403,111.698556 306.520178,113.816062 C306.271121,114.564836 306.105106,115.34139 306.025438,116.130276 C305.918957,117.205699 306.14862,118.288332 306.679594,119.213967 L306.679594,119.213967 C306.679594,119.213967 308.070364,125.751622 317.124108,129.847781 C317.124108,129.847781 318.905173,131.976858 319.44389,132 L318.564352,128.071621 C318.564352,128.071621 315.848778,128.86424 313.924789,127.493068 C313.924789,127.493068 318.448912,128.193118 318.45441,127.493068 C318.45441,127.348429 317.904698,125.433417 317.904698,125.433417 C317.904698,125.433417 313.182679,126.787233 310.269209,124.582944 C310.269209,124.582944 315.551934,126.179751 317.701305,124.70444 L316.711825,121.857956 C316.711825,121.857956 311.764423,123.553118 308.378202,121.175263 C308.378202,121.175263 313.957771,122.644789 316.453461,121.256261 L315.106668,118.606485 C315.106668,118.606485 310.269209,120.157009 307.44919,118.160999 C307.44919,118.160999 314.045725,119.167682 314.76035,118.022146 C314.76035,118.022146 313.386072,115.667433 312.731915,115.227733 C312.731915,115.227733 309.235752,116.257558 307.69656,114.944241 C307.69656,114.944241 312.176707,115.123593 312.281152,114.626037 C312.281152,114.626037 309.714,112.063045 307.757028,111.484491 C309.58074,111.921511 311.264944,112.850666 312.643961,114.180551 C312.623803,112.96802 312.268512,111.787922 311.621499,110.784441 C311.621499,110.784441 313.622448,111.478706 313.270632,114.834316 C313.270632,114.834316 315.194622,116.917109 315.25509,117.391523 C315.25509,117.391523 316.052171,114.157409 315.54094,112.010975 C315.54094,112.010975 317.190074,114.11691 315.634391,118.080002 L317.041652,120.71242 C317.041652,120.71242 318.316982,116.488979 317.992652,114.54504 C317.992652,114.54504 319.361433,116.963393 317.343993,121.406685 L318.360959,124.177956 C318.360959,124.177956 319.718746,120.625637 319.806699,118.392421 C319.806699,118.392421 320.614775,120.926485 318.619323,124.993717 L319.092075,126.926085 C319.092075,126.926085 320.037578,124.316809 320.246468,123.541547 C320.455359,122.766285 320.669746,122.7605 320.669746,122.7605 C320.661369,124.520621 320.187401,126.243507 319.300965,127.73606 C319.300965,127.73606 320.021087,131.774364 320.257463,131.745436 Z" id="Path" fill="#6C63FF" opacity="0.1"></path>
            <path d="M272,140.665729 C272,140.665729 253.645678,127.200742 247.084549,141.786337 C247.084549,141.786337 245.081932,143.821125 246.519246,146.256972 C246.519246,146.256972 247.204827,145.307404 248.924793,146.882153 C249.53401,147.437997 250.208257,147.921066 250.933424,148.32125 C251.915648,148.857628 253.049619,149.064725 254.162871,148.911043 L254.162871,148.911043 C254.162871,148.911043 260.994624,150.202691 268.860761,142.942332 C268.860761,142.942332 271.669237,142.057642 271.933847,141.538624 L267.790293,140.824973 C267.790293,140.824973 267.357295,143.815227 265.222372,145.154058 C265.222372,145.154058 267.86246,140.990116 267.176879,140.689321 C267.03856,140.624444 264.96979,140.394424 264.96979,140.394424 C264.96979,140.394424 264.200015,145.596403 260.832249,147.560416 C260.832249,147.560416 264.663082,143.013108 264.187987,140.300057 L261.042735,140.134915 C261.042735,140.134915 260.5075,145.673076 256.754847,148.055842 C256.754847,148.055842 260.585681,143.166454 260.363168,140.146711 L257.247984,140.394424 C257.247984,140.394424 256.616528,145.779239 253.483304,147.737354 C253.483304,147.737354 257.326165,141.650684 256.538348,140.494689 C256.538348,140.494689 253.693789,140.889851 252.990167,141.34989 C252.990167,141.34989 252.442905,145.20714 250.518467,146.186197 C250.518467,146.186197 252.65339,141.851214 252.220392,141.55042 C252.220392,141.55042 248.654169,143.030801 247.252938,144.717611 C248.465063,143.102537 250.086133,141.825802 251.955782,141.013707 C250.79249,140.539534 249.513448,140.408356 248.275295,140.63624 C248.275295,140.63624 249.802817,138.94943 252.821778,140.665729 C252.821778,140.665729 255.648296,139.621795 256.129405,139.751549 C256.129405,139.751549 253.393096,137.645986 251.125868,137.280314 C251.125868,137.280314 253.856164,136.513583 256.953305,139.639488 L260.074502,139.326898 C260.074502,139.326898 256.604501,136.37793 254.613911,135.882504 C254.613911,135.882504 257.518608,135.522729 260.868332,139.309204 L263.947432,139.444857 C263.947432,139.444857 261.163012,136.661031 259.064172,135.658382 C259.064172,135.658382 261.824537,135.894299 264.831471,139.509734 L266.882199,139.83412 C266.882199,139.83412 264.807415,137.840618 264.157918,137.3216 C263.50842,136.802581 263.598628,136.584358 263.598628,136.584358 C265.271678,137.310944 266.706148,138.478868 267.742182,139.957977 C267.742182,139.957977 271.92182,140.907545 272,140.665729 Z" id="Path" fill="#6C63FF" opacity="0.1"></path>
            <path d="M332,13.6697173 C332,13.6697173 313.645678,0.195571091 307.084549,14.7905964 C307.084549,14.7905964 305.081932,16.8258768 306.519246,19.2623139 C306.519246,19.2623139 307.204827,18.3125164 308.924793,19.8876464 C309.537201,20.4407532 310.213323,20.9218562 310.939438,21.3211917 C311.92151,21.858112 313.055623,22.065285 314.168885,21.9111281 L314.168885,21.9111281 C314.168885,21.9111281 321.000637,23.2030887 328.866775,15.9350729 C328.866775,15.9350729 331.675251,15.0560677 331.933847,14.5310244 L327.790293,13.8290001 C327.790293,13.8290001 327.363309,16.8199774 325.222372,18.1591329 C325.222372,18.1591329 327.868473,13.9941823 327.182893,13.6933147 C327.044574,13.6284217 324.975803,13.3983466 324.975803,13.3983466 C324.975803,13.3983466 324.181973,18.6133839 320.814208,20.5660732 C320.814208,20.5660732 324.639027,16.017664 324.169945,13.3039568 L321.024693,13.1387746 C321.024693,13.1387746 320.483445,18.6782769 316.736806,21.0557204 C316.736806,21.0557204 320.567639,16.165148 320.345126,13.1446739 L317.235957,13.3924472 C317.235957,13.3924472 316.598487,18.7844654 313.465262,20.7430541 C313.465262,20.7430541 317.314137,14.654911 316.52632,13.4986358 C316.52632,13.4986358 313.681761,13.8938931 312.978139,14.3540435 C312.978139,14.3540435 312.430877,18.2122272 310.50644,19.1915215 C310.50644,19.1915215 312.641362,14.8554894 312.208364,14.5487225 C312.208364,14.5487225 308.642141,16.0353621 307.24091,17.72258 C308.451203,16.1053929 310.072786,14.8279443 311.943754,14.0177797 C310.779267,13.5399639 309.49724,13.4086629 308.257253,13.6402205 C308.257253,13.6402205 309.79079,11.9530025 312.809751,13.6697173 C312.809751,13.6697173 315.636268,12.6196306 316.117378,12.755316 C316.117378,12.755316 313.381068,10.6492432 311.11384,10.2775833 C311.11384,10.2775833 313.838122,9.5165654 316.935263,12.6373287 L320.05646,12.3246624 C320.05646,12.3246624 316.592473,9.37498068 314.595869,8.87353478 C314.595869,8.87353478 317.500567,8.51957297 320.856305,12.3069643 L323.935404,12.4367503 C323.935404,12.4367503 321.150984,9.65225076 319.046131,8.65525833 C319.046131,8.65525833 321.812509,8.89123287 324.819443,12.5075427 L326.864158,12.8320077 C326.864158,12.8320077 324.78336,10.8616203 324.133862,10.354275 C323.484364,9.84692975 323.574572,9.62275394 323.574572,9.62275394 C325.248127,10.3487182 326.682799,11.5170897 327.718127,12.9971899 C327.718127,12.9971899 331.897764,13.8938931 332,13.6697173 Z" id="Path" fill="#6C63FF" opacity="0.1"></path>
            <path d="M402,31.284826 C402,31.284826 394.730884,10.8350763 381.020854,18.8711314 C381.020854,18.8711314 378.220457,19.4374495 378,22.1048082 C378,22.1048082 379.102284,21.7197118 379.590864,23.871721 C379.772383,24.6372244 380.046293,25.3802464 380.40715,26.0860251 C380.899595,27.0358625 381.702254,27.8087001 382.695134,28.2890028 L382.695134,28.2890028 C382.695134,28.2890028 387.533267,32.9611278 398.115194,31.4150792 C398.115194,31.4150792 400.909633,32.219251 401.422046,31.9417551 L398.4429,29.1611328 C398.4429,29.1611328 396.381331,31.2961524 393.866931,31.2112047 C393.866931,31.2112047 398.413108,29.3310283 398.037736,28.7250678 C397.960278,28.606141 396.405164,27.3205987 396.405164,27.3205987 C396.405164,27.3205987 392.794439,31.0186565 388.921549,30.7751396 C388.921549,30.7751396 394.647468,29.2234278 395.815293,26.8109123 L393.34856,25.0043573 C393.34856,25.0043573 389.737835,29.0931746 385.310824,28.9685846 C385.310824,28.9685846 391.269116,27.1507033 392.776564,24.6362505 L390.095333,23.1694864 C390.095333,23.1694864 386.520357,27.0940714 382.8143,26.9694814 C382.8143,26.9694814 389.439921,24.2115119 389.457795,22.8750009 C389.457795,22.8750009 386.913605,21.6687432 386.073486,21.6574168 C386.073486,21.6574168 383.416087,24.4153864 381.306852,24.1662064 C381.306852,24.1662064 385.525323,21.8726178 385.346574,21.4025737 C385.346574,21.4025737 381.59285,20.6720232 379.477656,21.2609941 C381.39078,20.627884 383.444871,20.4814576 385.435948,20.8362555 C384.756036,19.8389596 383.784923,19.0517401 382.641509,18.5709827 C382.641509,18.5709827 384.857994,18.0556332 386.341609,21.0231405 C386.341609,21.0231405 389.249255,21.7083855 389.559086,22.0651659 C389.559086,22.0651659 388.53426,18.9447527 386.89573,17.4383463 C386.89573,17.4383463 389.559086,18.2934868 390.285998,22.4332728 L393.014896,23.8490682 C393.014896,23.8490682 391.888779,19.6526505 390.530288,18.1858864 C390.530288,18.1858864 393.110228,19.4544391 393.670308,24.2398278 L396.113208,25.989751 C396.113208,25.989751 395.433962,22.2973564 394.28997,20.3832009 C394.28997,20.3832009 396.411122,22.0481764 396.792453,26.5164269 L398.276068,27.8642642 C398.276068,27.8642642 397.727905,25.179916 397.50149,24.4210496 C397.275074,23.6621832 397.459782,23.6112146 397.459782,23.6112146 C398.406975,25.0803229 398.908079,26.769862 398.907646,28.4928774 C398.907646,28.4928774 401.79146,31.4320687 402,31.284826 Z" id="Path" fill="#6C63FF" opacity="0.1"></path>
            <path d="M354.592835,32.1449286 C354.592835,32.1449286 332.264212,29.6053802 334.108238,45.7874789 C334.108238,45.7874789 333.442504,48.5918144 335.875676,50 C335.875676,50 335.97583,48.7964226 338.232258,49.3380324 C339.029687,49.5132953 339.843934,49.5960636 340.659539,49.5847658 C341.761234,49.5644425 342.826413,49.1778193 343.693639,48.4834924 L343.693639,48.4834924 C343.693639,48.4834924 350.121219,46.1545701 353.11997,35.7737146 C353.11997,35.7737146 355.040585,33.5771858 354.999345,32.9814149 L351.140441,34.4377436 C351.140441,34.4377436 352.318732,37.2842043 351.140441,39.5469299 C351.140441,39.5469299 351.264161,34.5460656 350.551295,34.6242981 C350.404009,34.6242981 348.542308,35.4908739 348.542308,35.4908739 C348.542308,35.4908739 350.521838,40.4556309 348.67192,43.915916 C348.67192,43.915916 349.602771,37.9702434 347.829442,35.8278756 L345.089914,37.2721685 C345.089914,37.2721685 347.446497,42.4174621 345.472859,46.4133392 C345.472859,46.4133392 346.238749,40.1667723 344.512552,37.6332418 L342.008682,39.4386079 C342.008682,39.4386079 344.200304,44.4996511 342.544805,47.8155069 C342.544805,47.8155069 342.715657,40.5097918 341.460777,39.8899495 C341.460777,39.8899495 339.257372,41.6953156 338.897993,42.4415336 C338.897993,42.4415336 340.388532,46.1124449 339.263263,47.9479005 C339.263263,47.9479005 338.868536,43.0553581 338.350088,43.007215 C338.350088,43.007215 336.087768,46.1184627 335.757846,48.3149916 C335.962207,46.2785547 336.685335,44.332346 337.855205,42.6702134 C336.632673,42.8427819 335.486041,43.3761136 334.555989,44.2047746 C334.555989,44.2047746 334.991957,41.9480669 338.409002,41.9239953 C338.409002,41.9239953 340.264811,39.5710014 340.765585,39.4446258 C340.765585,39.4446258 337.38978,38.9812485 335.28653,39.805699 C335.28653,39.805699 337.201253,37.7475816 341.407754,38.9451412 L343.888057,37.085614 C343.888057,37.085614 339.404658,36.1588594 337.507609,36.7606481 C337.507609,36.7606481 339.781712,34.9552819 344.530226,36.6102009 L347.199056,35.1598901 C347.199056,35.1598901 343.434415,34.1248135 341.154421,34.311368 C341.154421,34.311368 343.611159,33.1077906 347.976728,34.7747453 L349.873778,34.0225094 C349.873778,34.0225094 347.110684,33.3184166 346.297663,33.1860231 C345.484642,33.0536296 345.455185,32.8249499 345.455185,32.8249499 C347.236253,32.616211 349.039099,32.9161895 350.663233,33.6915256 C350.663233,33.6915256 354.634075,32.3976799 354.592835,32.1449286 Z" id="Path" fill="#6C63FF" opacity="0.1"></path>
            <path d="M551.609963,207.145319 C551.609963,207.145319 529.261833,204.603256 531.108444,220.783307 C531.108444,220.783307 530.441776,223.59042 532.87836,225 C532.87836,225 532.978655,223.795231 535.238247,224.331353 C536.03587,224.512733 536.851941,224.595653 537.66893,224.578331 C538.772718,224.561079 539.840328,224.173733 540.707285,223.475967 L540.707285,223.475967 C540.707285,223.475967 547.143877,221.144738 550.117334,210.759627 C550.117334,210.759627 552.040642,208.554899 551.999344,207.964562 L548.135029,209.416309 C548.135029,209.416309 549.314973,212.271612 548.135029,214.536579 C548.135029,214.536579 548.258923,209.524738 547.545058,209.609072 C547.397565,209.609072 545.533254,210.470482 545.533254,210.470482 C545.533254,210.470482 547.515559,215.440156 545.663048,218.903867 C545.663048,218.903867 546.595203,212.958331 544.819388,210.807818 L542.076019,212.259565 C542.076019,212.259565 544.435906,217.409953 542.465401,221.409787 C542.465401,221.409787 543.226464,215.157035 541.497847,212.614971 L538.990467,214.422125 C538.990467,214.422125 541.185162,219.48818 539.527341,222.801296 C539.527341,222.801296 539.698433,215.488346 538.441793,214.873914 C538.441793,214.873914 536.241199,216.681068 535.875416,217.428025 C535.875416,217.428025 537.373944,221.102571 536.241199,222.939844 C536.241199,222.939844 535.845918,218.042457 535.326742,217.994266 C535.326742,217.994266 533.061251,221.108595 532.730867,223.307299 C532.935514,221.268846 533.659656,219.32071 534.831166,217.656931 C533.606046,217.826585 532.456975,218.360831 531.527324,219.193012 C531.527324,219.193012 531.963903,216.928046 535.38574,216.90395 C535.38574,216.90395 537.25005,214.548626 537.745627,214.428149 C537.745627,214.428149 534.365089,213.958289 532.258889,214.783556 C532.258889,214.783556 534.176298,212.729425 538.394596,213.92817 L540.872477,212.066801 C540.872477,212.066801 536.435889,211.211415 534.506682,211.801752 C534.506682,211.801752 536.783973,209.994598 541.539145,211.645132 L544.211717,210.199409 C544.211717,210.199409 540.441798,209.163307 538.158607,209.350047 C538.158607,209.350047 540.618789,208.145277 544.99048,209.813883 L546.890189,209.054878 C546.890189,209.054878 544.123221,208.350088 543.30906,208.223587 C542.494899,208.097087 542.465401,207.862157 542.465401,207.862157 C544.24846,207.649419 546.054319,207.94769 547.680751,208.723567 C547.680751,208.723567 551.66896,207.404344 551.609963,207.145319 Z" id="Path" fill="#6C63FF" opacity="0.1"></path>
            <path d="M586.632956,229.14454 C586.632956,229.14454 564.259894,226.60839 566.108565,242.783123 C566.108565,242.783123 565.44706,245.590358 567.880455,247 C567.880455,247 567.980862,245.795178 570.242975,246.337348 C571.040107,246.51427 571.854844,246.595145 572.670464,246.578312 C573.76988,246.555365 574.832618,246.17081 575.700396,245.481924 L575.700396,245.481924 C575.700396,245.481924 582.138262,243.150594 585.115037,232.759006 C585.115037,232.759006 587.046397,230.560206 586.999147,229.963819 L583.130521,231.415629 C583.130521,231.415629 584.311781,234.271057 583.130521,236.536122 C583.130521,236.536122 583.254553,231.530087 582.539891,231.608401 C582.392233,231.608401 580.525843,232.469848 580.525843,232.469848 C580.525843,232.469848 582.510359,237.439739 580.655781,240.903601 C580.655781,240.903601 581.588977,234.957806 579.81118,232.813223 L577.064751,234.259009 C577.064751,234.259009 579.427271,239.409622 577.454567,243.409631 C577.454567,243.409631 578.21648,237.156605 576.485934,234.620455 L573.975756,236.427688 C573.975756,236.427688 576.1729,241.493964 574.519136,244.813248 C574.519136,244.813248 574.684512,237.493956 573.426471,236.879496 C573.426471,236.879496 571.223421,238.686729 570.85723,239.433719 C570.85723,239.433719 572.35743,243.108425 571.223421,244.945779 C571.223421,244.945779 570.827699,240.048178 570.307944,239.999985 C570.307944,239.999985 568.039925,243.11445 567.715079,245.313249 C567.919551,243.275602 568.64232,241.32777 569.811815,239.662635 C568.586203,239.835382 567.436683,240.369265 566.504287,241.198783 C566.504287,241.198783 566.94726,238.933718 570.372914,238.915645 C570.372914,238.915645 572.233398,236.560219 572.735434,236.433712 C572.735434,236.433712 569.351124,235.969856 567.242575,236.795159 C567.242575,236.795159 569.162122,234.734913 573.385126,235.933711 L575.865772,234.072261 C575.865772,234.072261 571.424235,233.216838 569.492875,233.807201 C569.492875,233.807201 571.772707,231.999968 576.533184,233.656598 L579.208738,232.204788 C579.208738,232.204788 575.434612,231.168641 573.148874,231.355388 C573.148874,231.355388 575.611801,230.150566 579.988369,231.819245 L581.890198,231.066231 C581.890198,231.066231 579.120143,230.36141 578.31098,230.22888 C577.501817,230.096349 577.460473,229.867433 577.460473,229.867433 C579.246028,229.658478 581.053416,229.958767 582.681642,230.734905 C582.681642,230.734905 586.692019,229.403577 586.632956,229.14454 Z" id="Path" fill="#6C63FF" opacity="0.1"></path>
            <path d="M510,49.6657292 C510,49.6657292 491.645678,36.2007424 485.084549,50.786337 C485.084549,50.786337 483.081932,52.8211247 484.519246,55.2569721 C484.519246,55.2569721 485.204827,54.3074045 486.924793,55.8821533 C487.53401,56.4379971 488.208257,56.9210655 488.933424,57.3212495 C489.915799,57.8572172 491.049629,58.0642885 492.162871,57.9110431 L492.162871,57.9110431 C492.162871,57.9110431 498.994624,59.202691 506.866775,51.9423323 C506.866775,51.9423323 509.669237,51.057642 509.933847,50.5386237 L505.802321,49.8072797 C505.802321,49.8072797 505.369322,52.797533 503.2344,54.1363644 C503.2344,54.1363644 505.874487,49.9724219 505.188906,49.6716272 C505.050588,49.6067499 502.987831,49.3767304 502.987831,49.3767304 C502.987831,49.3767304 502.212042,54.5787095 498.844277,56.5427221 C498.844277,56.5427221 502.67511,51.9954138 502.200015,49.2823634 L499.054762,49.1172212 C499.054762,49.1172212 498.519528,54.6553827 494.766875,57.0381486 C494.766875,57.0381486 498.603722,52.1487601 498.375195,49.1290171 L495.260012,49.3767304 C495.260012,49.3767304 494.658626,54.7615455 491.495332,56.7196601 C491.495332,56.7196601 495.344206,50.6329907 494.550376,49.4769953 C494.550376,49.4769953 491.705817,49.872157 491.002194,50.3321959 C491.002194,50.3321959 490.460946,54.1894458 488.536509,55.1685031 C488.536509,55.1685031 490.665418,50.8335205 490.232419,50.5327258 C490.232419,50.5327258 486.666196,52.0131076 485.264965,53.6999171 C486.477091,52.084843 488.09816,50.808108 489.967809,49.9960136 C488.804517,49.5218399 487.525476,49.3906624 486.287323,49.6185457 C486.287323,49.6185457 487.820859,47.9317362 490.83982,49.6480354 C490.83982,49.6480354 493.660324,48.6041008 494.141433,48.7338554 C494.141433,48.7338554 491.405124,46.6282924 489.137896,46.2626204 C489.137896,46.2626204 491.868191,45.4958888 494.965333,48.6217946 L498.08653,48.3092041 C498.08653,48.3092041 494.622542,45.3602363 492.625939,44.8648097 C492.625939,44.8648097 495.530636,44.5050357 498.88036,48.2915103 L501.965474,48.4271628 C501.965474,48.4271628 499.17504,45.6433372 497.0762,44.6406882 C497.0762,44.6406882 499.842579,44.8766056 502.843498,48.4920401 L504.894227,48.8164265 C504.894227,48.8164265 502.819443,46.8229243 502.169945,46.303906 C501.520448,45.7848877 501.61667,45.6138475 501.61667,45.6138475 C503.287349,46.341619 504.719575,47.5094103 505.75421,48.9874666 C505.75421,48.9874666 509.92182,49.9075446 510,49.6657292 Z" id="Path" fill="#6C63FF" opacity="0.1"></path>
            <path d="M524,149.231991 C524,149.231991 517.609719,126.649805 503.237661,134.756705 C503.237661,134.756705 500.35839,135.206746 500,138.128929 C500,138.128929 501.141989,137.765197 501.536826,140.12637 C501.683237,140.974636 501.92791,141.802369 502.265756,142.592348 C502.716316,143.654678 503.497161,144.5381 504.48899,145.107644 L504.48899,145.107644 C504.48899,145.107644 509.190585,150.409495 520.039484,149.225826 C520.039484,149.225826 522.845862,150.224547 523.38041,149.953289 L520.507213,146.784509 C520.507213,146.784509 518.302202,149.016218 515.750949,148.80661 C515.750949,148.80661 520.464692,146.957127 520.100228,146.297478 C520.027335,146.16185 518.508732,144.688428 518.508732,144.688428 C518.508732,144.688428 514.657555,148.547682 510.721336,148.097642 C510.721336,148.097642 516.631739,146.679705 517.931663,144.127418 L515.501898,142.043668 C515.501898,142.043668 511.626424,146.322138 507.125285,145.989231 C507.125285,145.989231 513.248292,144.281542 514.936978,141.624452 L512.276386,139.904433 C512.276386,139.904433 508.419134,144.00412 504.677297,143.695872 C504.677297,143.695872 511.559605,141.001792 511.644647,139.553031 C511.644647,139.553031 509.105543,138.122764 508.249051,138.073444 C508.249051,138.073444 505.412301,140.946308 503.255885,140.576411 C503.255885,140.576411 507.665907,138.276888 507.507973,137.759032 C507.507973,137.759032 503.71754,136.791136 501.536826,137.327486 C503.511904,136.73308 505.605538,136.67146 507.611238,137.148703 C506.968795,136.033193 506.018525,135.133055 504.877752,134.559427 C504.877752,134.559427 507.161731,134.097056 508.522399,137.395301 C508.522399,137.395301 511.444191,138.270723 511.747912,138.677609 C511.747912,138.677609 510.854973,135.231406 509.257403,133.523717 C509.257403,133.523717 511.930144,134.571757 512.470767,139.109155 L515.179954,140.779854 C515.179954,140.779854 514.232346,136.156147 512.920273,134.528602 C512.920273,134.528602 515.483675,136.026683 515.829916,141.254555 L518.259681,143.270491 C518.259681,143.270491 517.743356,139.226289 516.67426,137.105548 C516.67426,137.105548 518.757783,139.016681 518.927866,143.886986 L520.373576,145.428221 C520.373576,145.428221 519.948368,142.481379 519.766135,141.642946 C519.583903,140.804514 519.766135,140.68738 519.766135,140.68738 C520.665018,142.327206 521.096208,144.188678 521.01139,146.06321 C521.01139,146.06321 523.781321,149.37995 524,149.231991 Z" id="Path" fill="#6C63FF" opacity="0.1"></path>
            <path d="M384,198.068045 C384,198.068045 371.666858,179.384504 360.215086,190.56676 C360.215086,190.56676 357.595123,191.72795 358.053918,194.485775 C358.053918,194.485775 359.049987,193.847121 360.07624,195.879203 C360.444999,196.59935 360.903107,197.273883 361.440552,197.888061 C362.160343,198.72634 363.146653,199.313857 364.247655,199.560174 L364.247655,199.560174 C364.247655,199.560174 370.193884,203.090191 380.214939,199.095698 C380.214939,199.095698 383.166924,199.246653 383.601573,198.857654 L379.979504,196.767513 C379.979504,196.767513 378.48842,199.38019 375.995229,199.873695 C375.995229,199.873695 379.991578,196.970721 379.454304,196.436574 C379.351679,196.332067 377.492351,195.414727 377.492351,195.414727 C377.492351,195.414727 374.878425,199.931755 371.002812,200.587827 C371.002812,200.587827 376.248774,197.713883 376.792084,195.054758 L373.900467,193.829703 C373.900467,193.829703 371.383129,198.735729 367.000427,199.635651 C367.000427,199.635651 372.373161,196.448186 373.248494,193.591659 L370.230104,192.755603 C370.230104,192.755603 367.682583,197.499063 364.030331,198.224806 C364.030331,198.224806 369.849787,193.940016 369.529838,192.604648 C369.529838,192.604648 366.716698,191.995024 365.90777,192.180814 C365.90777,192.180814 363.99411,195.542458 361.832943,195.786308 C361.832943,195.786308 365.406717,192.523365 365.110915,192.093725 C365.110915,192.093725 361.229265,192.238874 359.297495,193.312974 C361.020669,192.239305 363.006335,191.61874 365.056584,191.51313 C364.13865,190.677559 362.986602,190.118515 361.742391,189.904882 C361.742391,189.904882 363.78886,188.87723 365.968137,191.489906 C365.968137,191.489906 368.986528,191.489906 369.403065,191.780204 C369.403065,191.780204 367.592031,188.87723 365.605931,187.791517 C365.605931,187.791517 368.443217,188.023755 370.205957,191.977606 L373.254531,192.755603 C373.254531,192.755603 371.075253,188.836588 369.378918,187.71604 C369.378918,187.71604 372.234315,188.377918 374.003092,193.016871 L376.852452,194.17806 C376.852452,194.17806 375.246669,190.665462 373.634848,189.022378 C373.634848,189.022378 376.146149,190.183568 377.649307,194.543835 L379.460341,195.548264 C379.460341,195.548264 378.252985,192.999453 377.824374,192.296933 C377.395762,191.594413 377.564792,191.431847 377.564792,191.431847 C378.871117,192.672854 379.792863,194.238805 380.227012,195.95468 C380.227012,195.95468 383.837007,198.265448 384,198.068045 Z" id="Path" fill="#6C63FF" opacity="0.1"></path>
            <path d="M465,100.47368 C465,100.47368 453.207713,81.5416745 441.330459,92.3154232 C441.330459,92.3154232 438.660049,93.4124286 439.036334,96.1491687 C439.036334,96.1491687 440.049876,95.5371551 441.020934,97.5868232 C441.368178,98.3154254 441.806277,99.0016515 442.325793,99.6307176 C443.022735,100.482152 443.995538,101.091004 445.093309,101.362832 L445.093309,101.362832 C445.093309,101.362832 450.950003,105.046461 461.152182,101.362832 C461.152182,101.362832 464.113909,101.599554 464.563024,101.224262 L461.000454,99.0417989 C461.000454,99.0417989 459.422485,101.588006 456.897734,102.009487 C456.897734,102.009487 461.006524,99.220784 460.490649,98.6953761 C460.381405,98.5856756 458.548533,97.6156918 458.548533,97.6156918 C458.548533,97.6156918 455.774948,102.032582 451.872508,102.569538 C451.872508,102.569538 457.237604,99.8674399 457.862723,97.2461741 L454.998102,95.9644098 C454.998102,95.9644098 452.309484,100.773913 447.872963,101.541817 C447.872963,101.541817 453.377648,98.5337122 454.348707,95.7219139 L451.350565,94.7981198 C451.350565,94.7981198 448.631602,99.4170903 444.941581,100.052199 C444.941581,100.052199 450.925727,95.9644098 450.646548,94.6306821 C450.646548,94.6306821 447.842617,93.9378365 447.00508,94.0995005 C447.00508,94.0995005 444.971927,97.3847433 442.793115,97.5637284 C442.793115,97.5637284 446.489205,94.4343759 446.210026,93.9955737 C446.210026,93.9955737 442.301517,94.0244422 440.329055,95.034842 C442.095998,94.020932 444.110676,93.4636597 446.173611,93.4182024 C445.276536,92.5599229 444.13525,91.9698926 442.890221,91.7207307 C442.890221,91.7207307 444.984065,90.7565206 447.1386,93.4182024 C447.1386,93.4182024 450.173157,93.5163555 450.579787,93.8108148 C450.579787,93.8108148 448.862228,90.9239583 446.895836,89.7345734 C446.895836,89.7345734 449.736181,90.0463539 451.38091,94.0302159 L454.415467,94.8962729 C454.415467,94.8962729 452.358037,90.9355057 450.682962,89.7692157 C450.682962,89.7692157 453.535445,90.5140247 455.161968,95.1734111 L457.984105,96.4263069 C457.984105,96.4263069 456.485034,92.8870208 454.949549,91.2299651 C454.949549,91.2299651 457.431816,92.459766 458.809505,96.8362405 L460.587755,97.8870563 C460.587755,97.8870563 459.446762,95.317754 459.0462,94.6075873 C458.645639,93.8974205 458.815574,93.7415303 458.815574,93.7415303 C460.087769,95.0135991 460.963889,96.5966068 461.346394,98.3143111 C461.346394,98.3143111 464.823996,100.664212 465,100.47368 Z" id="Path" fill="#6C63FF"></path>
            <path d="M389.997089,142.514854 C389.997089,142.514854 390.586878,119.006652 374.975175,122.320013 C374.975175,122.320013 372.179577,121.869593 371,124.54743 C371,124.54743 372.179577,124.54743 371.849296,126.922931 C371.74125,127.76997 371.729372,128.627407 371.813908,129.477366 C371.920527,130.630239 372.386857,131.714363 373.140932,132.562432 L373.140932,132.562432 C373.140932,132.562432 375.954224,139.065751 386.3404,141.274658 C386.3404,141.274658 388.646474,143.094847 389.224466,142.996125 L387.455101,139.096601 C387.455101,139.096601 384.771563,140.540412 382.46549,139.559361 C382.46549,139.559361 387.360735,139.257025 387.225083,138.504269 C387.225083,138.350015 386.210647,136.474295 386.210647,136.474295 C386.210647,136.474295 381.527726,138.973199 378.018484,137.331944 C378.018484,137.331944 383.916369,137.794703 385.844978,135.76473 L384.199468,133.031362 C384.199468,133.031362 379.374998,135.918983 375.305456,134.216027 C375.305456,134.216027 381.468747,134.475173 383.80431,132.457539 L381.840314,129.989487 C381.840314,129.989487 377.08072,132.716685 373.707129,131.272874 C373.707129,131.272874 380.855367,130.822455 381.374381,129.458855 C381.374381,129.458855 379.439874,127.31782 378.661353,126.990803 C378.661353,126.990803 375.205192,128.841842 373.317869,127.842281 C373.317869,127.842281 378.036177,127.015483 378.065667,126.466341 C378.065667,126.466341 374.839524,124.374667 372.663204,124.220413 C374.670016,124.257948 376.632375,124.845111 378.354663,125.92337 C378.085955,124.662196 377.470987,123.51059 376.585298,122.610009 C376.585298,122.610009 378.832392,122.875325 379.139082,126.435491 C379.139082,126.435491 381.5985,128.175468 381.757743,128.656738 C381.757743,128.656738 381.928782,125.096572 380.943835,122.974047 C380.943835,122.974047 383.114257,124.794236 382.300349,129.286092 L384.323323,131.717124 C384.323323,131.717124 384.783359,127.015483 384.046123,125.059551 C384.046123,125.059551 385.980629,127.274629 384.789256,132.371158 L386.422971,135.030484 C386.422971,135.030484 387.118921,131.013729 386.747354,128.650568 C386.747354,128.650568 388.115664,131.118621 386.865312,135.814091 L387.761791,137.726832 C387.761791,137.726832 388.215928,134.783679 388.274907,133.926031 C388.333886,133.068382 388.558005,133.012851 388.558005,133.012851 C388.913041,134.853459 388.772148,136.761076 388.151051,138.522779 C388.151051,138.522779 389.737582,142.595066 389.997089,142.514854 Z" id="Path" fill="#6C63FF"></path>
            <ellipse id="Oval" fill="#6C63FF" opacity="0.1" cx="417.5" cy="429" rx="16.5" ry="3"></ellipse>
            <ellipse id="Oval" fill="#6C63FF" opacity="0.1" cx="359.5" cy="470" rx="16.5" ry="3"></ellipse>
            <ellipse id="Oval" fill="#6C63FF" opacity="0.1" cx="55.5" cy="450" rx="16.5" ry="3"></ellipse>
            <ellipse id="Oval" fill="#6C63FF" opacity="0.1" cx="481.5" cy="468" rx="16.5" ry="3"></ellipse>
            <ellipse id="Oval" fill="#6C63FF" cx="498" cy="432" rx="24" ry="4"></ellipse>
            <path d="M507.595555,426.480204 C508.710669,425.636155 509.522439,424.494981 509.922229,423.209397 C510.225972,421.907865 509.630635,420.351685 508.300239,419.876343 C506.805822,419.344413 505.208132,420.306415 503.993159,421.279734 C502.778185,422.253054 501.399191,423.367845 499.81365,423.164127 C501.469225,421.763136 502.216068,419.656721 501.781907,417.612809 C501.713076,417.196386 501.524101,416.805202 501.235169,416.481042 C500.402913,415.654852 498.90242,416.011358 497.906142,416.662125 C494.747212,418.733258 493.866356,422.728396 493.848131,426.327416 C493.532238,425.031542 493.799532,423.679081 493.793458,422.366231 C493.787383,421.053381 493.392516,419.536813 492.183618,418.846435 C491.441582,418.461021 490.603114,418.265759 489.753671,418.280552 C488.332152,418.235281 486.746612,418.365434 485.780708,419.333095 C484.565735,420.532768 484.887703,422.552972 485.93258,423.860163 C486.977457,425.167354 488.575147,426.010521 490.045265,426.927252 C491.221868,427.581767 492.226458,428.47309 492.9855,429.535975 C493.071998,429.684025 493.143192,429.839399 493.198121,430 L502.103875,430 C504.097608,429.064606 505.945173,427.880442 507.595555,426.480204 Z" id="Path" fill="#6C63FF"></path>
            <path d="M45,435.86079 C45,435.86079 54.1292936,435.585497 56.8948451,433.652593 C59.6603966,431.719688 70.9486046,429.417774 71.6325582,432.516279 C72.3165118,435.614784 85.3592095,447.915085 75.0463788,447.997087 C64.7335481,448.079089 51.0842133,446.41562 48.3365041,444.763865 C45.5887948,443.11211 45,435.86079 45,435.86079 Z" id="Path" fill="#A8A8A8"></path>
            <path d="M75.2317071,446.943328 C64.91449,447.02439 51.2593497,445.379996 48.5104718,443.747182 C46.4160886,442.508096 45.5830953,438.055493 45.3034476,436 L45,436 C45,436 45.5949952,443.17396 48.3260233,444.800984 C51.0570513,446.428008 64.7300415,448.078192 75.0472586,447.99713 C78.0222347,447.99713 79.0515764,446.943328 78.9980268,445.414737 C78.5815302,446.346946 77.4450893,446.925958 75.2317071,446.943328 Z" id="Path" fill="#000000" opacity="0.2"></path>
        </g>
    </g>
</svg>