<?xml version="1.0" encoding="UTF-8"?>
<svg width="20px" height="21px" viewBox="0 0 20 21" version="1.1" xmlns="http://www.w3.org/2000/svg" xmlns:xlink="http://www.w3.org/1999/xlink">
    <!-- Generator: Sketch 55.2 (78181) - https://sketchapp.com -->
    <title>price-tag</title>
    <desc>Created with Sketch.</desc>
    <g id="Page-1" stroke="none" stroke-width="1" fill="none" fill-rule="evenodd">
        <g id="selected-jobs" transform="translate(-53.000000, -363.000000)" fill="#5E5E5E" fill-rule="nonzero" stroke="#5E5E5E" stroke-width="0.8">
            <g id="price-tag" transform="translate(63.000000, 373.500000) scale(-1, 1) translate(-63.000000, -373.500000) translate(54.000000, 364.000000)">
                <path d="M17.9105343,0.0928652086 C17.7912466,-0.0309550695 17.5984339,-0.0309550695 17.4791463,0.0928652086 L16.3482019,1.26678278 L9.24494388,1.26678278 L0.315151207,10.6122054 C0.111965627,10.8231115 0,11.104003 0,11.4023117 C0,11.7006204 0.111965627,11.981512 0.315151207,12.1924181 L6.55898916,18.6735071 C6.76858149,18.8910635 7.04346168,19 7.31895204,19 C7.59566273,19 7.87237342,18.8901135 8.08440642,18.6703404 L16.7795899,9.40092003 L16.7795899,1.71456251 L17.9105343,0.540644935 C18.0298219,0.416824657 18.0298219,0.216685487 17.9105343,0.0928652086 Z M16.169423,9.14377919 L7.64996758,18.2257274 C7.46813785,18.4144663 7.1722069,18.4144663 6.99037716,18.2257274 L0.74653921,11.7446384 C0.564709472,11.5558995 0.564709472,11.2487239 0.74745446,11.0590351 L9.49938348,1.90013459 L15.738035,1.90013459 L14.2635667,3.43062923 C14.0222457,3.26469105 13.7339418,3.1668382 13.4236719,3.1668382 C12.5825569,3.1668382 11.8982547,3.87714225 11.8982547,4.75021771 C11.8982547,5.62329318 12.5825569,6.33359723 13.4236719,6.33359723 C14.264787,6.33359723 14.9490892,5.62329318 14.9490892,4.75021771 C14.9490892,4.42815832 14.8548184,4.12889959 14.6949547,3.87840895 L16.169423,2.34791431 L16.169423,9.14377919 Z M14.3389223,4.75021771 C14.3389223,5.27399966 13.92828,5.70024542 13.4236719,5.70024542 C12.9190639,5.70024542 12.5084216,5.27399966 12.5084216,4.75021771 C12.5084216,4.22643577 12.9190639,3.80019001 13.4236719,3.80019001 C13.5646205,3.80019001 13.6964165,3.83629106 13.8157042,3.89550945 L13.2079779,4.52632785 C13.0886903,4.65014813 13.0886903,4.8502873 13.2079779,4.97410758 C13.2674692,5.03585938 13.3455706,5.06689362 13.4236719,5.06689362 C13.5017733,5.06689362 13.5798747,5.03585938 13.6393659,4.97410758 L14.2470922,4.34328918 C14.3044479,4.46710946 14.3389223,4.60391345 14.3389223,4.75021771 Z" id="Shape"></path>
            </g>
        </g>
    </g>
</svg>