<svg xmlns="http://www.w3.org/2000/svg" xmlns:xlink="http://www.w3.org/1999/xlink" version="1.1" x="0px" y="0px" viewBox="0 0 100 125" style="enable-background:new 0 0 100 100;" xml:space="preserve"><g><path d="M73.4999084,30.500061h-34c-4.9625854,0-9,4.0373535-9,9v34c0,4.9625854,4.0374146,9,9,9h34c4.9626465,0,9-4.0374146,9-9   v-34C82.4999084,34.5374146,78.4625549,30.500061,73.4999084,30.500061z M78.4999084,73.500061c0,2.75-2.25,5-5,5h-34   c-2.75,0-5-2.25-5-5v-34c0-2.75,2.25-5,5-5h34c2.75,0,5,2.25,5,5V73.500061z"/><path d="M25.5000916,61.499939h-1c-1.6542969,0-3-1.3457031-3-3v-34c0-1.6542969,1.3457031-3,3-3h34c1.6542969,0,3,1.3457031,3,3v1   c0,1.1044922,0.8955078,2,2,2s2-0.8955078,2-2v-1c0-3.8598633-3.140625-7-7-7h-34c-3.859375,0-7,3.1401367-7,7v34   c0,3.8598633,3.140625,7,7,7h1c1.1044922,0,2-0.8955078,2-2S26.6045837,61.499939,25.5000916,61.499939z"/><path d="M63.8330994,54.499939h-5.3330078v-5.3330078c0-1.1044922-0.8955078-2-2-2s-2,0.8955078-2,2v5.3330078h-5.3339844   c-1.1044922,0-2,0.8955078-2,2s0.8955078,2,2,2h5.3339844v5.3334961c0,1.1044922,0.8955078,2,2,2s2-0.8955078,2-2V58.499939   h5.3330078c1.1044922,0,2-0.8955078,2-2S64.9375916,54.499939,63.8330994,54.499939z"/></g><text x="0" y="115" fill="#000000" font-size="5px" font-weight="bold" font-family="'Helvetica Neue', Helvetica, Arial-Unicode, Arial, Sans-serif">Created by darkassbola</text><text x="0" y="120" fill="#000000" font-size="5px" font-weight="bold" font-family="'Helvetica Neue', Helvetica, Arial-Unicode, Arial, Sans-serif">from the Noun Project</text></svg>