<svg width="30" height="12" viewBox="0 0 30 12" fill="none" xmlns="http://www.w3.org/2000/svg">
<path d="M28.5002 4.5H12.0027H11.8077C11.4427 3.08602 10.5746 1.85373 9.36607 1.03411C8.15758 0.214493 6.6917 -0.136175 5.24319 0.0478363C3.79469 0.231848 2.46301 0.937905 1.49777 2.03366C0.532529 3.12942 0 4.53964 0 6C0 7.46036 0.532529 8.87058 1.49777 9.96634C2.46301 11.0621 3.79469 11.7682 5.24319 11.9522C6.6917 12.1362 8.15758 11.7855 9.36607 10.9659C10.5746 10.1463 11.4427 8.91398 11.8077 7.5H12.0027H19.5016V10.5C19.5016 10.8978 19.6596 11.2793 19.9408 11.5606C20.2221 11.842 20.6036 12 21.0013 12C21.3991 12 21.7806 11.842 22.0618 11.5606C22.3431 11.2793 22.5011 10.8978 22.5011 10.5V7.5H24.0009V10.5C24.0009 10.8978 24.1589 11.2793 24.4402 11.5606C24.7214 11.842 25.1029 12 25.5007 12C25.8984 12 26.2799 11.842 26.5612 11.5606C26.8424 11.2793 27.0004 10.8978 27.0004 10.5V7.5H28.5002C28.898 7.5 29.2795 7.34196 29.5607 7.06066C29.842 6.77935 30 6.39782 30 6C30 5.60218 29.842 5.22065 29.5607 4.93934C29.2795 4.65804 28.898 4.5 28.5002 4.5V4.5ZM6.00358 8.99999C5.41032 8.99999 4.83039 8.82405 4.33712 8.4944C3.84384 8.16476 3.45938 7.69622 3.23235 7.14805C3.00533 6.59987 2.94592 5.99667 3.06166 5.41473C3.1774 4.83279 3.46308 4.29824 3.88258 3.87868C4.30207 3.45913 4.83654 3.17341 5.4184 3.05765C6.00025 2.9419 6.60336 3.00131 7.15146 3.22837C7.69956 3.45543 8.16802 3.83995 8.49762 4.33329C8.82721 4.82664 9.00313 5.40666 9.00313 6C9.00313 6.79565 8.68711 7.55871 8.12458 8.12132C7.56206 8.68392 6.79911 8.99999 6.00358 8.99999Z" fill="black"/>
</svg>
