<?xml version="1.0" encoding="UTF-8"?>
<svg width="121px" height="91px" viewBox="0 0 121 91" version="1.1" xmlns="http://www.w3.org/2000/svg" xmlns:xlink="http://www.w3.org/1999/xlink">
    <!-- Generator: Sketch 57.1 (83088) - https://sketch.com -->
    <title>iconmonstr-refresh-6</title>
    <desc>Created with Sketch.</desc>
    <g id="Page-1" stroke="none" stroke-width="1" fill="none" fill-rule="evenodd">
        <g id="iconmonstr-refresh-6" fill="#FFFFFF" fill-rule="nonzero">
            <path d="M105.592667,50.4493889 C103.127292,73.2448889 83.88325,91 60.5,91 C46.8975833,91 34.727,84.9636667 26.4032083,75.4541667 L32.6800833,67.1984444 C39.1485417,75.5148333 49.1965833,80.8888889 60.5,80.8888889 C78.2769167,80.8888889 92.9885,67.6231111 95.4034583,50.4493889 L80.6666667,50.4493889 L100.833333,23.9077222 L121,50.4493889 L105.592667,50.4493889 Z M25.6116667,40.4444444 C28.0669583,23.3212778 42.7533333,10.1111111 60.5,10.1111111 C71.7782083,10.1111111 81.8161667,15.4649444 88.2795833,23.751 L94.5514167,15.5003333 C86.2326667,6.01611111 74.0772083,0 60.5,0 C37.147,0 17.9332083,17.6995 15.4224583,40.4444444 L0,40.4444444 L20.1666667,66.9861111 L40.3333333,40.4444444 L25.6116667,40.4444444 Z" id="Shape"></path>
        </g>
    </g>
</svg>