<svg width="30" height="30" viewBox="0 0 30 30" fill="none" xmlns="http://www.w3.org/2000/svg">
<path d="M14.9834 16.5483C17.6498 16.5483 19.8113 14.3867 19.8113 11.7203C19.8113 9.05389 17.6498 6.89233 14.9834 6.89233C12.317 6.89233 10.1554 9.05389 10.1554 11.7203C10.1554 14.3867 12.317 16.5483 14.9834 16.5483Z" fill="black"/>
<path d="M14.9834 0C6.69256 0 0 6.69256 0 14.9834C0 19.9778 2.43063 24.3729 6.19312 27.1032C6.3929 27.2364 6.55938 27.3696 6.75916 27.5028C6.95893 27.636 7.15871 27.7358 7.35849 27.869C7.35849 27.869 7.39179 27.869 7.39179 27.9023C7.59157 28.0022 7.79134 28.1354 7.99112 28.2353C8.02442 28.2353 8.02442 28.2686 8.05771 28.2686C8.25749 28.3685 8.45727 28.4684 8.62375 28.5683C8.65705 28.5683 8.69034 28.6016 8.69034 28.6016C8.89012 28.7014 9.0566 28.768 9.25638 28.8679C9.28968 28.8679 9.32297 28.9012 9.35627 28.9012C9.52275 28.9678 9.72253 29.0344 9.92231 29.101C9.9889 29.1343 10.0222 29.1343 10.0888 29.1676C10.2553 29.2342 10.4551 29.3008 10.6215 29.3341C10.6881 29.3674 10.7547 29.3674 10.8213 29.4007C10.9878 29.434 11.1543 29.5006 11.3208 29.5339C11.3873 29.5671 11.4872 29.5671 11.5538 29.6004C11.7203 29.6337 11.8535 29.667 12.02 29.7003C12.1199 29.7336 12.2198 29.7336 12.3196 29.7669C12.4528 29.8002 12.6193 29.8335 12.7525 29.8335C12.8857 29.8668 12.9856 29.8668 13.1188 29.8668C13.2519 29.8668 13.3851 29.9001 13.5183 29.9001C13.6515 29.9001 13.818 29.9334 13.9512 29.9334C14.0511 29.9334 14.1509 29.9667 14.2508 29.9667C14.5172 29.9667 14.7503 30 15.0166 30C15.283 30 15.5494 30 15.7825 29.9667C15.8491 29.9667 15.9156 29.9667 15.9822 29.9667C16.182 29.9667 16.3485 29.9334 16.5483 29.9334C16.6149 29.9334 16.7148 29.9001 16.7814 29.9001C16.9478 29.8668 17.1476 29.8668 17.3141 29.8335C17.3807 29.8335 17.4473 29.8002 17.5139 29.8002C17.6804 29.7669 17.8801 29.7336 18.0466 29.7003C18.1132 29.7003 18.1798 29.667 18.2464 29.667C18.4129 29.6337 18.6127 29.6004 18.7791 29.5339C18.8457 29.5339 18.879 29.5006 18.9456 29.5006C19.1454 29.434 19.3119 29.4007 19.5117 29.3341C19.5449 29.3341 19.6115 29.3008 19.6448 29.3008C19.8446 29.2342 20.0444 29.1676 20.2109 29.101C20.2442 29.101 20.2775 29.0677 20.3108 29.0677C20.5105 29.0011 20.7103 28.9012 20.9101 28.8346C20.9434 28.8346 20.9434 28.8013 20.9767 28.8013C21.1765 28.7014 21.3762 28.6348 21.576 28.535C21.6093 28.535 21.6093 28.5017 21.6426 28.5017C21.8424 28.4018 22.0422 28.3019 22.242 28.1687C22.242 28.1687 22.2753 28.1687 22.2753 28.1354C22.475 28.0355 22.6748 27.9023 22.8746 27.7691C23.0744 27.636 23.2741 27.5028 23.4739 27.3696C27.4029 24.606 29.9667 20.111 29.9667 14.9834C29.9667 6.69256 23.2741 0 14.9834 0ZM25.505 23.1077C25.2053 20.2775 23.141 17.9467 20.3108 17.3807C19.3452 17.1809 18.313 17.0477 17.2142 16.9478C16.5483 17.2142 15.8491 17.3807 15.0832 17.3807C14.3507 17.3807 13.6182 17.2475 12.9856 16.9811C11.9201 17.081 10.9545 17.2142 10.0222 17.3807C7.12542 17.9467 4.99445 20.444 4.82797 23.374C4.82797 23.4406 4.82797 23.5072 4.82797 23.5738C2.86349 21.2431 1.66482 18.2464 1.66482 14.9834C1.66482 7.62486 7.62486 1.66482 14.9834 1.66482C22.3418 1.66482 28.3019 7.62486 28.3019 14.9834C28.3019 18.0466 27.2697 20.8768 25.505 23.1077Z" fill="black"/>
</svg>
