<svg width="52" height="52" xmlns="http://www.w3.org/2000/svg"><defs><linearGradient x1="508.474%" y1="255.928%" x2="-145.745%" y2="-10.576%" id="a"><stop stop-color="#0000E2" offset=".241%"/><stop stop-color="#38ADFF" offset="100%"/></linearGradient><linearGradient x1="160.799%" y1="2.165%" x2="-118.112%" y2="122.586%" id="b"><stop stop-color="#9BD7FF" offset=".294%"/><stop stop-color="#38ADFF" offset="100%"/></linearGradient><linearGradient x1="137.312%" y1="-248.989%" x2="-44.261%" y2="372.894%" id="c"><stop stop-color="#9BD7FF" offset=".294%"/><stop stop-color="#38ADFF" offset="100%"/></linearGradient><linearGradient x1="77.98%" y1="-47.711%" x2="-105.534%" y2="595.867%" id="d"><stop stop-color="#9BD7FF" offset=".294%"/><stop stop-color="#38ADFF" offset="100%"/></linearGradient><linearGradient x1="58.844%" y1="47.433%" x2="-218.711%" y2="70.315%" id="e"><stop stop-color="#9BD7FF" offset=".294%"/><stop stop-color="#38ADFF" offset="100%"/></linearGradient><linearGradient x1="145.508%" y1="-65.273%" x2="-56.247%" y2="142.8%" id="f"><stop stop-color="#9BD7FF" offset=".294%"/><stop stop-color="#38ADFF" offset="100%"/></linearGradient><linearGradient x1="103.898%" y1="319.4%" x2="20.018%" y2="-74.406%" id="g"><stop stop-color="#005AFF" offset=".192%"/><stop stop-color="#00B8FF" offset="99.95%"/></linearGradient><linearGradient x1="169.507%" y1="-370.364%" x2="-8.288%" y2="255.033%" id="h"><stop stop-color="#9BD7FF" offset=".294%"/><stop stop-color="#38ADFF" offset="100%"/></linearGradient><linearGradient x1="169.507%" y1="-370.364%" x2="-8.288%" y2="255.033%" id="i"><stop stop-color="#CDEBFF" offset=".294%"/><stop stop-color="#69C2FF" offset="100%"/></linearGradient><linearGradient x1="91.445%" y1="-94.459%" x2="-88.094%" y2="530.939%" id="j"><stop stop-color="#9BD7FF" offset=".294%"/><stop stop-color="#38ADFF" offset="100%"/></linearGradient><linearGradient x1="91.445%" y1="-94.459%" x2="-88.094%" y2="530.939%" id="k"><stop stop-color="#9BD7FF" offset=".294%"/><stop stop-color="#69C2FF" offset="100%"/></linearGradient><linearGradient x1="91.445%" y1="-94.459%" x2="-88.094%" y2="530.939%" id="l"><stop stop-color="#CDEBFF" offset=".294%"/><stop stop-color="#69C2FF" offset="100%"/></linearGradient><linearGradient x1="156.389%" y1="-320.727%" x2="-23.149%" y2="304.67%" id="m"><stop stop-color="#9BD7FF" offset=".294%"/><stop stop-color="#38ADFF" offset="100%"/></linearGradient><linearGradient x1="156.389%" y1="-320.727%" x2="-23.149%" y2="304.67%" id="n"><stop stop-color="#CDEBFF" offset=".294%"/><stop stop-color="#69C2FF" offset="100%"/></linearGradient><linearGradient x1="205.82%" y1="562.052%" x2="-4.744%" y2="-129.985%" id="o"><stop stop-color="#0000E2" offset=".241%"/><stop stop-color="#38ADFF" offset="100%"/></linearGradient><linearGradient x1="431.932%" y1="-97.045%" x2="-124.081%" y2="145.367%" id="p"><stop stop-color="#9BD7FF" offset=".294%"/><stop stop-color="#38ADFF" offset="100%"/></linearGradient><linearGradient x1="-319.888%" y1="223.31%" x2="193.383%" y2="9.836%" id="q"><stop stop-color="#0000E2" offset=".192%"/><stop stop-color="#38ADFF" offset="100%"/></linearGradient><linearGradient x1="166.18%" y1="-347.986%" x2="-15.393%" y2="273.896%" id="r"><stop stop-color="#9BD7FF" offset=".294%"/><stop stop-color="#38ADFF" offset="100%"/></linearGradient><linearGradient x1="-127.728%" y1="612.082%" x2="187.665%" y2="-385.518%" id="s"><stop stop-color="#0000E2" offset=".192%"/><stop stop-color="#00D0FF" offset="100%"/></linearGradient><linearGradient x1="-79.163%" y1="471.937%" x2="88.452%" y2="-75.71%" id="t"><stop stop-color="#0000E2" offset=".192%"/><stop stop-color="#38ADFF" offset="100%"/></linearGradient><linearGradient x1="100.359%" y1="-123.792%" x2="-80.945%" y2="501.603%" id="u"><stop stop-color="#9BD7FF" offset=".294%"/><stop stop-color="#38ADFF" offset="100%"/></linearGradient><linearGradient x1="100.359%" y1="-123.792%" x2="-80.945%" y2="501.603%" id="v"><stop stop-color="#CDEBFF" offset=".294%"/><stop stop-color="#69C2FF" offset="100%"/></linearGradient><linearGradient x1="100.359%" y1="-123.792%" x2="-80.945%" y2="501.603%" id="w"><stop stop-color="#69C2FF" offset=".294%"/><stop stop-color="#38ADFF" offset="100%"/></linearGradient><linearGradient x1="353.316%" y1="35.899%" x2="-202.696%" y2="66.201%" id="x"><stop stop-color="#9BD7FF" offset=".294%"/><stop stop-color="#38ADFF" offset="100%"/></linearGradient><linearGradient x1="353.316%" y1="35.899%" x2="-202.696%" y2="66.201%" id="y"><stop stop-color="#CDEBFF" offset=".294%"/><stop stop-color="#69C2FF" offset="100%"/></linearGradient><linearGradient x1="353.316%" y1="35.899%" x2="-202.696%" y2="66.201%" id="z"><stop stop-color="#38ADFF" offset=".294%"/><stop stop-color="#9BD7FF" offset="100%"/></linearGradient><linearGradient x1="131.933%" y1="-230.711%" x2="-49.639%" y2="391.172%" id="A"><stop stop-color="#9BD7FF" offset=".294%"/><stop stop-color="#38ADFF" offset="100%"/></linearGradient><linearGradient x1="131.933%" y1="-230.711%" x2="-49.639%" y2="391.172%" id="B"><stop stop-color="#CDEBFF" offset=".294%"/><stop stop-color="#69C2FF" offset="100%"/></linearGradient><linearGradient x1="131.933%" y1="-230.711%" x2="-49.639%" y2="391.172%" id="C"><stop stop-color="#69C2FF" offset=".294%"/><stop stop-color="#38ADFF" offset="100%"/></linearGradient><linearGradient x1="131.933%" y1="-230.711%" x2="-49.639%" y2="391.172%" id="D"><stop stop-color="#38ADFF" offset=".294%"/><stop stop-color="#9BD7FF" offset="100%"/></linearGradient><linearGradient x1="178.768%" y1="-25.522%" x2="-379.056%" y2="217.365%" id="E"><stop stop-color="#9BD7FF" offset=".294%"/><stop stop-color="#38ADFF" offset="100%"/></linearGradient><linearGradient x1="178.768%" y1="-25.522%" x2="-379.056%" y2="217.365%" id="F"><stop stop-color="#CDEBFF" offset=".294%"/><stop stop-color="#69C2FF" offset="100%"/></linearGradient><linearGradient x1="178.768%" y1="-25.522%" x2="-379.056%" y2="217.365%" id="G"><stop stop-color="#69C2FF" offset=".294%"/><stop stop-color="#38ADFF" offset="100%"/></linearGradient><linearGradient x1="87.062%" y1="-16.303%" x2="-42.98%" y2="158.357%" id="H"><stop stop-color="#00B8FF" offset=".243%"/><stop stop-color="#0000E2" offset="100%"/></linearGradient><linearGradient x1="-91.06%" y1="113.294%" x2="231.57%" y2="-16.498%" id="I"><stop stop-color="#0000E2" offset=".192%"/><stop stop-color="#00D0FF" offset="100%"/></linearGradient><linearGradient x1="199.393%" y1="21.319%" x2="-79.519%" y2="83.078%" id="J"><stop stop-color="#69C2FF" offset=".294%"/><stop stop-color="#38ADFF" offset="100%"/></linearGradient><linearGradient x1="90.083%" y1="32.258%" x2="-187.924%" y2="155.536%" id="K"><stop stop-color="#9BD7FF" offset=".294%"/><stop stop-color="#69C2FF" offset="100%"/></linearGradient><linearGradient x1="69.613%" y1="46.509%" x2="-132.368%" y2="254.974%" id="L"><stop stop-color="#69C2FF" offset=".294%"/><stop stop-color="#9BD7FF" offset="100%"/></linearGradient><linearGradient x1="226.4%" y1="63.853%" x2="-4.017%" y2="46.701%" id="M"><stop stop-color="#005AFF" offset=".192%"/><stop stop-color="#00B8FF" offset="99.95%"/></linearGradient><linearGradient x1="181.8%" y1="12.085%" x2="-96.659%" y2="133.41%" id="N"><stop stop-color="#CDEBFF" offset=".294%"/><stop stop-color="#38ADFF" offset="99.95%"/></linearGradient><linearGradient x1="129.29%" y1="27.326%" x2="-149.168%" y2="89.287%" id="O"><stop stop-color="#CDEBFF" offset=".294%"/><stop stop-color="#69C2FF" offset="100%"/></linearGradient></defs><g fill-rule="nonzero" fill="none"><path fill="url(#a)" d="M19.51 37.066L26 33.363l-6.49-3.681z"/><path fill="url(#b)" d="M25.937 3.89h.02l-.02-.021-12.958 7.405.021 7.363 12.958-7.405z"/><path fill="url(#c)" d="M39 40.726l-6.49 3.703z"/><path fill="url(#d)" d="M32.447 14.893v.02l6.32 3.557z"/><path fill="url(#e)" d="M38.937 11.232l.02 7.342 6.49 3.682.042 14.747 6.49-3.702-.042-14.706z"/><path fill="url(#f)" d="M39 40.706l-13-7.343.021 7.384 6.49 3.682L39 40.726z"/><path fill="url(#g)" d="M39 40.706l-13-7.343.021 7.384 6.49 3.682z"/><path fill="url(#h)" d="M13 26l6.51 3.682z"/><path fill="url(#i)" d="M13 26l6.51 3.682z"/><path d="M32.447 14.914l-6.49-3.682 6.49 3.682z" fill="url(#j)"/><path d="M32.447 14.914l-6.49-3.682 6.49 3.682z" fill="url(#k)"/><path d="M32.447 14.914l-6.49-3.682 6.49 3.682z" fill="url(#l)"/><path d="M19.51 29.682L26 33.363l-6.49-3.681z" fill="url(#m)"/><path d="M19.51 29.682L26 33.363l-6.49-3.681z" fill="url(#n)"/><path d="M19.51 29.682L26 33.363l-6.49-3.681z" fill="url(#o)"/><path fill="url(#p)" d="M19.51 37.066l6.511 3.681L26 33.363z"/><path fill="url(#q)" d="M19.51 37.066l6.511 3.681L26 33.363z"/><path fill="url(#r)" d="M19.51 37.066L26 33.363z"/><path fill="url(#s)" d="M19.51 37.066L26 33.363z"/><path fill="url(#t)" d="M19.51 37.066L26 33.363z"/><path fill="url(#u)" d="M32.447 14.914l-6.468 3.681z"/><path fill="url(#v)" d="M32.447 14.914l-6.468 3.681z"/><path fill="url(#w)" d="M32.447 14.914l-6.468 3.681z"/><path fill="url(#x)" d="M19.49 22.298l.02 7.384L26 33.363l-.021-14.768z"/><path fill="url(#y)" d="M19.49 22.298l.02 7.384L26 33.363l-.021-14.768z"/><path fill="url(#z)" d="M19.49 22.298l.02 7.384L26 33.363l-.021-14.768z"/><path d="M25.979 18.595l-6.49 3.703 6.49-3.703z" fill="url(#A)"/><path d="M25.979 18.595l-6.49 3.703 6.49-3.703z" fill="url(#B)"/><path d="M25.979 18.595l-6.49 3.703 6.49-3.703z" fill="url(#C)"/><path d="M25.979 18.595l-6.49 3.703 6.49-3.703z" fill="url(#D)"/><path fill="url(#E)" d="M25.958 11.232l.02 7.363 6.47-3.681z"/><path fill="url(#F)" d="M25.958 11.232l.02 7.363 6.47-3.681z"/><path fill="url(#G)" d="M25.958 11.232l.02 7.363 6.47-3.681z"/><path fill="url(#E)" d="M25.958 11.232l.02 7.363 6.47-3.681z"/><path fill="url(#H)" d="M26.021 40.747v7.343l6.51 3.723 6.49-3.703L39 40.706l-6.49 3.723z"/><path fill="url(#I)" d="M19.51 29.682L13 26v-7.363L.021 26.042l.021 7.342 13.021 7.363 6.448-3.681z"/><path fill="url(#J)" d="M19.51 29.682l-.02-7.384 6.489-3.703-.021-7.363L13 18.637V26z"/><path fill="url(#K)" d="M25.958 11.232l6.49 3.682v-.021l6.32 3.577.19.104-.021-7.342-12.98-7.342h-.02z"/><path fill="url(#L)" d="M38.937 3.91L32.426.187 25.958 3.89l12.979 7.342z"/><path fill="url(#M)" d="M38.958 18.574l.02 7.384L39 40.706l6.49-3.703-.043-14.747z"/><path fill="url(#N)" d="M39 40.706l-.021-14.748L26 33.363z"/><path fill="url(#O)" d="M32.447 14.914l-6.468 3.681L26 33.363l12.979-7.405-.021-7.384-.19-.104z"/></g></svg>