<?xml version="1.0" encoding="UTF-8"?>
<svg width="18px" height="18px" viewBox="0 0 18 18" version="1.1" xmlns="http://www.w3.org/2000/svg" xmlns:xlink="http://www.w3.org/1999/xlink">
    <!-- Generator: Sketch 51.2 (57519) - http://www.bohemiancoding.com/sketch -->
    <title>full-size</title>
    <desc>Created with Sketch.</desc>
    <defs></defs>
    <g id="grids-GUI" stroke="none" stroke-width="1" fill="none" fill-rule="evenodd">
        <g id="Dashboard---Model-Evaluation" transform="translate(-459.000000, -162.000000)" fill="#DCDCDC" fill-rule="nonzero">
            <g id="full-size" transform="translate(459.000000, 162.000000)">
                <path d="M0.625,5.424 C0.97025,5.424 1.25,5.14416667 1.25,4.799 L1.25,2.13416667 L5.27541667,6.15875 C5.3975,6.28075 5.55741667,6.34175 5.71733333,6.34175 C5.87733333,6.34175 6.03733333,6.28075 6.15933333,6.15866667 C6.40341667,5.91458333 6.40341667,5.51883333 6.15925,5.27483333 L2.13366667,1.25016667 L4.79908333,1.25016667 C5.14425,1.25016667 5.42408333,0.970333333 5.42408333,0.625166667 C5.42408333,0.28 5.14433333,0.000166666667 4.79908333,0.000166666667 L0.625,0.000166666667 C0.27975,0.000166666667 0,0.28 0,0.625166667 L0,4.79908333 C0,5.14416667 0.27975,5.424 0.625,5.424 Z" id="Shape"></path>
                <path d="M17.3208333,12.5218333 C16.9755833,12.5218333 16.6958333,12.8016667 16.6958333,13.1468333 L16.6958333,15.81175 L12.5465,11.6624167 C12.3023333,11.4183333 11.9066667,11.4183333 11.6625833,11.6624167 C11.4185,11.9065 11.4185,12.30225 11.6625833,12.54625 L15.8118333,16.6955 L13.1470833,16.6955 C12.8018333,16.6955 12.5220833,16.9753333 12.5220833,17.3205 C12.5220833,17.6656667 12.8018333,17.9455 13.1470833,17.9455 L17.3209167,17.9455 C17.6661667,17.9455 17.9459167,17.6656667 17.9459167,17.3205 L17.9459167,13.1468333 C17.9458333,12.8016667 17.666,12.5218333 17.3208333,12.5218333 Z" id="Shape"></path>
                <path d="M5.39933333,11.6624167 L1.25041667,15.8116667 L1.25041667,13.1468333 C1.25041667,12.8016667 0.970666667,12.5218333 0.625416667,12.5218333 C0.280166667,12.5218333 0.000416666667,12.8016667 0.000416666667,13.1468333 L0.000416666667,17.3206667 C0.000416666667,17.6658333 0.280166667,17.9456667 0.625416667,17.9456667 L4.79908333,17.9456667 C5.14425,17.9456667 5.42408333,17.6658333 5.42408333,17.3206667 C5.42408333,16.9755 5.14433333,16.6956667 4.79908333,16.6956667 L2.13425,16.6956667 L6.28325,12.54625 C6.52733333,12.3021667 6.52733333,11.9064167 6.28316667,11.6623333 C6.03925,11.4183333 5.6435,11.4183333 5.39933333,11.6624167 Z" id="Shape"></path>
                <path d="M17.3208333,0.000166666667 L13.147,0.000166666667 C12.80175,0.000166666667 12.522,0.28 12.522,0.625166667 C12.522,0.970333333 12.80175,1.25016667 13.147,1.25016667 L15.8119167,1.25016667 L11.7870833,5.27525 C11.543,5.51933333 11.543,5.91508333 11.7871667,6.15916667 C11.9091667,6.28116667 12.0691667,6.34216667 12.2290833,6.34216667 C12.389,6.34216667 12.549,6.28108333 12.6710833,6.15908333 L16.6959167,2.134 L16.6959167,4.799 C16.6959167,5.14416667 16.9756667,5.424 17.3209167,5.424 C17.6661667,5.424 17.9459167,5.14416667 17.9459167,4.799 L17.9459167,0.625166667 C17.9458333,0.279916667 17.666,0.000166666667 17.3208333,0.000166666667 Z" id="Shape"></path>
            </g>
        </g>
    </g>
</svg>