<svg width="280" height="268" viewBox="0 0 280 268" fill="none" xmlns="http://www.w3.org/2000/svg">
<g clip-path="url(#clip0)">
<path d="M169.474 15.036L23.5972 46.5044L66.8436 249.144L212.721 217.675L169.474 15.036Z" fill="#E0E0E0"/>
<g opacity="0.5">
<path opacity="0.5" d="M167.742 18.9941L26.7954 49.3989L68.58 245.189L209.527 214.784L167.742 18.9941Z" fill="url(#paint0_linear)"/>
</g>
<path d="M166.254 20.8224L28.895 50.4531L69.7564 241.917L207.115 212.286L166.254 20.8224Z" fill="#FAFAFA"/>
<path d="M130.054 19.949L61.9121 34.6484L65.4538 51.2436L133.596 36.5442L130.054 19.949Z" fill="url(#paint1_linear)"/>
<path d="M92.5218 11.0898C87.2609 12.2259 83.9323 17.5357 85.0896 22.9485C86.2469 28.3613 91.4464 31.8348 96.6971 30.6987C101.948 29.5626 105.287 24.2528 104.129 18.84C102.972 13.4272 97.7827 9.9537 92.5218 11.0898ZM95.8231 26.5696C94.7112 26.8362 93.5456 26.7639 92.4747 26.362C91.4039 25.9601 90.4763 25.2467 89.8102 24.3128C89.1441 23.3788 88.7697 22.2667 88.7346 21.118C88.6996 19.9693 89.0055 18.8362 89.6134 17.863C90.2213 16.8897 91.1037 16.1205 92.148 15.6534C93.1924 15.1862 94.3514 15.0423 95.4775 15.2398C96.6035 15.4374 97.6456 15.9676 98.4708 16.7628C99.296 17.558 99.867 18.5823 100.111 19.705C100.28 20.4389 100.302 21.199 100.178 21.9418C100.054 22.6845 99.7844 23.3953 99.386 24.0331C98.9875 24.671 98.4677 25.2235 97.8562 25.6587C97.2448 26.094 96.5539 26.4036 95.8231 26.5696Z" fill="url(#paint2_linear)"/>
<path d="M129.185 19.3919L62.4785 33.7817L65.8641 49.6453L132.571 35.2555L129.185 19.3919Z" fill="#7F7F7F"/>
<path d="M92.5215 11.0899C90.6777 11.4878 88.9926 12.4265 87.6793 13.7872C86.3661 15.1479 85.4836 16.8695 85.1436 18.7344C84.8036 20.5993 85.0212 22.5237 85.769 24.2643C86.5168 26.0048 87.7611 27.4834 89.3447 28.5129C90.9283 29.5425 92.7799 30.0768 94.6656 30.0484C96.5512 30.0199 98.3861 29.43 99.9382 28.3531C101.49 27.2763 102.69 25.7609 103.386 23.9985C104.081 22.2362 104.241 20.3061 103.846 18.4523C103.583 17.2213 103.082 16.0543 102.37 15.0181C101.659 13.9819 100.752 13.0967 99.7003 12.413C98.6488 11.7293 97.4735 11.2606 96.2418 11.0336C95.01 10.8066 93.7459 10.8257 92.5215 11.0899ZM95.676 25.8833C94.6117 26.1129 93.5036 26.02 92.4919 25.6164C91.4801 25.2128 90.6101 24.5167 89.9919 23.6159C89.3736 22.7152 89.035 21.6504 89.0187 20.5562C89.0025 19.4619 89.3093 18.3874 89.9005 17.4685C90.4917 16.5496 91.3406 15.8276 92.3399 15.3938C93.3392 14.96 94.4441 14.8339 95.5147 15.0314C96.5853 15.229 97.5736 15.7412 98.3547 16.5035C99.1357 17.2658 99.6743 18.2438 99.9025 19.3138C100.208 20.7484 99.9349 22.2465 99.1424 23.4785C98.3498 24.7104 97.1029 25.5755 95.676 25.8833Z" fill="#7F7F7F"/>
<path d="M237.24 40.1274H88.043V247.379H237.24V40.1274Z" fill="#E0E0E0"/>
<g opacity="0.5">
<path opacity="0.5" d="M234.721 43.6318H90.5659V243.878H234.721V43.6318Z" fill="url(#paint3_linear)"/>
</g>
<path d="M232.884 45.1079H92.3994V240.929H232.884V45.1079Z" fill="white"/>
<path d="M197.672 36.6162H127.979V53.5891H197.672V36.6162Z" fill="url(#paint4_linear)"/>
<path d="M162.826 20.0483C157.446 20.0483 153.083 24.5378 153.083 30.0776C153.083 35.6174 157.446 40.1069 162.826 40.1069C168.206 40.1069 172.569 35.6174 172.569 30.0776C172.569 24.5378 168.206 20.0483 162.826 20.0483ZM162.826 35.8645C161.682 35.8918 160.556 35.5758 159.592 34.9567C158.627 34.3377 157.868 33.4437 157.412 32.389C156.955 31.3342 156.822 30.1666 157.028 29.0352C157.234 27.9037 157.772 26.8598 158.571 26.0367C159.37 25.2136 160.395 24.6487 161.515 24.414C162.635 24.1794 163.8 24.2857 164.859 24.7193C165.919 25.153 166.826 25.8944 167.465 26.8488C168.104 27.8032 168.445 28.9273 168.445 30.0776C168.456 31.5895 167.871 33.0442 166.818 34.1235C165.765 35.2029 164.33 35.819 162.826 35.8371V35.8645Z" fill="url(#paint5_linear)"/>
<path d="M196.938 35.8887H128.713V52.1133H196.938V35.8887Z" fill="#7F7F7F"/>
<path d="M162.826 20.0483C160.94 20.0483 159.096 20.6106 157.528 21.664C155.96 22.7173 154.738 24.2145 154.016 25.9663C153.295 27.718 153.106 29.6455 153.474 31.5051C153.842 33.3647 154.75 35.0728 156.083 36.4135C157.417 37.7542 159.116 38.6673 160.966 39.0372C162.815 39.4071 164.732 39.2172 166.475 38.4916C168.217 37.766 169.706 36.5373 170.754 34.9608C171.802 33.3843 172.361 31.5309 172.361 29.6348C172.361 27.0923 171.356 24.654 169.568 22.8562C167.78 21.0583 165.355 20.0483 162.826 20.0483ZM162.826 35.1678C161.738 35.1664 160.675 34.8411 159.772 34.2329C158.868 33.6247 158.163 32.7609 157.748 31.7506C157.332 30.7403 157.223 29.6287 157.435 28.5563C157.647 27.4838 158.17 26.4986 158.939 25.7249C159.707 24.9513 160.687 24.4239 161.753 24.2094C162.82 23.9949 163.925 24.103 164.931 24.5198C165.936 24.9367 166.796 25.6437 167.402 26.5517C168.008 27.4596 168.333 28.5277 168.336 29.6211C168.335 30.348 168.193 31.0677 167.915 31.739C167.638 32.4103 167.232 33.0202 166.72 33.5337C166.209 34.0472 165.601 34.4543 164.933 34.7317C164.265 35.0092 163.549 35.1515 162.826 35.1506V35.1678Z" fill="#7F7F7F"/>
<g opacity="0.5">
<path opacity="0.5" d="M6.49703 252.98H5.21338V260.301H6.49703V252.98Z" fill="#47E6B1"/>
<path opacity="0.5" d="M9.49756 257.288V255.997H2.21558V257.288H9.49756Z" fill="#47E6B1"/>
</g>
<g opacity="0.5">
<path opacity="0.5" d="M155.421 0H154.137V7.32117H155.421V0Z" fill="#47E6B1"/>
<path opacity="0.5" d="M158.421 4.30421V3.01367L151.139 3.01367V4.30421H158.421Z" fill="#47E6B1"/>
</g>
<path opacity="0.5" d="M263.244 265.168C262.89 265.013 262.605 264.733 262.444 264.38C262.282 264.028 262.255 263.628 262.367 263.256C262.385 263.2 262.397 263.141 262.401 263.081C262.411 262.911 262.367 262.743 262.274 262.6C262.182 262.457 262.046 262.349 261.887 262.29C261.728 262.231 261.554 262.225 261.392 262.273C261.229 262.321 261.086 262.42 260.984 262.556C260.949 262.604 260.919 262.656 260.896 262.711C260.742 263.067 260.463 263.353 260.112 263.516C259.761 263.678 259.363 263.706 258.994 263.593C258.938 263.574 258.879 263.563 258.82 263.558C258.651 263.548 258.483 263.593 258.341 263.686C258.199 263.779 258.091 263.916 258.033 264.076C257.974 264.235 257.968 264.41 258.016 264.573C258.064 264.737 258.162 264.88 258.298 264.983C258.345 265.018 258.397 265.048 258.451 265.072C258.805 265.227 259.09 265.507 259.252 265.86C259.414 266.212 259.441 266.612 259.329 266.984C259.31 267.041 259.299 267.099 259.294 267.159C259.284 267.329 259.329 267.498 259.421 267.64C259.514 267.783 259.65 267.892 259.809 267.95C259.968 268.009 260.141 268.015 260.304 267.967C260.466 267.919 260.609 267.82 260.711 267.684C260.747 267.636 260.777 267.584 260.8 267.53C260.954 267.174 261.233 266.887 261.584 266.724C261.934 266.562 262.332 266.534 262.702 266.647C262.758 266.666 262.817 266.677 262.876 266.682C263.045 266.692 263.213 266.647 263.354 266.554C263.496 266.461 263.605 266.324 263.663 266.165C263.722 266.005 263.728 265.83 263.68 265.667C263.632 265.503 263.533 265.36 263.398 265.257C263.351 265.222 263.299 265.192 263.244 265.168Z" fill="#4D8AF0"/>
<path opacity="0.5" d="M46.6585 194.785C46.3044 194.63 46.0194 194.349 45.8576 193.997C45.6958 193.644 45.6686 193.244 45.7811 192.873C45.7993 192.816 45.8107 192.757 45.8153 192.698C45.8254 192.528 45.7809 192.359 45.6883 192.217C45.5956 192.074 45.4598 191.965 45.3009 191.906C45.1419 191.847 44.9684 191.842 44.8058 191.89C44.6433 191.938 44.5005 192.037 44.3985 192.173C44.363 192.221 44.3332 192.272 44.3097 192.327C44.1556 192.683 43.8766 192.97 43.526 193.132C43.1754 193.295 42.7775 193.323 42.4081 193.209C42.3516 193.191 42.2932 193.18 42.234 193.175C42.0649 193.165 41.8971 193.21 41.7553 193.303C41.6134 193.396 41.5052 193.532 41.4466 193.692C41.388 193.852 41.3822 194.027 41.4299 194.19C41.4776 194.353 41.5764 194.497 41.7117 194.6C41.7592 194.635 41.8108 194.665 41.8653 194.689C42.2194 194.844 42.5044 195.124 42.6662 195.477C42.828 195.829 42.8552 196.229 42.7427 196.601C42.7245 196.657 42.7131 196.716 42.7085 196.776C42.6984 196.946 42.7429 197.114 42.8355 197.257C42.9282 197.4 43.064 197.508 43.223 197.567C43.3819 197.626 43.5555 197.632 43.718 197.584C43.8805 197.536 44.0233 197.437 44.1253 197.301C44.1608 197.253 44.1906 197.201 44.2141 197.146C44.3682 196.79 44.6472 196.504 44.9978 196.341C45.3484 196.178 45.7463 196.151 46.1157 196.264C46.1722 196.282 46.2306 196.294 46.2898 196.299C46.4589 196.309 46.6268 196.264 46.7686 196.171C46.9104 196.078 47.0186 195.941 47.0772 195.781C47.1358 195.622 47.1416 195.447 47.0939 195.284C47.0462 195.12 46.9474 194.977 46.8121 194.874C46.7646 194.838 46.713 194.808 46.6585 194.785Z" fill="#FDD835"/>
<path opacity="0.5" d="M227.056 23.4015C226.702 23.2466 226.417 22.9662 226.256 22.6136C226.094 22.2611 226.067 21.8611 226.179 21.4897C226.197 21.4329 226.209 21.3742 226.213 21.3147C226.223 21.1447 226.179 20.9759 226.086 20.8333C225.994 20.6908 225.858 20.582 225.699 20.5231C225.54 20.4642 225.366 20.4583 225.204 20.5063C225.041 20.5542 224.898 20.6536 224.796 20.7895C224.761 20.8373 224.731 20.8892 224.708 20.944C224.554 21.2999 224.275 21.5865 223.924 21.7492C223.573 21.9118 223.175 21.9392 222.806 21.8261C222.75 21.8078 222.691 21.7963 222.632 21.7918C222.463 21.7815 222.295 21.8263 222.153 21.9194C222.011 22.0126 221.903 22.1491 221.845 22.3089C221.786 22.4687 221.78 22.6432 221.828 22.8066C221.876 22.97 221.974 23.1136 222.11 23.2162C222.157 23.2519 222.209 23.2818 222.263 23.3054C222.617 23.4604 222.902 23.7408 223.064 24.0933C223.226 24.4458 223.253 24.8458 223.141 25.2172C223.122 25.274 223.111 25.3328 223.106 25.3923C223.096 25.5623 223.141 25.731 223.233 25.8736C223.326 26.0162 223.462 26.125 223.621 26.1839C223.78 26.2428 223.953 26.2487 224.116 26.2007C224.278 26.1527 224.421 26.0534 224.523 25.9174C224.559 25.8696 224.589 25.8178 224.612 25.763C224.766 25.407 225.045 25.1204 225.396 24.9578C225.746 24.7951 226.144 24.7678 226.514 24.8809C226.57 24.8991 226.629 24.9106 226.688 24.9152C226.857 24.9254 227.025 24.8807 227.167 24.7875C227.308 24.6944 227.417 24.5578 227.475 24.398C227.534 24.2382 227.54 24.0637 227.492 23.9003C227.444 23.7369 227.345 23.5933 227.21 23.4908C227.163 23.4551 227.111 23.4251 227.056 23.4015Z" fill="#FDD835"/>
<path opacity="0.5" d="M277.433 110.521C278.853 110.521 280.004 109.364 280.004 107.937C280.004 106.509 278.853 105.352 277.433 105.352C276.013 105.352 274.862 106.509 274.862 107.937C274.862 109.364 276.013 110.521 277.433 110.521Z" fill="#F55F44"/>
<path opacity="0.5" d="M78.7699 258.86C80.1897 258.86 81.3407 257.702 81.3407 256.275C81.3407 254.848 80.1897 253.69 78.7699 253.69C77.3502 253.69 76.1992 254.848 76.1992 256.275C76.1992 257.702 77.3502 258.86 78.7699 258.86Z" fill="#F55F44"/>
<path opacity="0.5" d="M251.032 166.386C252.452 166.386 253.603 165.229 253.603 163.801C253.603 162.374 252.452 161.217 251.032 161.217C249.612 161.217 248.461 162.374 248.461 163.801C248.461 165.229 249.612 166.386 251.032 166.386Z" fill="#F55F44"/>
<path opacity="0.5" d="M29.7494 35.6549C31.1692 35.6549 32.3201 34.4978 32.3201 33.0704C32.3201 31.643 31.1692 30.4858 29.7494 30.4858C28.3297 30.4858 27.1787 31.643 27.1787 33.0704C27.1787 34.4978 28.3297 35.6549 29.7494 35.6549Z" fill="#4D8AF0"/>
<path opacity="0.5" d="M2.57072 106.159C3.99049 106.159 5.14143 105.002 5.14143 103.574C5.14143 102.147 3.99049 100.99 2.57072 100.99C1.15095 100.99 0 102.147 0 103.574C0 105.002 1.15095 106.159 2.57072 106.159Z" fill="#47E6B1"/>
</g>
<defs>
<linearGradient id="paint0_linear" x1="139.052" y1="229.986" x2="96.8364" y2="34.2898" gradientUnits="userSpaceOnUse">
<stop stop-color="#808080" stop-opacity="0.25"/>
<stop offset="0.54" stop-color="#808080" stop-opacity="0.12"/>
<stop offset="1" stop-color="#808080" stop-opacity="0.1"/>
</linearGradient>
<linearGradient id="paint1_linear" x1="37487.5" y1="-4907.86" x2="37310.6" y2="-5728.1" gradientUnits="userSpaceOnUse">
<stop stop-color="#808080" stop-opacity="0.25"/>
<stop offset="0.54" stop-color="#808080" stop-opacity="0.12"/>
<stop offset="1" stop-color="#808080" stop-opacity="0.1"/>
</linearGradient>
<linearGradient id="paint2_linear" x1="10946.5" y1="559.802" x2="10699.6" y2="-584.506" gradientUnits="userSpaceOnUse">
<stop stop-color="#808080" stop-opacity="0.25"/>
<stop offset="0.54" stop-color="#808080" stop-opacity="0.12"/>
<stop offset="1" stop-color="#808080" stop-opacity="0.1"/>
</linearGradient>
<linearGradient id="paint3_linear" x1="68765.9" y1="142324" x2="68765.9" y2="25498.9" gradientUnits="userSpaceOnUse">
<stop stop-color="#808080" stop-opacity="0.25"/>
<stop offset="0.54" stop-color="#808080" stop-opacity="0.12"/>
<stop offset="1" stop-color="#808080" stop-opacity="0.1"/>
</linearGradient>
<linearGradient id="paint4_linear" x1="33367.2" y1="2686.6" x2="33367.2" y2="1847.29" gradientUnits="userSpaceOnUse">
<stop stop-color="#808080" stop-opacity="0.25"/>
<stop offset="0.54" stop-color="#808080" stop-opacity="0.12"/>
<stop offset="1" stop-color="#808080" stop-opacity="0.1"/>
</linearGradient>
<linearGradient id="paint5_linear" x1="13148.1" y1="3558.18" x2="13148.1" y2="2385.96" gradientUnits="userSpaceOnUse">
<stop stop-color="#808080" stop-opacity="0.25"/>
<stop offset="0.54" stop-color="#808080" stop-opacity="0.12"/>
<stop offset="1" stop-color="#808080" stop-opacity="0.1"/>
</linearGradient>
<clipPath id="clip0">
<rect width="280" height="268" fill="white"/>
</clipPath>
</defs>
</svg>
