<svg width="100" height="125" viewBox="0 0 100 125" fill="none" xmlns="http://www.w3.org/2000/svg">
<path d="M54.83 44C54.3683 43.998 53.9165 44.1332 53.5318 44.3885C53.1471 44.6438 52.8469 45.0076 52.6693 45.4337C52.4917 45.8599 52.4447 46.3292 52.5343 46.7821C52.6239 47.235 52.846 47.6511 53.1725 47.9775C53.4989 48.304 53.915 48.5261 54.3679 48.6157C54.8208 48.7053 55.2901 48.6583 55.7163 48.4807C56.1424 48.3031 56.5062 48.0029 56.7615 47.6182C57.0168 47.2335 57.152 46.7817 57.15 46.32C57.15 45.7047 56.9056 45.1146 56.4705 44.6795C56.0354 44.2444 55.4453 44 54.83 44Z" fill="#004A9C"/>
<path d="M35.88 51.18C35.4211 51.18 34.9726 51.3161 34.5911 51.571C34.2096 51.8259 33.9122 52.1882 33.7366 52.6122C33.561 53.0361 33.5151 53.5026 33.6046 53.9526C33.6941 54.4026 33.9151 54.816 34.2395 55.1405C34.564 55.4649 34.9774 55.6859 35.4274 55.7754C35.8774 55.8649 36.3439 55.819 36.7678 55.6434C37.1918 55.4678 37.5541 55.1704 37.809 54.7889C38.0639 54.4074 38.2 53.9588 38.2 53.5C38.2 52.8847 37.9556 52.2946 37.5205 51.8595C37.0854 51.4244 36.4953 51.18 35.88 51.18Z" fill="#004A9C"/>
<path d="M45.36 55.82C46.6413 55.82 47.68 54.7813 47.68 53.5C47.68 52.2187 46.6413 51.18 45.36 51.18C44.0787 51.18 43.04 52.2187 43.04 53.5C43.04 54.7813 44.0787 55.82 45.36 55.82Z" fill="#004A9C"/>
<path d="M45.36 44C44.8983 43.998 44.4465 44.1332 44.0618 44.3885C43.6771 44.6438 43.3769 45.0076 43.1993 45.4337C43.0217 45.8599 42.9747 46.3292 43.0643 46.7821C43.1539 47.235 43.376 47.6511 43.7025 47.9775C44.0289 48.304 44.445 48.5261 44.8979 48.6157C45.3508 48.7053 45.8201 48.6583 46.2463 48.4807C46.6724 48.3031 47.0362 48.0029 47.2915 47.6182C47.5468 47.2335 47.682 46.7817 47.68 46.32C47.6774 45.7055 47.4321 45.1169 46.9976 44.6824C46.5631 44.2479 45.9745 44.0026 45.36 44Z" fill="#004A9C"/>
<path d="M54.83 55.82C56.1113 55.82 57.15 54.7813 57.15 53.5C57.15 52.2187 56.1113 51.18 54.83 51.18C53.5487 51.18 52.51 52.2187 52.51 53.5C52.51 54.7813 53.5487 55.82 54.83 55.82Z" fill="#004A9C"/>
<path d="M64.31 55.82C65.5913 55.82 66.63 54.7813 66.63 53.5C66.63 52.2187 65.5913 51.18 64.31 51.18C63.0287 51.18 61.99 52.2187 61.99 53.5C61.99 54.7813 63.0287 55.82 64.31 55.82Z" fill="#004A9C"/>
<path d="M35.88 58.33C35.4183 58.328 34.9665 58.4633 34.5818 58.7185C34.1971 58.9738 33.8969 59.3376 33.7193 59.7637C33.5417 60.1899 33.4947 60.6592 33.5843 61.1121C33.6739 61.565 33.896 61.9811 34.2225 62.3075C34.5489 62.634 34.965 62.8561 35.4179 62.9457C35.8708 63.0353 36.3401 62.9883 36.7663 62.8107C37.1924 62.6331 37.5562 62.3329 37.8115 61.9482C38.0668 61.5635 38.202 61.1117 38.2 60.65C38.2 60.0347 37.9556 59.4446 37.5205 59.0095C37.0854 58.5744 36.4953 58.33 35.88 58.33Z" fill="#004A9C"/>
<path d="M45.36 62.97C46.6413 62.97 47.68 61.9313 47.68 60.65C47.68 59.3687 46.6413 58.33 45.36 58.33C44.0787 58.33 43.04 59.3687 43.04 60.65C43.04 61.9313 44.0787 62.97 45.36 62.97Z" fill="#004A9C"/>
<path d="M54.83 62.97C56.1113 62.97 57.15 61.9313 57.15 60.65C57.15 59.3687 56.1113 58.33 54.83 58.33C53.5487 58.33 52.51 59.3687 52.51 60.65C52.51 61.9313 53.5487 62.97 54.83 62.97Z" fill="#004A9C"/>
<path d="M76.39 38.55L72.68 36.06C72.691 35.6544 72.6061 35.252 72.4324 34.8854C72.2586 34.5188 72.0008 34.1983 71.68 33.95H71.63V31.31C71.63 30.9122 71.472 30.5306 71.1907 30.2493C70.9094 29.968 70.5278 29.81 70.13 29.81C69.7322 29.81 69.3506 29.968 69.0693 30.2493C68.788 30.5306 68.63 30.9122 68.63 31.31V33.94C68.2997 34.1759 68.0305 34.4873 67.8448 34.8482C67.6591 35.2091 67.5622 35.6091 67.5622 36.015C67.5622 36.4209 67.6591 36.8209 67.8448 37.1818C68.0305 37.5427 68.2997 37.8541 68.63 38.09C69.0731 38.4251 69.6145 38.6044 70.17 38.6C70.435 38.5958 70.6979 38.552 70.95 38.47L74.71 41C74.9566 41.1709 75.2499 41.2617 75.55 41.26C75.7952 41.2613 76.0368 41.2017 76.2533 41.0865C76.4697 40.9713 76.6542 40.8041 76.79 40.6C77.0028 40.2733 77.0801 39.8766 77.0054 39.4939C76.9308 39.1113 76.71 38.7727 76.39 38.55Z" fill="#004A9C"/>
<path d="M78 25.42C76.6041 24.3812 75.0172 23.6276 73.33 23.2021C71.6428 22.7766 69.8883 22.6876 68.1667 22.9402C66.4451 23.1928 64.7901 23.782 63.2962 24.6742C61.8023 25.5663 60.4987 26.744 59.46 28.14C59.36 28.27 59.27 28.42 59.18 28.55H40.86V25.71C40.86 25.3122 40.702 24.9306 40.4207 24.6493C40.1394 24.368 39.7578 24.21 39.36 24.21C38.9622 24.21 38.5806 24.368 38.2993 24.6493C38.018 24.9306 37.86 25.3122 37.86 25.71V28.54H29.86C28.6673 28.5426 27.5243 29.0176 26.6809 29.8609C25.8376 30.7043 25.3626 31.8473 25.36 33.04V66.1C25.3626 67.2927 25.8376 68.4357 26.6809 69.2791C27.5243 70.1224 28.6673 70.5974 29.86 70.6H70.17C71.3627 70.5974 72.5057 70.1224 73.3491 69.2791C74.1924 68.4357 74.6674 67.2927 74.67 66.1V48.5C77.09 47.6261 79.2005 46.0615 80.74 44C81.7814 42.6006 82.5366 41.0096 82.9625 39.3181C83.3884 37.6265 83.4767 35.8676 83.2222 34.1419C82.9677 32.4162 82.3755 30.7577 81.4794 29.2611C80.5833 27.7645 79.401 26.4592 78 25.42ZM29.83 31.54H37.83V34C37.83 34.3978 37.988 34.7794 38.2693 35.0607C38.5506 35.342 38.9322 35.5 39.33 35.5C39.7278 35.5 40.1094 35.342 40.3907 35.0607C40.672 34.7794 40.83 34.3978 40.83 34V31.54H57.65C57.0497 33.2048 56.7879 34.9727 56.88 36.74H28.33V33C28.3429 32.61 28.5063 32.2401 28.786 31.9679C29.0656 31.6957 29.4398 31.5424 29.83 31.54ZM70.17 67.6H29.83C29.4322 67.6 29.0506 67.442 28.7693 67.1607C28.488 66.8794 28.33 66.4978 28.33 66.1V39.74H57.4C58.194 42.4921 59.859 44.9125 62.1452 46.638C64.4315 48.3635 67.2157 49.3011 70.08 49.31C70.6118 49.3082 71.143 49.2715 71.67 49.2V66.1C71.67 66.4978 71.512 66.8794 71.2307 67.1607C70.9494 67.442 70.5678 67.6 70.17 67.6ZM78.34 42.17C77.3348 43.5271 76.0102 44.6151 74.4836 45.3375C72.9571 46.0599 71.2758 46.3942 69.589 46.3109C67.9022 46.2276 66.2621 45.7292 64.8142 44.8599C63.3662 43.9906 62.1553 42.7774 61.2887 41.3278C60.4222 39.8782 59.9269 38.2371 59.8467 36.5502C59.7666 34.8632 60.1041 33.1826 60.8294 31.6574C61.5546 30.1322 62.6451 28.8097 64.0042 27.8071C65.3632 26.8044 66.9487 26.1528 68.62 25.91C69.1197 25.834 69.6246 25.7972 70.13 25.8C72.0278 25.806 73.8867 26.3382 75.5001 27.3375C77.1135 28.3367 78.4182 29.7639 79.269 31.4603C80.1197 33.1567 80.4834 35.0559 80.3194 36.9466C80.1554 38.8373 79.4702 40.6454 78.34 42.17Z" fill="#004A9C"/>
</svg>
