<?xml version="1.0" encoding="UTF-8"?>
<svg width="18px" height="19px" viewBox="0 0 18 19" version="1.1" xmlns="http://www.w3.org/2000/svg" xmlns:xlink="http://www.w3.org/1999/xlink">
    <!-- Generator: Sketch 51.2 (57519) - http://www.bohemiancoding.com/sketch -->
    <title>clock</title>
    <desc>Created with Sketch.</desc>
    <defs></defs>
    <g id="grids-GUI" stroke="none" stroke-width="1" fill="none" fill-rule="evenodd">
        <g id="Filter-Dropdowns" transform="translate(-127.000000, -167.000000)" fill="#F7F7F7" fill-rule="nonzero">
            <g id="Group-8" transform="translate(97.000000, 112.000000)">
                <g id="Start-Time-Dropdown">
                    <g id="clock" transform="translate(30.000000, 55.000000)">
                        <path d="M17.4511269,1.09029237 L13.8540364,1.09029237 L13.8540364,0.54889698 C13.8540364,0.245814364 13.6081918,0 13.3050718,0 C13.0019519,0 12.7561072,0.245814364 12.7561072,0.54889698 L12.7561072,1.09029237 L9.54896458,1.09029237 L9.54896458,0.54889698 C9.54896458,0.245814364 9.30311994,0 8.99999999,0 C8.69688004,0 8.4510354,0.245814364 8.4510354,0.54889698 L8.4510354,1.09029237 L5.38021897,1.09029237 L5.38021897,0.54889698 C5.38021897,0.245814364 5.13437433,0 4.83125438,0 C4.52813443,0 4.28228979,0.245814364 4.28228979,0.54889698 L4.28228979,1.09029237 L0.548964591,1.09029237 C0.245844643,1.09029237 0,1.33610673 0,1.63918935 L0,14.0416996 C0,14.3447822 0.245844643,14.5905965 0.548964591,14.5905965 L3.91832626,14.5905965 C4.45823294,16.8972446 6.53094025,18.6206897 8.99999999,18.6206897 C11.4690597,18.6206897 13.541767,16.8971531 14.0816737,14.5905965 L17.4510354,14.5905965 C17.7541553,14.5905965 18,14.3447822 18,14.0416996 L18,1.63918935 C18.0000915,1.33610673 17.7543383,1.09029237 17.4511269,1.09029237 Z M4.28228979,2.18808633 L4.28228979,2.68410623 C4.28228979,2.98718885 4.52813443,3.23300321 4.83125438,3.23300321 C5.13437433,3.23300321 5.38021897,2.98718885 5.38021897,2.68410623 L5.38021897,2.18808633 L8.4510354,2.18808633 L8.4510354,2.68410623 C8.4510354,2.98718885 8.69688004,3.23300321 8.99999999,3.23300321 C9.30311994,3.23300321 9.54896458,2.98718885 9.54896458,2.68410623 L9.54896458,2.18808633 L12.7561072,2.18808633 L12.7561072,2.68410623 C12.7561072,2.98718885 13.0019519,3.23300321 13.3050718,3.23300321 C13.6081918,3.23300321 13.8540364,2.98718885 13.8540364,2.68410623 L13.8540364,2.18808633 L16.9021623,2.18808633 L16.9021623,4.43270904 L1.09792918,4.43270904 L1.09792918,2.18808633 L4.28228979,2.18808633 Z M8.99999999,17.5228957 C6.72710359,17.5228957 4.87791637,15.6739362 4.87791637,13.4013198 C4.87791637,11.1287033 6.72710359,9.27974382 8.99999999,9.27974382 C11.2728964,9.27974382 13.1220836,11.1286118 13.1220836,13.4013198 C13.1220836,15.6740277 11.2729879,17.5228957 8.99999999,17.5228957 Z M14.2177254,13.4928026 C14.2182744,13.4622473 14.2200128,13.4319665 14.2200128,13.4013198 C14.2200128,10.5233614 11.8783128,8.18194986 8.99999999,8.18194986 C6.12168714,8.18194986 3.77998719,10.5233614 3.77998719,13.4013198 C3.77998719,13.4319665 3.78181707,13.4622473 3.78227454,13.4928026 L1.09783769,13.4928026 L1.09783769,5.53059448 L16.9020708,5.53059448 L16.9020708,13.4928026 L14.2177254,13.4928026 Z" id="Shape"></path>
                        <path d="M9.84486319,13.5868568 L9.84486319,11.0716464 C9.84486319,10.7845626 9.58619286,10.5517241 9.26725918,10.5517241 C8.9483255,10.5517241 8.68965517,10.7845626 8.68965517,11.0716464 L8.68965517,13.8022779 C8.68965517,13.940144 8.75049613,14.0723775 8.85879688,14.1699496 L10.1863234,15.3649908 C10.2991487,15.4664623 10.4469191,15.5172414 10.5947857,15.5172414 C10.7425561,15.5172414 10.8904227,15.4664623 11.003248,15.3649908 C11.2288024,15.1619612 11.2288024,14.8327638 11.003248,14.6297341 L9.84486319,13.5868568 Z" id="Shape"></path>
                    </g>
                </g>
            </g>
        </g>
    </g>
</svg>