<svg width="21" height="21" viewBox="0 0 21 21" fill="none" xmlns="http://www.w3.org/2000/svg">
<path d="M15.4437 5.55637C14.0175 4.13012 11.9962 3.30762 9.77374 3.53512C6.56249 3.85887 3.91999 6.46637 3.56124 9.67762C3.07999 13.9214 6.36124 17.5001 10.5 17.5001C13.2912 17.5001 15.6887 15.8639 16.8087 13.5101C17.0887 12.9239 16.6687 12.2501 16.0212 12.2501C15.6975 12.2501 15.3912 12.4251 15.2512 12.7139C14.2625 14.8401 11.8912 16.1876 9.30124 15.6101C7.35874 15.1814 5.79249 13.5976 5.38124 11.6551C4.64624 8.26011 7.22749 5.25012 10.5 5.25012C11.9525 5.25012 13.2475 5.85387 14.1925 6.80762L12.8712 8.12887C12.32 8.68012 12.705 9.62511 13.4837 9.62511H16.625C17.1062 9.62511 17.5 9.23137 17.5 8.75011V5.60887C17.5 4.83011 16.555 4.43637 16.0037 4.98761L15.4437 5.55637Z" fill="#5C5C5C"/>
</svg>
