<?xml version="1.0" encoding="UTF-8"?>
<svg width="28px" height="23px" viewBox="0 0 28 23" version="1.1" xmlns="http://www.w3.org/2000/svg" xmlns:xlink="http://www.w3.org/1999/xlink">
    <!-- Generator: Sketch 51.2 (57519) - http://www.bohemiancoding.com/sketch -->
    <title>Group 5 Copy</title>
    <desc>Created with Sketch.</desc>
    <defs></defs>
    <g id="grids-GUI" stroke="none" stroke-width="1" fill="none" fill-rule="evenodd">
        <g id="Group-5-Copy" fill="#FFFFFF" fill-rule="nonzero">
            <path d="M11.8628842,11.7072737 C12.0313229,11.5102386 12.2965,11.5102386 12.4649388,11.7072737 C12.627687,11.8976523 12.627687,12.214506 12.4649388,12.4044408 L9.41217682,15.9754802 L19.4858739,15.9754802 C19.7207017,15.9754802 19.9134199,16.1938164 19.9134199,16.4685117 C19.9134199,16.7432071 19.7207017,16.9686437 19.4858739,16.9686437 L9.41217682,16.9686437 L12.4649388,20.5330265 C12.627687,20.7300616 12.627687,21.0473591 12.4649388,21.2372939 C12.2965,21.434329 12.0313229,21.434329 11.8628842,21.2372939 L8.08742913,16.8208673 C7.92468091,16.6304888 7.92468091,16.3136351 8.08742913,16.1237003 L11.8628842,11.7072737 Z" id="Shape" transform="translate(13.939394, 16.472284) rotate(-270.000000) translate(-13.939394, -16.472284) "></path>
            <path d="M27.8787879,13.2045028 C27.8756941,9.96498666 25.6079438,7.3394168 22.8099174,7.3358349 L20.880628,7.3358349 C20.552686,3.18077216 17.5433534,0 13.9393939,0 C10.3354344,0 7.32610193,3.18077216 6.99815987,7.3358349 L5.06887052,7.3358349 C2.26929722,7.3358349 0,9.96319571 0,13.2045028 C0,16.4458099 2.26929722,19.0731707 5.06887052,19.0731707 L12.0385675,19.0731707 L12.0385675,17.6060038 L5.06887052,17.6060038 C2.9694226,17.6060038 1.26721763,15.6352145 1.26721763,13.2045028 C1.26721763,10.7737912 2.9694226,8.80300188 5.06887052,8.80300188 L8.2369146,8.80300188 L8.2369146,8.06941839 C8.2369146,4.42299264 10.7899126,1.46716698 13.9393939,1.46716698 C17.0888753,1.46716698 19.6418733,4.42299264 19.6418733,8.06941839 L19.6418733,8.80300188 L22.8099174,8.80300188 C24.9093653,8.80300188 26.6115702,10.7737912 26.6115702,13.2045028 C26.6115702,15.6352145 24.9093653,17.6060038 22.8099174,17.6060038 L15.8402204,17.6060038 L15.8402204,19.0731707 L22.8099174,19.0731707 C25.6079438,19.0695888 27.8756941,16.444019 27.8787879,13.2045028 Z" id="Shape"></path>
        </g>
    </g>
</svg>