<?xml version="1.0" encoding="UTF-8"?>
<svg width="380px" height="296px" viewBox="0 0 380 296" version="1.1" xmlns="http://www.w3.org/2000/svg" xmlns:xlink="http://www.w3.org/1999/xlink">
    <!-- Generator: Sketch 51.2 (57519) - http://www.bohemiancoding.com/sketch -->
    <title>Group 9</title>
    <desc>Created with Sketch.</desc>
    <defs></defs>
    <g id="grids-GUI" stroke="none" stroke-width="1" fill="none" fill-rule="evenodd">
        <g id="Dashboard---Timeline-Zero-State" transform="translate(-480.000000, -285.000000)">
            <g id="Group-9" transform="translate(444.000000, 193.000000)">
                <path d="M187.819931,440.763388 C278.686035,460.393749 365.656052,323.16821 365.656052,216.30111 C365.656052,109.434011 288.644864,-6.51128506 229.605683,39.0433971 C170.566501,84.5980793 189.329444,203.112969 140.378921,275.396068 C91.4283978,347.679166 96.9538267,421.133027 187.819931,440.763388 Z" id="Oval-14" fill="#FFFFFF" transform="translate(237.708028, 235.759502) rotate(46.000000) translate(-237.708028, -235.759502) "></path>
                <path d="M135,210.672149 L163.155485,309 L340,309 C341.656854,309 343,307.656854 343,306 L343,176 C343,174.343146 341.656854,173 340,173 L138,173 C136.343146,173 135,174.343146 135,176 L135,210.672149 Z" id="Rectangle-4" stroke="#3A3C3C" stroke-width="2"></path>
                <circle id="Oval-11" fill="#ABD0FB" cx="124.5" cy="237.5" r="17.5"></circle>
                <circle id="Oval-11" stroke="#3A3C3C" stroke-width="2" cx="130.5" cy="235.5" r="17.5"></circle>
                <path d="M108,262.239406 C114.355996,260.979431 119.355996,260.349443 123,260.349443 C126.644004,260.349443 131.977337,260.979431 139,262.239406 C150.036491,261.310733 158.369824,258.790782 164,254.679555 C169.630176,250.568327 175.296843,244.268451 181,235.779926 C177,259.719456 165.333333,274.524165 146,280.194054 L148,375.63718 C135.460993,350.404998 127.12766,338.435233 123,339.727885 C114.507155,342.387575 106.840488,354.35734 100,375.63718 C97.6615591,365.850997 98.9948924,334.036621 104,280.194054 C100.328333,283.163963 97.6616659,286.943889 96,291.533831 C94.3383341,296.123773 92.6716674,304.313613 91,316.103349 C85,299.72367 84.3333333,287.123918 89,278.304091 C93.6666667,269.484264 100,264.129369 108,262.239406 Z" id="Path-3" fill="#AFD4FF"></path>
                <path d="M114,258.45948 C120.355996,257.199505 125.355996,256.569518 129,256.569518 C132.644004,256.569518 137.977337,257.199505 145,258.45948 C156.036491,257.530807 164.369824,255.010856 170,250.899629 C175.630176,246.788402 180.630176,242.155192 185,237 C182.333333,257.606197 171.333333,270.744239 152,276.414128 L154,371.857254 C141.460993,346.625072 133.12766,334.655307 129,335.947959 C120.507155,338.607649 112.840488,350.577414 106,371.857254 C103.661559,362.071071 104.994892,330.256696 110,276.414128 C106.328333,279.384037 103.661666,283.163963 102,287.753905 C100.338334,292.343848 98.6716674,300.533687 97,312.323423 C91,295.943745 90.3333333,283.343992 95,274.524165 C99.6666667,265.704338 106,260.349443 114,258.45948 Z" id="Path-3" stroke="#3A3C3C" stroke-width="2" stroke-linecap="round" stroke-linejoin="bevel"></path>
                <path d="M296.5,208.5 L269,232" id="Line-38" stroke-opacity="0.6" stroke="#79B7FF" stroke-width="8" stroke-linecap="round"></path>
                <path d="M328.25,225.5 L328.25,265" id="Line-38" stroke-opacity="0.6" stroke="#79B7FF" stroke-width="8" stroke-linecap="round"></path>
                <path d="M310.25,221.5 L302,234" id="Line-38" stroke-opacity="0.6" stroke="#79B7FF" stroke-width="8" stroke-linecap="round"></path>
                <path d="M289.25,195.5 L273,199" id="Line-38" stroke-opacity="0.6" stroke="#79B7FF" stroke-width="8" stroke-linecap="round"></path>
                <path d="M286.5,181.5 L247,181.5" id="Line-38" stroke-opacity="0.6" stroke="#79B7FF" stroke-width="8" stroke-linecap="round"></path>
                <path d="M163,320.5 L343.5,320.5" id="Line-24" stroke="#3A3C3C" stroke-width="2" stroke-linecap="round" stroke-linejoin="round"></path>
                <path d="M303.131007,172.699442 C301.766498,176.140578 301.016535,179.892294 301.016535,183.819173 C301.016535,200.487583 314.528952,214 331.197362,214 C335.385594,214 339.374571,213.146888 343,211.604957 L343,176.699442 C343,174.490303 341.209139,172.699442 339,172.699442 L303.131007,172.699442 Z" id="Oval-13" fill-opacity="0.6" fill="#79B7FF" style="mix-blend-mode: multiply;"></path>
                <path d="M299.311984,172.841582 C297.820016,176.604153 297,180.706314 297,185 C297,203.225397 311.774603,218 330,218 C334.579452,218 338.941037,217.067199 342.905115,215.381237" id="Oval-13" stroke="#3A3C3C" stroke-width="2"></path>
                <path d="M289.5,183.5 L247.5,183.5" id="Line-2" stroke="#3A3C3C" stroke-width="2" stroke-linecap="round"></path>
                <path d="M291.5,197.5 L273.5,202.5" id="Line-3" stroke="#3A3C3C" stroke-width="2" stroke-linecap="round"></path>
                <path d="M300.5,209.5 L271,236" id="Line-4" stroke="#3A3C3C" stroke-width="2" stroke-linecap="round"></path>
                <path d="M313.5,220.5 L307.5,236.5" id="Line-5" stroke="#3A3C3C" stroke-width="2" stroke-linecap="round"></path>
                <path d="M330.5,223.5 L330.5,266.5" id="Line-6" stroke="#3A3C3C" stroke-width="2" stroke-linecap="round"></path>
                <path d="M239.5,173.5 L239.5,308.5" id="Line-29" stroke="#3A3C3C" stroke-width="2" stroke-linecap="square"></path>
                <path d="M343.5,246.5 L189,246.5 M167,246.5 L150.5,246.5" id="Line-7" stroke="#3A3C3C" stroke-width="2" stroke-linecap="round" stroke-linejoin="round"></path>
                <path d="M156.5,187.5 L209.5,232.5" id="Line-36" stroke="#3A3C3C" stroke-width="2" stroke-linecap="round"></path>
                <path d="M175.5,187.5 L228.5,232.5" id="Line-36" stroke="#3A3C3C" stroke-width="2" stroke-linecap="round"></path>
                <path d="M259.5,258.5 L301.147329,300.147329" id="Line-8" stroke="#3A3C3C" stroke-width="2" stroke-linecap="round"></path>
                <path d="M259.5,275.5 L277.007141,293.007141" id="Line-37" stroke="#3A3C3C" stroke-width="2" stroke-linecap="round"></path>
                <path d="M169,266 C172.524128,266.971715 174.857462,267.971715 176,269 C177.142538,270.028285 178.142538,272.028285 179,275 C182.666667,270.333333 186.333333,268.333333 190,269 C193.666667,269.666667 196.333333,273.333333 198,280 C201.333333,278.666667 204.333333,280 207,284 C209.666667,288 209.333333,292.333333 206,297 C212.666667,295.666667 217,296.333333 219,299 C221,301.666667 222,305.333333 222,310 L160,310 L160,272 L169,266 Z" id="Path-4" fill-opacity="0.7" fill="#004A9C"></path>
                <path d="M165,271 L174,265 C177.524128,265.971715 179.857462,266.971715 181,268 C182.142538,269.028285 183.142538,271.028285 184,274 C187.666667,269.333333 191.333333,267.333333 195,268 C198.666667,268.666667 201.333333,272.333333 203,279 C206.333333,277.666667 209.333333,279 212,283 C214.666667,287 214.333333,291.333333 211,296 C217.666667,294.666667 222,295.333333 224,298 C226,300.666667 227,304.333333 227,309 L165,309" id="Path-4" stroke="#3A3C3C" stroke-width="2"></path>
            </g>
        </g>
    </g>
</svg>