<?xml version="1.0" encoding="UTF-8"?>
<svg width="27px" height="26px" viewBox="0 0 27 26" version="1.1" xmlns="http://www.w3.org/2000/svg" xmlns:xlink="http://www.w3.org/1999/xlink">
    <!-- Generator: Sketch 51.2 (57519) - http://www.bohemiancoding.com/sketch -->
    <title>Group 47</title>
    <desc>Created with Sketch.</desc>
    <defs></defs>
    <g id="grids-GUI" stroke="none" stroke-width="1" fill="none" fill-rule="evenodd">
        <g id="Group-47" fill="#004A9C" fill-rule="nonzero">
            <path d="M25.0902186,10.2707332 L23.2652868,9.96114477 C23.0751898,9.34739921 22.8307793,8.75537915 22.5320553,8.19051598 L23.6074615,6.68602465 C24.0636945,6.04512221 23.993087,5.17067057 23.4336585,4.61667015 L21.8151179,2.99811991 C21.5109626,2.69396282 21.1090431,2.52559014 20.6799669,2.52559014 C20.3432235,2.52559014 20.0227742,2.6287863 19.751207,2.82431586 L18.2412932,3.89972843 C17.654708,3.59013996 17.0409661,3.33486526 16.4054988,3.14476708 L16.1013435,1.34155003 C15.9709912,0.564863171 15.3029358,0 14.5153909,0 L12.2287949,0 C11.4412499,0 10.7731946,0.564863171 10.6428423,1.34155003 L10.3278243,3.18821809 C9.71951373,3.37831627 9.12749718,3.6281596 8.56263736,3.93231669 L7.06901763,2.85690412 C6.79745041,2.66137456 6.47156974,2.5581784 6.13482638,2.5581784 C5.70575017,2.5581784 5.29839933,2.72655108 4.99967539,3.03070817 L3.37570339,4.64925841 C2.82170626,5.20325883 2.74566743,6.07771047 3.20190037,6.71861291 L4.28816926,8.24482975 C3.98944532,8.81512429 3.75046616,9.40714435 3.56580045,10.0208899 L1.76259408,10.325047 C0.985911825,10.4554 0.421052,11.1234594 0.421052,11.911009 L0.421052,14.1976186 C0.421052,14.9851682 0.985911825,15.6532275 1.76259408,15.7835805 L3.6092512,16.0986004 C3.79934826,16.7069146 4.04919011,17.2989346 4.3533454,17.8637978 L3.28337054,19.351995 C2.8271376,19.9928974 2.89774508,20.8673491 3.45717356,21.4213495 L5.07571421,23.0398997 C5.3798695,23.3440568 5.78178899,23.5124295 6.2108652,23.5124295 C6.54760856,23.5124295 6.86805789,23.4092333 7.13962511,23.2137038 L8.6658329,22.1274285 C9.2143987,22.4152914 9.79012121,22.6488406 10.3821378,22.8335074 L10.686293,24.65845 C10.8166453,25.4351368 11.4847007,26 12.2722456,26 L14.564273,26 C15.3518179,26 16.0198733,25.4351368 16.1502256,24.65845 L16.4598122,22.8335074 C17.0735541,22.6434092 17.6655707,22.3989973 18.2304305,22.1002716 L19.7349129,23.1756841 C20.0064802,23.3712137 20.3323608,23.4744099 20.6691042,23.4744099 C21.0981804,23.4744099 21.5000999,23.3060372 21.8042552,23.0018801 L23.4227958,21.3833299 C23.976793,20.8293294 24.0528318,19.9548778 23.5965989,19.3139753 L22.5211926,17.8040526 C22.8199166,17.2337581 23.0697584,16.641738 23.2544242,16.0334239 L25.0793559,15.7292668 C25.8560382,15.5989137 26.420898,14.9308544 26.420898,14.1433048 L26.420898,11.8566952 C26.4317607,11.0691456 25.8669008,10.4010863 25.0902186,10.2707332 Z M24.9652977,14.1433048 C24.9652977,14.2139127 24.9164156,14.2736578 24.8458081,14.2845206 L22.5646434,14.6647169 C22.2767821,14.7135993 22.0486657,14.925423 21.9780582,15.2024232 C21.7716671,16.0008356 21.4566491,16.7666597 21.0330043,17.47817 C20.886358,17.7280134 20.8972207,18.0376018 21.0655923,18.2765824 L22.4071344,20.1667015 C22.4451538,20.2210152 22.4397225,20.3024859 22.3908404,20.3513683 L20.7722997,21.9699185 C20.7342803,22.0079382 20.6962609,22.0133695 20.6691042,22.0133695 C20.6365161,22.0133695 20.6093594,22.0025068 20.587634,21.9862127 L18.7029575,20.6446626 C18.4694097,20.47629 18.1543917,20.4654272 17.9045498,20.6120744 C17.1930437,21.0357217 16.4272242,21.3507416 15.6288165,21.5571339 C15.3463866,21.6277418 15.1345642,21.861291 15.0911134,22.1437226 L14.705488,24.4249008 C14.6946253,24.4955087 14.6348805,24.5443911 14.564273,24.5443911 L12.277677,24.5443911 C12.2070695,24.5443911 12.1473247,24.4955087 12.136462,24.4249008 L11.7562679,22.1437226 C11.7073858,21.8558596 11.4955634,21.6277418 11.2185648,21.5571339 C10.4418825,21.356173 9.69235701,21.0465845 8.99171357,20.6446626 C8.87765534,20.5794861 8.74730307,20.5468978 8.62238215,20.5468978 C8.47573585,20.5468978 8.3236582,20.5903489 8.19873728,20.6826823 L6.29776672,22.035095 C6.27060999,22.0513892 6.24345327,22.0622519 6.21629655,22.0622519 C6.19457117,22.0622519 6.15112042,22.0568206 6.113101,22.0188009 L4.49456035,20.4002507 C4.44567825,20.3513683 4.44024691,20.275329 4.47826632,20.2155839 L5.81437706,18.3417589 C5.98274874,18.1027784 5.99361143,17.7877585 5.84696513,17.5379152 C5.42332026,16.8318362 5.09743959,16.0660121 4.8910485,15.2675997 C4.81500968,14.9905995 4.58689321,14.7787759 4.3044633,14.7298935 L2.00700459,14.3388343 C1.93639711,14.3279716 1.88751501,14.2682264 1.88751501,14.1976186 L1.88751501,11.911009 C1.88751501,11.8404011 1.93639711,11.7806559 2.00700459,11.7697932 L4.27187523,11.3895968 C4.55973649,11.3407144 4.7932843,11.1288907 4.86389178,10.8464592 C5.06485152,10.0480468 5.37443816,9.27679131 5.79265168,8.56528097 C5.93929798,8.31543764 5.92300395,8.00584917 5.75463227,7.77229998 L4.4022275,5.87131815 C4.36420808,5.81700439 4.36963943,5.73553374 4.41852153,5.68665135 L6.03706218,4.06810111 C6.07508159,4.03008147 6.113101,4.02465009 6.14025773,4.02465009 C6.17284579,4.02465009 6.20000252,4.03551285 6.22172789,4.05180698 L8.09554174,5.38792563 C8.33452089,5.55629831 8.64953887,5.56716106 8.89938072,5.42051389 C9.6054555,4.99686651 10.3712751,4.67098391 11.1696827,4.4645916 C11.4466813,4.38855233 11.6585037,4.16043451 11.7073858,3.87800292 L12.0984426,1.5805306 C12.1093053,1.50992271 12.1690501,1.46104032 12.2396576,1.46104032 L14.5262536,1.46104032 C14.5968611,1.46104032 14.6566059,1.50992271 14.6674685,1.5805306 L15.0476627,3.84541466 C15.0965448,4.13327763 15.3083672,4.36682682 15.5907971,4.43743472 C16.4109301,4.64382703 17.1930437,4.96427825 17.9208439,5.39335701 C18.1706857,5.54000418 18.4802724,5.52914142 18.7192515,5.36076875 L20.5930654,4.01378734 C20.6202221,3.99749321 20.6473788,3.98663046 20.6745355,3.98663046 C20.6962609,3.98663046 20.7397117,3.99206183 20.7777311,4.03008147 L22.3962717,5.64863171 C22.4451538,5.6975141 22.4505852,5.77355337 22.4125658,5.83329852 L21.0710237,7.71798621 C20.902652,7.95153541 20.8917893,8.26655525 21.0384356,8.51639858 C21.4620805,9.22790892 21.7770985,9.99373303 21.9834895,10.7921454 C22.054097,11.074577 22.2876448,11.2864007 22.5700747,11.3298517 L24.8512394,11.7154794 C24.9218469,11.7263422 24.970729,11.7860873 24.970729,11.8566952 L24.970729,14.1433048 L24.9652977,14.1433048 Z" id="Shape"></path>
            <path d="M13.421052,7.28 C10.2648081,7.28 7.701052,9.84375605 7.701052,13 C7.701052,16.1562439 10.2648081,18.72 13.421052,18.72 C16.5772959,18.72 19.141052,16.1562439 19.141052,13 C19.141052,9.84375605 16.5772959,7.28 13.421052,7.28 Z M13.421052,17.2249371 C11.0898613,17.2249371 9.19611492,15.3311907 9.19611492,13 C9.19611492,10.6688093 11.0898613,8.77506292 13.421052,8.77506292 C15.7522427,8.77506292 17.6459891,10.6688093 17.6459891,13 C17.6459891,15.3311907 15.7522427,17.2249371 13.421052,17.2249371 Z" id="Shape"></path>
        </g>
    </g>
</svg>