<?xml version="1.0" encoding="UTF-8"?>
<svg width="8px" height="33px" viewBox="0 0 8 33" version="1.1" xmlns="http://www.w3.org/2000/svg" xmlns:xlink="http://www.w3.org/1999/xlink">
    <!-- Generator: Sketch 51.2 (57519) - http://www.bohemiancoding.com/sketch -->
    <title>Group 4 Copy</title>
    <desc>Created with Sketch.</desc>
    <defs></defs>
    <g id="grids-GUI" stroke="none" stroke-width="1" fill="none" fill-rule="evenodd">
        <g id="Group-4-Copy" fill="#FFFFFF" fill-rule="nonzero">
            <path d="M7.15691838,2.67911524 C6.72624436,0.832258584 4.81696478,-0.329895776 2.89244427,0.0834738219 C1.26260786,0.433439475 0.103354697,1.82086255 0.10139066,3.42352732 C0.0595173929,5.01578811 1.19245246,6.41595228 2.81034752,6.77149688 L2.81034752,13.1523764 C0.883548729,13.5558698 -0.337610875,15.3818431 0.0828501516,17.2308861 C0.380519589,18.5400532 1.44612747,19.5626586 2.81034752,19.8483156 L2.81034752,26.2291951 C1.19245246,26.5847397 0.0595173929,27.9849039 0.10139066,29.5771647 C0.103668943,31.4697084 1.70420192,33.002184 3.67633069,32.9999977 C5.64845946,32.9978113 7.24537861,31.4618677 7.24310032,29.569324 C7.24121485,27.9665839 6.08188313,26.5792362 4.45212528,26.2291951 L4.45212528,19.8483156 C6.07740512,19.4951835 7.22385276,18.0993166 7.20209123,16.500346 C7.22385276,14.9013 6.07740512,13.5055085 4.45212528,13.1523764 L4.45212528,6.77149688 C6.37664579,6.35820267 7.58767096,4.5259719 7.15691838,2.67911524 Z M3.67224549,5.30929529 C2.62289984,5.28834978 1.78402038,4.48364384 1.78425607,3.49831973 C1.78402038,2.51299562 2.6229784,1.70828967 3.67232405,1.68734416 C4.7445311,1.68712291 5.62009876,2.49197635 5.64248878,3.49831973 C5.62009876,4.50473685 4.7445311,5.30951655 3.67224549,5.30929529 Z M3.67224549,31.3068563 C2.62289984,31.2845144 1.78402038,30.4261614 1.78425607,29.375149 C1.78402038,28.3241366 2.6229784,27.4657836 3.67232405,27.4434417 C4.7445311,27.4432057 5.62009876,28.3017161 5.64248878,29.375149 C5.62009876,30.4486606 4.7445311,31.3070923 3.67224549,31.3068563 Z M3.67224549,18.1873441 C2.62289984,18.1663986 1.78402038,17.3616926 1.78425607,16.3763685 C1.78402038,15.3910444 2.6229784,14.5863385 3.67232405,14.5653929 C4.7445311,14.5651717 5.62009876,15.3700251 5.64248878,16.3763685 C5.62009876,17.3827856 4.7445311,18.1875653 3.67224549,18.1873441 Z" id="Shape"></path>
        </g>
    </g>
</svg>