<?xml version="1.0" encoding="UTF-8"?>
<svg width="26px" height="26px" viewBox="0 0 26 26" version="1.1" xmlns="http://www.w3.org/2000/svg" xmlns:xlink="http://www.w3.org/1999/xlink">
    <!-- Generator: Sketch 51.2 (57519) - http://www.bohemiancoding.com/sketch -->
    <title>settings copy</title>
    <desc>Created with Sketch.</desc>
    <defs></defs>
    <g id="grids-GUI" stroke="none" stroke-width="1" fill="none" fill-rule="evenodd">
        <g id="settings-copy" fill="#FFFFFF" fill-rule="nonzero">
            <path d="M24.6691666,10.2707332 L22.8442348,9.96114477 C22.6541378,9.34739921 22.4097273,8.75537915 22.1110033,8.19051598 L23.1864095,6.68602465 C23.6426425,6.04512221 23.572035,5.17067057 23.0126065,4.61667015 L21.3940659,2.99811991 C21.0899106,2.69396282 20.6879911,2.52559014 20.2589149,2.52559014 C19.9221715,2.52559014 19.6017222,2.6287863 19.330155,2.82431586 L17.8202412,3.89972843 C17.233656,3.59013996 16.6199141,3.33486526 15.9844468,3.14476708 L15.6802915,1.34155003 C15.5499392,0.564863171 14.8818838,0 14.0943389,0 L11.8077429,0 C11.0201979,0 10.3521426,0.564863171 10.2217903,1.34155003 L9.90677231,3.18821809 C9.29846173,3.37831627 8.70644518,3.6281596 8.14158536,3.93231669 L6.64796563,2.85690412 C6.37639841,2.66137456 6.05051774,2.5581784 5.71377438,2.5581784 C5.28469817,2.5581784 4.87734733,2.72655108 4.57862339,3.03070817 L2.95465139,4.64925841 C2.40065426,5.20325883 2.32461543,6.07771047 2.78084837,6.71861291 L3.86711726,8.24482975 C3.56839332,8.81512429 3.32941416,9.40714435 3.14474845,10.0208899 L1.34154208,10.325047 C0.564859825,10.4554 0,11.1234594 0,11.911009 L0,14.1976186 C0,14.9851682 0.564859825,15.6532275 1.34154208,15.7835805 L3.1881992,16.0986004 C3.37829626,16.7069146 3.62813811,17.2989346 3.9322934,17.8637978 L2.86231854,19.351995 C2.4060856,19.9928974 2.47669308,20.8673491 3.03612156,21.4213495 L4.65466221,23.0398997 C4.9588175,23.3440568 5.36073699,23.5124295 5.7898132,23.5124295 C6.12655656,23.5124295 6.44700589,23.4092333 6.71857311,23.2137038 L8.2447809,22.1274285 C8.7933467,22.4152914 9.36906921,22.6488406 9.96108576,22.8335074 L10.265241,24.65845 C10.3955933,25.4351368 11.0636487,26 11.8511936,26 L14.143221,26 C14.9307659,26 15.5988213,25.4351368 15.7291736,24.65845 L16.0387602,22.8335074 C16.6525021,22.6434092 17.2445187,22.3989973 17.8093785,22.1002716 L19.3138609,23.1756841 C19.5854282,23.3712137 19.9113088,23.4744099 20.2480522,23.4744099 C20.6771284,23.4744099 21.0790479,23.3060372 21.3832032,23.0018801 L23.0017438,21.3833299 C23.555741,20.8293294 23.6317798,19.9548778 23.1755469,19.3139753 L22.1001406,17.8040526 C22.3988646,17.2337581 22.6487064,16.641738 22.8333722,16.0334239 L24.6583039,15.7292668 C25.4349862,15.5989137 25.999846,14.9308544 25.999846,14.1433048 L25.999846,11.8566952 C26.0107087,11.0691456 25.4458488,10.4010863 24.6691666,10.2707332 Z M24.5442457,14.1433048 C24.5442457,14.2139127 24.4953636,14.2736578 24.4247561,14.2845206 L22.1435914,14.6647169 C21.8557301,14.7135993 21.6276137,14.925423 21.5570062,15.2024232 C21.3506151,16.0008356 21.0355971,16.7666597 20.6119523,17.47817 C20.465306,17.7280134 20.4761687,18.0376018 20.6445403,18.2765824 L21.9860824,20.1667015 C22.0241018,20.2210152 22.0186705,20.3024859 21.9697884,20.3513683 L20.3512477,21.9699185 C20.3132283,22.0079382 20.2752089,22.0133695 20.2480522,22.0133695 C20.2154641,22.0133695 20.1883074,22.0025068 20.166582,21.9862127 L18.2819055,20.6446626 C18.0483577,20.47629 17.7333397,20.4654272 17.4834978,20.6120744 C16.7719917,21.0357217 16.0061722,21.3507416 15.2077645,21.5571339 C14.9253346,21.6277418 14.7135122,21.861291 14.6700614,22.1437226 L14.284436,24.4249008 C14.2735733,24.4955087 14.2138285,24.5443911 14.143221,24.5443911 L11.856625,24.5443911 C11.7860175,24.5443911 11.7262727,24.4955087 11.71541,24.4249008 L11.3352159,22.1437226 C11.2863338,21.8558596 11.0745114,21.6277418 10.7975128,21.5571339 C10.0208305,21.356173 9.27130501,21.0465845 8.57066157,20.6446626 C8.45660334,20.5794861 8.32625107,20.5468978 8.20133015,20.5468978 C8.05468385,20.5468978 7.9026062,20.5903489 7.77768528,20.6826823 L5.87671472,22.035095 C5.84955799,22.0513892 5.82240127,22.0622519 5.79524455,22.0622519 C5.77351917,22.0622519 5.73006842,22.0568206 5.692049,22.0188009 L4.07350835,20.4002507 C4.02462625,20.3513683 4.01919491,20.275329 4.05721432,20.2155839 L5.39332506,18.3417589 C5.56169674,18.1027784 5.57255943,17.7877585 5.42591313,17.5379152 C5.00226826,16.8318362 4.67638759,16.0660121 4.4699965,15.2675997 C4.39395768,14.9905995 4.16584121,14.7787759 3.8834113,14.7298935 L1.58595259,14.3388343 C1.51534511,14.3279716 1.46646301,14.2682264 1.46646301,14.1976186 L1.46646301,11.911009 C1.46646301,11.8404011 1.51534511,11.7806559 1.58595259,11.7697932 L3.85082323,11.3895968 C4.13868449,11.3407144 4.3722323,11.1288907 4.44283978,10.8464592 C4.64379952,10.0480468 4.95338616,9.27679131 5.37159968,8.56528097 C5.51824598,8.31543764 5.50195195,8.00584917 5.33358027,7.77229998 L3.9811755,5.87131815 C3.94315608,5.81700439 3.94858743,5.73553374 3.99746953,5.68665135 L5.61601018,4.06810111 C5.65402959,4.03008147 5.692049,4.02465009 5.71920573,4.02465009 C5.75179379,4.02465009 5.77895052,4.03551285 5.80067589,4.05180698 L7.67448974,5.38792563 C7.91346889,5.55629831 8.22848687,5.56716106 8.47832872,5.42051389 C9.1844035,4.99686651 9.95022307,4.67098391 10.7486307,4.4645916 C11.0256293,4.38855233 11.2374517,4.16043451 11.2863338,3.87800292 L11.6773906,1.5805306 C11.6882533,1.50992271 11.7479981,1.46104032 11.8186056,1.46104032 L14.1052016,1.46104032 C14.1758091,1.46104032 14.2355539,1.50992271 14.2464165,1.5805306 L14.6266107,3.84541466 C14.6754928,4.13327763 14.8873152,4.36682682 15.1697451,4.43743472 C15.9898781,4.64382703 16.7719917,4.96427825 17.4997919,5.39335701 C17.7496337,5.54000418 18.0592204,5.52914142 18.2981995,5.36076875 L20.1720134,4.01378734 C20.1991701,3.99749321 20.2263268,3.98663046 20.2534835,3.98663046 C20.2752089,3.98663046 20.3186597,3.99206183 20.3566791,4.03008147 L21.9752197,5.64863171 C22.0241018,5.6975141 22.0295332,5.77355337 21.9915138,5.83329852 L20.6499717,7.71798621 C20.4816,7.95153541 20.4707373,8.26655525 20.6173836,8.51639858 C21.0410285,9.22790892 21.3560465,9.99373303 21.5624375,10.7921454 C21.633045,11.074577 21.8665928,11.2864007 22.1490227,11.3298517 L24.4301874,11.7154794 C24.5007949,11.7263422 24.549677,11.7860873 24.549677,11.8566952 L24.549677,14.1433048 L24.5442457,14.1433048 Z" id="Shape"></path>
            <path d="M13,7.28 C9.84375605,7.28 7.28,9.84375605 7.28,13 C7.28,16.1562439 9.84375605,18.72 13,18.72 C16.1562439,18.72 18.72,16.1562439 18.72,13 C18.72,9.84375605 16.1562439,7.28 13,7.28 Z M13,17.2249371 C10.6688093,17.2249371 8.77506292,15.3311907 8.77506292,13 C8.77506292,10.6688093 10.6688093,8.77506292 13,8.77506292 C15.3311907,8.77506292 17.2249371,10.6688093 17.2249371,13 C17.2249371,15.3311907 15.3311907,17.2249371 13,17.2249371 Z" id="Shape"></path>
        </g>
    </g>
</svg>