<?xml version="1.0" encoding="UTF-8"?>
<svg width="29px" height="23px" viewBox="0 0 29 23" version="1.1" xmlns="http://www.w3.org/2000/svg" xmlns:xlink="http://www.w3.org/1999/xlink">
    <!-- Generator: Sketch 51.2 (57519) - http://www.bohemiancoding.com/sketch -->
    <title>Group 45</title>
    <desc>Created with Sketch.</desc>
    <defs></defs>
    <g id="grids-GUI" stroke="none" stroke-width="1" fill="none" fill-rule="evenodd">
        <g id="Group-45" fill="#004A9C" fill-rule="nonzero">
            <path d="M12.2839362,11.7072737 C12.4523749,11.5102386 12.717552,11.5102386 12.8859908,11.7072737 C13.048739,11.8976523 13.048739,12.214506 12.8859908,12.4044408 L9.83322882,15.9754802 L19.9069259,15.9754802 C20.1417537,15.9754802 20.3344719,16.1938164 20.3344719,16.4685117 C20.3344719,16.7432071 20.1417537,16.9686437 19.9069259,16.9686437 L9.83322882,16.9686437 L12.8859908,20.5330265 C13.048739,20.7300616 13.048739,21.0473591 12.8859908,21.2372939 C12.717552,21.434329 12.4523749,21.434329 12.2839362,21.2372939 L8.50848113,16.8208673 C8.34573291,16.6304888 8.34573291,16.3136351 8.50848113,16.1237003 L12.2839362,11.7072737 Z" id="Shape" transform="translate(14.360446, 16.472284) rotate(-270.000000) translate(-14.360446, -16.472284) "></path>
            <path d="M28.2998399,13.2045028 C28.2967461,9.96498666 26.0289958,7.3394168 23.2309694,7.3358349 L21.30168,7.3358349 C20.973738,3.18077216 17.9644054,0 14.3604459,0 C10.7564864,0 7.74715393,3.18077216 7.41921187,7.3358349 L5.48992252,7.3358349 C2.69034922,7.3358349 0.421052,9.96319571 0.421052,13.2045028 C0.421052,16.4458099 2.69034922,19.0731707 5.48992252,19.0731707 L12.4596195,19.0731707 L12.4596195,17.6060038 L5.48992252,17.6060038 C3.3904746,17.6060038 1.68826963,15.6352145 1.68826963,13.2045028 C1.68826963,10.7737912 3.3904746,8.80300188 5.48992252,8.80300188 L8.6579666,8.80300188 L8.6579666,8.06941839 C8.6579666,4.42299264 11.2109646,1.46716698 14.3604459,1.46716698 C17.5099273,1.46716698 20.0629253,4.42299264 20.0629253,8.06941839 L20.0629253,8.80300188 L23.2309694,8.80300188 C25.3304173,8.80300188 27.0326222,10.7737912 27.0326222,13.2045028 C27.0326222,15.6352145 25.3304173,17.6060038 23.2309694,17.6060038 L16.2612724,17.6060038 L16.2612724,19.0731707 L23.2309694,19.0731707 C26.0289958,19.0695888 28.2967461,16.444019 28.2998399,13.2045028 Z" id="Shape"></path>
        </g>
    </g>
</svg>