<?xml version="1.0" encoding="UTF-8"?>
<svg width="25px" height="24px" viewBox="0 0 25 24" version="1.1" xmlns="http://www.w3.org/2000/svg" xmlns:xlink="http://www.w3.org/1999/xlink">
    <!-- Generator: Sketch 51.2 (57519) - http://www.bohemiancoding.com/sketch -->
    <title>Group 43</title>
    <desc>Created with Sketch.</desc>
    <defs></defs>
    <g id="grids-GUI" stroke="none" stroke-width="1" fill="none" fill-rule="evenodd">
        <g id="Group-43" fill="#004A9C" fill-rule="nonzero">
            <path d="M23.9209905,22.9090909 L0.921066648,22.9090909 C0.645067187,22.9090909 0.421052,23.1534243 0.421052,23.4545199 C0.421052,23.7556155 0.645067187,24 0.921066648,24 L23.9210374,24 C24.1970368,24 24.421052,23.7556155 24.421052,23.4545199 C24.4210051,23.1534243 24.1969899,22.9090909 23.9209905,22.9090909 Z" id="Shape"></path>
            <path d="M4.852859,16.9090909 L1.989245,16.9090909 C1.72579252,16.9090909 1.51196109,17.1360163 1.51196109,17.4156014 L1.51196109,23.493537 C1.51196109,23.7730746 1.72579252,24 1.989245,24 L4.852859,24 C5.11631148,24 5.33014291,23.7730746 5.33014291,23.4934895 L5.33014291,17.4155539 C5.33014291,17.1359689 5.11631148,16.9090909 4.852859,16.9090909 Z M4.37557508,22.9870266 L2.46652892,22.9870266 L2.46652892,17.9220644 L4.37561983,17.9220644 L4.37561983,22.9870266 L4.37557508,22.9870266 Z" id="Shape"></path>
            <path d="M10.852859,12 L7.989245,12 C7.72579252,12 7.51196109,12.2240147 7.51196109,12.5000137 L7.51196109,23.4999863 C7.51196109,23.7759853 7.72579252,24 7.989245,24 L10.852859,24 C11.1163115,24 11.3301429,23.7759853 11.3301429,23.4999863 L11.3301429,12.5000137 C11.3301429,12.2240147 11.1163115,12 10.852859,12 Z M10.3755751,22.9999727 L8.46648417,22.9999727 L8.46648417,12.9999805 L10.3755751,12.9999805 L10.3755751,22.9999727 Z" id="Shape"></path>
            <path d="M16.852859,13.6363636 L13.989245,13.6363636 C13.7257925,13.6363636 13.5119611,13.8563056 13.5119611,14.1272865 L13.5119611,22.9636226 C13.5119611,23.2346035 13.7257925,23.4545455 13.989245,23.4545455 L16.852859,23.4545455 C17.1163115,23.4545455 17.3301429,23.2346035 17.3301429,22.9636226 L17.3301429,14.1272865 C17.3301429,13.8562595 17.1163115,13.6363636 16.852859,13.6363636 Z M16.3755751,22.4726997 L14.4664842,22.4726997 L14.4664842,14.6181634 L16.3755751,14.6181634 L16.3755751,22.4726997 Z" id="Shape"></path>
            <path d="M22.852859,8.18181818 L19.989245,8.18181818 C19.7257925,8.18181818 19.5119611,8.40328774 19.5119611,8.67615085 L19.5119611,23.5056673 C19.5119611,23.7785304 19.7257925,24 19.989245,24 L22.852859,24 C23.1163115,24 23.3301429,23.7785304 23.3301429,23.5056673 L23.3301429,8.67615085 C23.3301429,8.4032414 23.1163115,8.18181818 22.852859,8.18181818 Z M22.3755751,23.0113347 L20.4664842,23.0113347 L20.4664842,9.17043717 L22.3755751,9.17043717 L22.3755751,23.0113347 Z" id="Shape"></path>
            <path d="M3.421052,9.27272727 C2.36818167,9.27272727 1.51196109,10.1289479 1.51196109,11.1818182 C1.51196109,12.2346885 2.36818167,13.0909091 3.421052,13.0909091 C4.47392233,13.0909091 5.33014291,12.2346885 5.33014291,11.1818182 C5.33014291,10.1289479 4.47392233,9.27272727 3.421052,9.27272727 Z M3.421052,12.1363413 C2.89414703,12.1363413 2.46652892,11.7077388 2.46652892,11.1818182 C2.46652892,10.6558528 2.89414703,10.2272951 3.421052,10.2272951 C3.94795697,10.2272951 4.37557508,10.6558976 4.37557508,11.1818182 C4.37557508,11.7077388 3.94795697,12.1363413 3.421052,12.1363413 Z" id="Shape"></path>
            <path d="M9.421052,3.81818182 C8.36818167,3.81818182 7.51196109,4.6744024 7.51196109,5.72727273 C7.51196109,6.78014305 8.36818167,7.63636364 9.421052,7.63636364 C10.4739223,7.63636364 11.3301429,6.78014305 11.3301429,5.72727273 C11.3301429,4.6744024 10.4739223,3.81818182 9.421052,3.81818182 Z M9.421052,6.68179581 C8.89414703,6.68179581 8.46652892,6.25319333 8.46652892,5.72727273 C8.46652892,5.20130738 8.89414703,4.77274964 9.421052,4.77274964 C9.94795697,4.77274964 10.3755751,5.20135212 10.3755751,5.72727273 C10.3755751,6.25323808 9.94795697,6.68179581 9.421052,6.68179581 Z" id="Shape"></path>
            <path d="M15.421052,6 C14.3681817,6 13.5119611,6.85622058 13.5119611,7.90909091 C13.5119611,8.96196123 14.3681817,9.81818182 15.421052,9.81818182 C16.4739223,9.81818182 17.3301429,8.96196123 17.3301429,7.90909091 C17.3301429,6.85622058 16.4739223,6 15.421052,6 Z M15.421052,8.86361399 C14.894147,8.86361399 14.4665289,8.43501152 14.4665289,7.90909091 C14.4665289,7.38312556 14.894147,6.95456783 15.421052,6.95456783 C15.947957,6.95456783 16.3755751,7.3831703 16.3755751,7.90909091 C16.3755751,8.43501152 15.947957,8.86361399 15.421052,8.86361399 Z" id="Shape"></path>
            <path d="M21.421052,0 C20.3681817,0 19.5119611,0.856220584 19.5119611,1.90909091 C19.5119611,2.96196123 20.3681817,3.81818182 21.421052,3.81818182 C22.4739223,3.81818182 23.3301429,2.96196123 23.3301429,1.90909091 C23.3301429,0.856220584 22.4739223,0 21.421052,0 Z M21.421052,2.86361399 C20.894147,2.86361399 20.4665289,2.43501152 20.4665289,1.90909091 C20.4665289,1.38312556 20.894147,0.954567827 21.421052,0.954567827 C21.947957,0.954567827 22.3755751,1.3831703 22.3755751,1.90909091 C22.3755751,2.43501152 21.947957,2.86361399 21.421052,2.86361399 Z" id="Shape"></path>
            <path d="M21.0011878,2.8744167 C20.8050053,2.67822474 20.4860672,2.67822474 20.2898846,2.8744167 L16.3863707,6.7781181 C16.1901882,6.97431007 16.1901882,7.2932635 16.3863707,7.48945547 C16.4849808,7.58703268 16.6137255,7.63636364 16.7425175,7.63636364 C16.870272,7.63636364 16.9990639,7.58807023 17.0976739,7.48945547 L21.0011878,3.58575407 C21.1973704,3.38956211 21.1973704,3.07060867 21.0011878,2.8744167 Z" id="Shape"></path>
            <path d="M14.2263845,6.79901941 L10.8985927,6.01717005 C10.6198805,5.95059222 10.3370402,6.08374788 10.2593369,6.31080868 C10.1806137,6.53786948 10.3401484,6.77345257 10.614684,6.83830993 L13.9424759,7.6201593 C13.9901178,7.63124226 14.0378082,7.63636364 14.0844302,7.63636364 C14.3103042,7.63636364 14.5174807,7.51429095 14.5827515,7.32652067 C14.6615233,7.1003401 14.5019886,6.86387678 14.2263845,6.79901941 Z" id="Shape"></path>
            <path d="M9.03556958,6.72498383 C8.85857492,6.51907548 8.53541134,6.48569581 8.31311878,6.64870658 L4.43327433,9.51426443 C4.21098177,9.67919666 4.17393301,9.9784966 4.35198896,10.1844049 C4.45387305,10.3025967 4.60414243,10.3636364 4.75436357,10.3636364 C4.8665229,10.3636364 4.97974352,10.3293183 5.07443976,10.2606822 L8.95428422,7.39512434 C9.17657677,7.23019212 9.21362553,6.93089218 9.03556958,6.72498383 Z" id="Shape"></path>
        </g>
    </g>
</svg>