<?xml version="1.0" encoding="UTF-8"?>
<svg width="25px" height="15px" viewBox="0 0 25 15" version="1.1" xmlns="http://www.w3.org/2000/svg" xmlns:xlink="http://www.w3.org/1999/xlink">
    <!-- Generator: Sketch 51.2 (57519) - http://www.bohemiancoding.com/sketch -->
    <title>analytics</title>
    <desc>Created with Sketch.</desc>
    <defs></defs>
    <g id="grids-GUI" stroke="none" stroke-width="1" fill="none" fill-rule="evenodd">
        <g id="Dashboard---Deployment-State-Filled" transform="translate(-1337.000000, -389.000000)" fill="#FFFFFF" fill-rule="nonzero">
            <g id="analytics" transform="translate(1337.000000, 389.000000)">
                <path d="M24.4791026,14 L0.520848592,14 C0.233349154,14 0,14.2239722 0,14.4999766 C0,14.7759809 0.233349154,15 0.520848592,15 L24.4791514,15 C24.7666508,15 25,14.7759809 25,14.4999766 C24.9999512,14.2239722 24.766602,14 24.4791026,14 Z" id="Shape"></path>
                <path d="M5.37498535,7 L1.62501465,7 C1.28001734,7 1,7.25601843 1,7.5714477 L1,14.4286059 C1,14.7439816 1.28001734,15 1.62501465,15 L5.37498535,15 C5.71998266,15 6,14.7439816 6,14.4285523 L6,7.57139413 C6,7.25596486 5.71998266,7 5.37498535,7 Z M4.7499707,13.8571582 L2.2500293,13.8571582 L2.2500293,8.14284184 L4.7500293,8.14284184 L4.7500293,13.8571582 L4.7499707,13.8571582 Z" id="Shape"></path>
                <path d="M11.3749854,0 L7.62501465,0 C7.28001734,0 7,0.280018437 7,0.62501709 L7,14.3749829 C7,14.7199816 7.28001734,15 7.62501465,15 L11.3749854,15 C11.7199827,15 12,14.7199816 12,14.3749829 L12,0.62501709 C12,0.280018437 11.7199827,0 11.3749854,0 Z M10.7499707,13.7499658 L8.2499707,13.7499658 L8.2499707,1.24997559 L10.7499707,1.24997559 L10.7499707,13.7499658 Z" id="Shape"></path>
                <path d="M17.3749854,3 L13.6250146,3 C13.2800173,3 13,3.26881791 13,3.60001687 L13,14.3999831 C13,14.7311821 13.2800173,15 13.6250146,15 L17.3749854,15 C17.7199827,15 18,14.7311821 18,14.3999831 L18,3.60001687 C18,3.26876166 17.7199827,3 17.3749854,3 Z M16.7499707,13.7999663 L14.2499707,13.7999663 L14.2499707,4.1999775 L16.7499707,4.1999775 L16.7499707,13.7999663 Z" id="Shape"></path>
                <path d="M23.2499854,0.337446247 L19.5000146,0.337446247 C19.1550173,0.337446247 18.875,0.534489992 18.875,0.777259101 L18.875,13.9712324 C18.875,14.2140015 19.1550173,14.4110453 19.5000146,14.4110453 L23.2499854,14.4110453 C23.5949827,14.4110453 23.875,14.2140015 23.875,13.9712324 L23.875,0.777259101 C23.875,0.534448761 23.5949827,0.337446247 23.2499854,0.337446247 Z M22.6249707,13.5314196 L20.1249707,13.5314196 L20.1249707,1.21703072 L22.6249707,1.21703072 L22.6249707,13.5314196 Z" id="Shape"></path>
            </g>
        </g>
    </g>
</svg>