<?xml version="1.0" encoding="UTF-8"?>
<svg width="8px" height="33px" viewBox="0 0 8 33" version="1.1" xmlns="http://www.w3.org/2000/svg" xmlns:xlink="http://www.w3.org/1999/xlink">
    <!-- Generator: Sketch 51.2 (57519) - http://www.bohemiancoding.com/sketch -->
    <title>Group 42</title>
    <desc>Created with Sketch.</desc>
    <defs></defs>
    <g id="grids-GUI" stroke="none" stroke-width="1" fill="none" fill-rule="evenodd">
        <g id="Group-42" fill="#004A9C" fill-rule="nonzero">
            <path d="M7.57797038,2.67911524 C7.14729636,0.832258584 5.23801678,-0.329895776 3.31349627,0.0834738219 C1.68365986,0.433439475 0.524406697,1.82086255 0.52244266,3.42352732 C0.480569393,5.01578811 1.61350446,6.41595228 3.23139952,6.77149688 L3.23139952,13.1523764 C1.30460073,13.5558698 0.0834411247,15.3818431 0.503902152,17.2308861 C0.801571589,18.5400532 1.86717947,19.5626586 3.23139952,19.8483156 L3.23139952,26.2291951 C1.61350446,26.5847397 0.480569393,27.9849039 0.52244266,29.5771647 C0.524720943,31.4697084 2.12525392,33.002184 4.09738269,32.9999977 C6.06951146,32.9978113 7.66643061,31.4618677 7.66415232,29.569324 C7.66226685,27.9665839 6.50293513,26.5792362 4.87317728,26.2291951 L4.87317728,19.8483156 C6.49845712,19.4951835 7.64490476,18.0993166 7.62314323,16.500346 C7.64490476,14.9013 6.49845712,13.5055085 4.87317728,13.1523764 L4.87317728,6.77149688 C6.79769779,6.35820267 8.00872296,4.5259719 7.57797038,2.67911524 Z M4.09329749,5.30929529 C3.04395184,5.28834978 2.20507238,4.48364384 2.20530807,3.49831973 C2.20507238,2.51299562 3.0440304,1.70828967 4.09337605,1.68734416 C5.1655831,1.68712291 6.04115076,2.49197635 6.06354078,3.49831973 C6.04115076,4.50473685 5.1655831,5.30951655 4.09329749,5.30929529 Z M4.09329749,31.3068563 C3.04395184,31.2845144 2.20507238,30.4261614 2.20530807,29.375149 C2.20507238,28.3241366 3.0440304,27.4657836 4.09337605,27.4434417 C5.1655831,27.4432057 6.04115076,28.3017161 6.06354078,29.375149 C6.04115076,30.4486606 5.1655831,31.3070923 4.09329749,31.3068563 Z M4.09329749,18.1873441 C3.04395184,18.1663986 2.20507238,17.3616926 2.20530807,16.3763685 C2.20507238,15.3910444 3.0440304,14.5863385 4.09337605,14.5653929 C5.1655831,14.5651717 6.04115076,15.3700251 6.06354078,16.3763685 C6.04115076,17.3827856 5.1655831,18.1875653 4.09329749,18.1873441 Z" id="Shape"></path>
        </g>
    </g>
</svg>