<?xml version="1.0" encoding="UTF-8"?>
<svg width="24px" height="22px" viewBox="0 0 24 22" version="1.1" xmlns="http://www.w3.org/2000/svg" xmlns:xlink="http://www.w3.org/1999/xlink">
    <!-- Generator: Sketch 51.2 (57519) - http://www.bohemiancoding.com/sketch -->
    <title>Group 3 Copy</title>
    <desc>Created with Sketch.</desc>
    <defs></defs>
    <g id="grids-GUI" stroke="none" stroke-width="1" fill="none" fill-rule="evenodd">
        <g id="Group-3-Copy" fill="#FFFFFF" fill-rule="nonzero">
            <path d="M23.7447491,8.82343523 L12.368395,0.125768331 C12.1490204,-0.041922777 11.8509897,-0.041922777 11.6317089,0.125768331 L0.255261012,8.82343523 C-0.0226134781,9.0359125 -0.0829883673,9.44334413 0.120495634,9.73349967 C0.323979635,10.0236552 0.714213294,10.0866006 0.992040909,9.8742212 L12.0000051,1.45814418 L23.0079692,9.87417225 C23.118969,9.95909463 23.2479688,9.99996505 23.3758436,9.99996505 C23.5678432,9.99996505 23.7573116,9.90770068 23.8794676,9.73345073 C24.0829985,9.44334413 24.0226236,9.0359125 23.7447491,8.82343523 Z" id="Shape"></path>
            <path d="M21.3666318,10 C21.0169081,10 20.7333111,10.2840022 20.7333111,10.634332 L20.7333111,20.7312406 L15.6668412,20.7312406 L15.6668412,15.2197091 C15.6668412,13.4706827 14.2461426,12.0478105 12.5,12.0478105 C10.7538574,12.0478105 9.33315877,13.470778 9.33315877,15.2197091 L9.33315877,20.7312882 L4.26664128,20.7312882 L4.26664128,10.6343797 C4.26664128,10.2840499 3.98304426,10.0000477 3.63332064,10.0000477 C3.28359701,10.0000477 3,10.2840499 3,10.6343797 L3,21.365668 C3,21.7159978 3.28359701,22 3.63332064,22 L9.96647941,22 C10.2995405,22 10.5720926,21.7422713 10.5973245,21.4150679 C10.5988479,21.4002384 10.5998,21.3840261 10.5998,21.365668 L10.5998,15.2197568 C10.5998,14.1702933 11.4522097,13.3165223 12.5,13.3165223 C13.5477903,13.3165223 14.4002,14.1703409 14.4002,15.2197568 L14.4002,21.365668 C14.4002,21.3839307 14.4011521,21.3998569 14.4026755,21.4144957 C14.4276218,21.7419375 14.7002691,22 15.0335206,22 L21.3666794,22 C21.7164506,22 22,21.7159978 22,21.365668 L22,10.6343797 C21.9999524,10.2840022 21.716403,10 21.3666318,10 Z" id="Shape"></path>
        </g>
    </g>
</svg>