<svg width="62" height="77" viewBox="0 0 62 77" fill="none" xmlns="http://www.w3.org/2000/svg">
<path d="M33.9946 27.104C33.7084 27.1028 33.4282 27.186 33.1897 27.3433C32.9512 27.5006 32.7651 27.7247 32.655 27.9871C32.5449 28.2497 32.5157 28.5388 32.5713 28.8178C32.6268 29.0967 32.7645 29.3531 32.967 29.5541C33.1693 29.7553 33.4273 29.8921 33.7081 29.9473C33.9889 30.0025 34.2799 29.9735 34.5441 29.8641C34.8083 29.7547 35.0339 29.5698 35.1921 29.3328C35.3504 29.0958 35.4343 28.8175 35.433 28.5331C35.433 28.1541 35.2815 27.7906 35.0117 27.5226C34.742 27.2545 34.3761 27.104 33.9946 27.104Z" fill="#004A9C"/>
<path d="M22.2456 31.5269C21.9611 31.5269 21.683 31.6107 21.4465 31.7677C21.21 31.9248 21.0256 32.1479 20.9167 32.4091C20.8079 32.6702 20.7794 32.9576 20.8349 33.2348C20.8904 33.512 21.0274 33.7667 21.2285 33.9666C21.4297 34.1664 21.686 34.3025 21.965 34.3577C22.244 34.4128 22.5333 34.3845 22.7961 34.2763C23.059 34.1682 23.2836 33.985 23.4416 33.75C23.5997 33.515 23.684 33.2386 23.684 32.956C23.684 32.577 23.5325 32.2135 23.2627 31.9455C22.993 31.6774 22.6271 31.5269 22.2456 31.5269Z" fill="#004A9C"/>
<path d="M28.1232 34.3851C28.9176 34.3851 29.5616 33.7453 29.5616 32.956C29.5616 32.1667 28.9176 31.5269 28.1232 31.5269C27.3288 31.5269 26.6848 32.1667 26.6848 32.956C26.6848 33.7453 27.3288 34.3851 28.1232 34.3851Z" fill="#004A9C"/>
<path d="M28.1232 27.104C27.837 27.1028 27.5568 27.186 27.3183 27.3433C27.0798 27.5006 26.8937 27.7247 26.7836 27.9871C26.6735 28.2497 26.6443 28.5388 26.6999 28.8178C26.7554 29.0967 26.8931 29.3531 27.0956 29.5541C27.2979 29.7553 27.5559 29.8921 27.8367 29.9473C28.1175 30.0025 28.4085 29.9735 28.6727 29.8641C28.9369 29.7547 29.1625 29.5698 29.3207 29.3328C29.479 29.0958 29.5629 28.8175 29.5616 28.5331C29.56 28.1546 29.4079 27.792 29.1385 27.5243C28.8691 27.2567 28.5042 27.1056 28.1232 27.104Z" fill="#004A9C"/>
<path d="M33.9946 34.3851C34.789 34.3851 35.433 33.7453 35.433 32.956C35.433 32.1667 34.789 31.5269 33.9946 31.5269C33.2002 31.5269 32.5562 32.1667 32.5562 32.956C32.5562 33.7453 33.2002 34.3851 33.9946 34.3851Z" fill="#004A9C"/>
<path d="M39.8722 34.3851C40.6666 34.3851 41.3106 33.7453 41.3106 32.956C41.3106 32.1667 40.6666 31.5269 39.8722 31.5269C39.0778 31.5269 38.4338 32.1667 38.4338 32.956C38.4338 33.7453 39.0778 34.3851 39.8722 34.3851Z" fill="#004A9C"/>
<path d="M22.2456 35.9313C21.9593 35.9301 21.6792 36.0134 21.4407 36.1706C21.2022 36.3279 21.0161 36.552 20.906 36.8144C20.7958 37.077 20.7667 37.3661 20.8223 37.6451C20.8778 37.924 21.0155 38.1804 21.2179 38.3814C21.4203 38.5826 21.6783 38.7194 21.9591 38.7746C22.2399 38.8298 22.5309 38.8008 22.7951 38.6914C23.0593 38.582 23.2848 38.3971 23.4431 38.1601C23.6014 37.9231 23.6852 37.6448 23.684 37.3604C23.684 36.9814 23.5325 36.6179 23.2627 36.3499C22.9929 36.0818 22.6271 35.9313 22.2456 35.9313Z" fill="#004A9C"/>
<path d="M28.1232 38.7895C28.9176 38.7895 29.5616 38.1497 29.5616 37.3604C29.5616 36.5711 28.9176 35.9313 28.1232 35.9313C27.3288 35.9313 26.6848 36.5711 26.6848 37.3604C26.6848 38.1497 27.3288 38.7895 28.1232 38.7895Z" fill="#004A9C"/>
<path d="M33.9946 38.7895C34.789 38.7895 35.433 38.1497 35.433 37.3604C35.433 36.5711 34.789 35.9313 33.9946 35.9313C33.2002 35.9313 32.5562 36.5711 32.5562 37.3604C32.5562 38.1497 33.2002 38.7895 33.9946 38.7895Z" fill="#004A9C"/>
<path d="M47.3618 23.7468L45.0616 22.213C45.0684 21.9631 45.0158 21.7152 44.9081 21.4894C44.8003 21.2636 44.6405 21.0662 44.4416 20.9132H44.4106V19.287C44.4106 19.0419 44.3126 18.8069 44.1382 18.6336C43.9638 18.4603 43.7272 18.363 43.4806 18.363C43.2339 18.363 42.9974 18.4603 42.8229 18.6336C42.6485 18.8069 42.5506 19.0419 42.5506 19.287V20.9071C42.3458 21.0524 42.1789 21.2442 42.0638 21.4665C41.9486 21.6888 41.8885 21.9352 41.8885 22.1853C41.8885 22.4353 41.9486 22.6817 42.0638 22.904C42.1789 23.1263 42.3458 23.3181 42.5506 23.4635C42.8253 23.6699 43.161 23.7803 43.5054 23.7776C43.6697 23.775 43.8327 23.7481 43.989 23.6975L46.3202 25.256C46.4731 25.3613 46.6549 25.4172 46.841 25.4162C46.993 25.417 47.1428 25.3803 47.277 25.3093C47.4112 25.2383 47.5256 25.1353 47.6098 25.0096C47.7417 24.8084 47.7897 24.564 47.7433 24.3283C47.6971 24.0926 47.5602 23.884 47.3618 23.7468Z" fill="#004A9C"/>
<path d="M48.36 15.6587C47.4945 15.0188 46.5107 14.5546 45.4646 14.2925C44.4185 14.0304 43.3308 13.9756 42.2634 14.1312C41.196 14.2868 40.1699 14.6497 39.2436 15.1993C38.3174 15.7488 37.5092 16.4743 36.8652 17.3342C36.8032 17.4143 36.7474 17.5067 36.6916 17.5868H25.3332V15.8374C25.3332 15.5923 25.2352 15.3572 25.0608 15.184C24.8864 15.0107 24.6498 14.9134 24.4032 14.9134C24.1566 14.9134 23.92 15.0107 23.7456 15.184C23.5712 15.3572 23.4732 15.5923 23.4732 15.8374V17.5806H18.5132C17.7737 17.5822 17.0651 17.8748 16.5422 18.3943C16.0193 18.9138 15.7248 19.6179 15.7232 20.3526V40.7176C15.7248 41.4523 16.0193 42.1564 16.5422 42.6759C17.0651 43.1954 17.7737 43.488 18.5132 43.4896H43.5054C44.2449 43.488 44.9535 43.1954 45.4764 42.6759C45.9993 42.1564 46.2938 41.4523 46.2954 40.7176V29.876C47.7958 29.3377 49.1043 28.3739 50.0588 27.104C50.7045 26.242 51.1727 25.2619 51.4368 24.2199C51.7008 23.1779 51.7556 22.0944 51.5978 21.0314C51.44 19.9684 51.0728 18.9467 50.5172 18.0248C49.9617 17.1029 49.2286 16.2989 48.36 15.6587ZM18.4946 19.4286H23.4546V20.944C23.4546 21.189 23.5526 21.4241 23.727 21.5974C23.9014 21.7707 24.138 21.868 24.3846 21.868C24.6312 21.868 24.8678 21.7707 25.0422 21.5974C25.2166 21.4241 25.3146 21.189 25.3146 20.944V19.4286H35.743C35.3708 20.4542 35.2085 21.5432 35.2656 22.6318H17.5646V20.328C17.5726 20.0878 17.6739 19.8599 17.8473 19.6922C18.0207 19.5246 18.2527 19.4301 18.4946 19.4286ZM43.5054 41.6416H18.4946C18.248 41.6416 18.0114 41.5443 17.837 41.371C17.6626 41.1977 17.5646 40.9626 17.5646 40.7176V24.4798H35.588C36.0803 26.1751 37.1126 27.6661 38.53 28.729C39.9475 29.7919 41.6737 30.3695 43.4496 30.375C43.7793 30.3739 44.1087 30.3512 44.4354 30.3072V40.7176C44.4354 40.9626 44.3374 41.1977 44.163 41.371C43.9886 41.5443 43.752 41.6416 43.5054 41.6416ZM48.5708 25.9767C47.9476 26.8127 47.1263 27.4829 46.1798 27.9279C45.2334 28.3729 44.191 28.5788 43.1452 28.5275C42.0994 28.4762 41.0825 28.1692 40.1848 27.6337C39.2871 27.0982 38.5363 26.3509 37.999 25.4579C37.4618 24.565 37.1547 23.5541 37.105 22.5149C37.0553 21.4757 37.2645 20.4405 37.7142 19.501C38.1639 18.5614 38.84 17.7468 39.6826 17.1292C40.5252 16.5115 41.5082 16.1101 42.5444 15.9606C42.8542 15.9137 43.1673 15.8911 43.4806 15.8928C44.6572 15.8965 45.8098 16.2243 46.8101 16.8399C47.8104 17.4554 48.6193 18.3346 49.1468 19.3795C49.6742 20.4245 49.8997 21.5944 49.798 22.7591C49.6964 23.9238 49.2715 25.0376 48.5708 25.9767Z" fill="#004A9C"/>
</svg>
