<?xml version="1.0" encoding="UTF-8"?>
<svg width="25px" height="22px" viewBox="0 0 25 22" version="1.1" xmlns="http://www.w3.org/2000/svg" xmlns:xlink="http://www.w3.org/1999/xlink">
    <!-- Generator: Sketch 51.2 (57519) - http://www.bohemiancoding.com/sketch -->
    <title>Group 41</title>
    <desc>Created with Sketch.</desc>
    <defs></defs>
    <g id="grids-GUI" stroke="none" stroke-width="1" fill="none" fill-rule="evenodd">
        <g id="Group-41" fill="#004A9C" fill-rule="nonzero">
            <path d="M24.1658011,8.82343523 L12.789447,0.125768331 C12.5700724,-0.041922777 12.2720417,-0.041922777 12.0527609,0.125768331 L0.676313012,8.82343523 C0.398438522,9.0359125 0.338063633,9.44334413 0.541547634,9.73349967 C0.745031635,10.0236552 1.13526529,10.0866006 1.41309291,9.8742212 L12.4210571,1.45814418 L23.4290212,9.87417225 C23.540021,9.95909463 23.6690208,9.99996505 23.7968956,9.99996505 C23.9888952,9.99996505 24.1783636,9.90770068 24.3005196,9.73345073 C24.5040505,9.44334413 24.4436756,9.0359125 24.1658011,8.82343523 Z" id="Shape"></path>
            <path d="M21.7876838,10 C21.4379601,10 21.1543631,10.2840022 21.1543631,10.634332 L21.1543631,20.7312406 L16.0878932,20.7312406 L16.0878932,15.2197091 C16.0878932,13.4706827 14.6671946,12.0478105 12.921052,12.0478105 C11.1749094,12.0478105 9.75421077,13.470778 9.75421077,15.2197091 L9.75421077,20.7312882 L4.68769328,20.7312882 L4.68769328,10.6343797 C4.68769328,10.2840499 4.40409626,10.0000477 4.05437264,10.0000477 C3.70464901,10.0000477 3.421052,10.2840499 3.421052,10.6343797 L3.421052,21.365668 C3.421052,21.7159978 3.70464901,22 4.05437264,22 L10.3875314,22 C10.7205925,22 10.9931446,21.7422713 11.0183765,21.4150679 C11.0198999,21.4002384 11.020852,21.3840261 11.020852,21.365668 L11.020852,15.2197568 C11.020852,14.1702933 11.8732617,13.3165223 12.921052,13.3165223 C13.9688423,13.3165223 14.821252,14.1703409 14.821252,15.2197568 L14.821252,21.365668 C14.821252,21.3839307 14.8222041,21.3998569 14.8237275,21.4144957 C14.8486738,21.7419375 15.1213211,22 15.4545726,22 L21.7877314,22 C22.1375026,22 22.421052,21.7159978 22.421052,21.365668 L22.421052,10.6343797 C22.4210044,10.2840022 22.137455,10 21.7876838,10 Z" id="Shape"></path>
        </g>
    </g>
</svg>