<?xml version="1.0" encoding="UTF-8"?>
<svg width="24px" height="24px" viewBox="0 0 24 24" version="1.1" xmlns="http://www.w3.org/2000/svg" xmlns:xlink="http://www.w3.org/1999/xlink">
    <!-- Generator: Sketch 51.2 (57519) - http://www.bohemiancoding.com/sketch -->
    <title>analytics copy</title>
    <desc>Created with Sketch.</desc>
    <defs></defs>
    <g id="grids-GUI" stroke="none" stroke-width="1" fill="none" fill-rule="evenodd">
        <g id="analytics-copy" fill="#FFFFFF" fill-rule="nonzero">
            <path d="M23.4999385,22.9090909 L0.500014648,22.9090909 C0.224015187,22.9090909 0,23.1534243 0,23.4545199 C0,23.7556155 0.224015187,24 0.500014648,24 L23.4999854,24 C23.7759848,24 24,23.7556155 24,23.4545199 C23.9999531,23.1534243 23.7759379,22.9090909 23.4999385,22.9090909 Z" id="Shape"></path>
            <path d="M4.431807,16.9090909 L1.568193,16.9090909 C1.30474052,16.9090909 1.09090909,17.1360163 1.09090909,17.4156014 L1.09090909,23.493537 C1.09090909,23.7730746 1.30474052,24 1.568193,24 L4.431807,24 C4.69525948,24 4.90909091,23.7730746 4.90909091,23.4934895 L4.90909091,17.4155539 C4.90909091,17.1359689 4.69525948,16.9090909 4.431807,16.9090909 Z M3.95452308,22.9870266 L2.04547692,22.9870266 L2.04547692,17.9220644 L3.95456783,17.9220644 L3.95456783,22.9870266 L3.95452308,22.9870266 Z" id="Shape"></path>
            <path d="M10.431807,12 L7.568193,12 C7.30474052,12 7.09090909,12.2240147 7.09090909,12.5000137 L7.09090909,23.4999863 C7.09090909,23.7759853 7.30474052,24 7.568193,24 L10.431807,24 C10.6952595,24 10.9090909,23.7759853 10.9090909,23.4999863 L10.9090909,12.5000137 C10.9090909,12.2240147 10.6952595,12 10.431807,12 Z M9.95452308,22.9999727 L8.04543217,22.9999727 L8.04543217,12.9999805 L9.95452308,12.9999805 L9.95452308,22.9999727 Z" id="Shape"></path>
            <path d="M16.431807,13.6363636 L13.568193,13.6363636 C13.3047405,13.6363636 13.0909091,13.8563056 13.0909091,14.1272865 L13.0909091,22.9636226 C13.0909091,23.2346035 13.3047405,23.4545455 13.568193,23.4545455 L16.431807,23.4545455 C16.6952595,23.4545455 16.9090909,23.2346035 16.9090909,22.9636226 L16.9090909,14.1272865 C16.9090909,13.8562595 16.6952595,13.6363636 16.431807,13.6363636 Z M15.9545231,22.4726997 L14.0454322,22.4726997 L14.0454322,14.6181634 L15.9545231,14.6181634 L15.9545231,22.4726997 Z" id="Shape"></path>
            <path d="M22.431807,8.18181818 L19.568193,8.18181818 C19.3047405,8.18181818 19.0909091,8.40328774 19.0909091,8.67615085 L19.0909091,23.5056673 C19.0909091,23.7785304 19.3047405,24 19.568193,24 L22.431807,24 C22.6952595,24 22.9090909,23.7785304 22.9090909,23.5056673 L22.9090909,8.67615085 C22.9090909,8.4032414 22.6952595,8.18181818 22.431807,8.18181818 Z M21.9545231,23.0113347 L20.0454322,23.0113347 L20.0454322,9.17043717 L21.9545231,9.17043717 L21.9545231,23.0113347 Z" id="Shape"></path>
            <path d="M3,9.27272727 C1.94712967,9.27272727 1.09090909,10.1289479 1.09090909,11.1818182 C1.09090909,12.2346885 1.94712967,13.0909091 3,13.0909091 C4.05287033,13.0909091 4.90909091,12.2346885 4.90909091,11.1818182 C4.90909091,10.1289479 4.05287033,9.27272727 3,9.27272727 Z M3,12.1363413 C2.47309503,12.1363413 2.04547692,11.7077388 2.04547692,11.1818182 C2.04547692,10.6558528 2.47309503,10.2272951 3,10.2272951 C3.52690497,10.2272951 3.95452308,10.6558976 3.95452308,11.1818182 C3.95452308,11.7077388 3.52690497,12.1363413 3,12.1363413 Z" id="Shape"></path>
            <path d="M9,3.81818182 C7.94712967,3.81818182 7.09090909,4.6744024 7.09090909,5.72727273 C7.09090909,6.78014305 7.94712967,7.63636364 9,7.63636364 C10.0528703,7.63636364 10.9090909,6.78014305 10.9090909,5.72727273 C10.9090909,4.6744024 10.0528703,3.81818182 9,3.81818182 Z M9,6.68179581 C8.47309503,6.68179581 8.04547692,6.25319333 8.04547692,5.72727273 C8.04547692,5.20130738 8.47309503,4.77274964 9,4.77274964 C9.52690497,4.77274964 9.95452308,5.20135212 9.95452308,5.72727273 C9.95452308,6.25323808 9.52690497,6.68179581 9,6.68179581 Z" id="Shape"></path>
            <path d="M15,6 C13.9471297,6 13.0909091,6.85622058 13.0909091,7.90909091 C13.0909091,8.96196123 13.9471297,9.81818182 15,9.81818182 C16.0528703,9.81818182 16.9090909,8.96196123 16.9090909,7.90909091 C16.9090909,6.85622058 16.0528703,6 15,6 Z M15,8.86361399 C14.473095,8.86361399 14.0454769,8.43501152 14.0454769,7.90909091 C14.0454769,7.38312556 14.473095,6.95456783 15,6.95456783 C15.526905,6.95456783 15.9545231,7.3831703 15.9545231,7.90909091 C15.9545231,8.43501152 15.526905,8.86361399 15,8.86361399 Z" id="Shape"></path>
            <path d="M21,0 C19.9471297,0 19.0909091,0.856220584 19.0909091,1.90909091 C19.0909091,2.96196123 19.9471297,3.81818182 21,3.81818182 C22.0528703,3.81818182 22.9090909,2.96196123 22.9090909,1.90909091 C22.9090909,0.856220584 22.0528703,0 21,0 Z M21,2.86361399 C20.473095,2.86361399 20.0454769,2.43501152 20.0454769,1.90909091 C20.0454769,1.38312556 20.473095,0.954567827 21,0.954567827 C21.526905,0.954567827 21.9545231,1.3831703 21.9545231,1.90909091 C21.9545231,2.43501152 21.526905,2.86361399 21,2.86361399 Z" id="Shape"></path>
            <path d="M20.5801358,2.8744167 C20.3839533,2.67822474 20.0650152,2.67822474 19.8688326,2.8744167 L15.9653187,6.7781181 C15.7691362,6.97431007 15.7691362,7.2932635 15.9653187,7.48945547 C16.0639288,7.58703268 16.1926735,7.63636364 16.3214655,7.63636364 C16.44922,7.63636364 16.5780119,7.58807023 16.6766219,7.48945547 L20.5801358,3.58575407 C20.7763184,3.38956211 20.7763184,3.07060867 20.5801358,2.8744167 Z" id="Shape"></path>
            <path d="M13.8053325,6.79901941 L10.4775407,6.01717005 C10.1988285,5.95059222 9.91598825,6.08374788 9.83828489,6.31080868 C9.75956168,6.53786948 9.91909638,6.77345257 10.193632,6.83830993 L13.5214239,7.6201593 C13.5690658,7.63124226 13.6167562,7.63636364 13.6633782,7.63636364 C13.8892522,7.63636364 14.0964287,7.51429095 14.1616995,7.32652067 C14.2404713,7.1003401 14.0809366,6.86387678 13.8053325,6.79901941 Z" id="Shape"></path>
            <path d="M8.61451758,6.72498383 C8.43752292,6.51907548 8.11435934,6.48569581 7.89206678,6.64870658 L4.01222233,9.51426443 C3.78992977,9.67919666 3.75288101,9.9784966 3.93093696,10.1844049 C4.03282105,10.3025967 4.18309043,10.3636364 4.33331157,10.3636364 C4.4454709,10.3636364 4.55869152,10.3293183 4.65338776,10.2606822 L8.53323222,7.39512434 C8.75552477,7.23019212 8.79257353,6.93089218 8.61451758,6.72498383 Z" id="Shape"></path>
        </g>
    </g>
</svg>