<?xml version="1.0" encoding="UTF-8"?>
<svg width="345px" height="216px" viewBox="0 0 345 216" version="1.1" xmlns="http://www.w3.org/2000/svg" xmlns:xlink="http://www.w3.org/1999/xlink">
    <!-- Generator: Sketch 51.2 (57519) - http://www.bohemiancoding.com/sketch -->
    <title>Group 9</title>
    <desc>Created with Sketch.</desc>
    <defs></defs>
    <g id="grids-GUI" stroke="none" stroke-width="1" fill="none" fill-rule="evenodd">
        <g id="Dashboard---Data-Health---Population-Shift-Zero-State" transform="translate(-727.000000, -378.000000)">
            <g id="Group-9" transform="translate(723.000000, 359.000000)">
                <path d="M148.669496,285.646583 C222.963942,272.146442 300.432132,200.89689 278.268464,95.2230882 C256.104797,-10.4507132 212.41578,-57.50012 142.49266,-56.3753005 C72.5695409,-55.250481 139.719563,87.3852788 97.8502846,152.241693 C55.9810057,217.098108 74.3750503,299.146725 148.669496,285.646583 Z" id="Oval-14" fill="#AFD4FF" transform="translate(178.984095, 115.362324) rotate(86.000000) translate(-178.984095, -115.362324) "></path>
                <path d="M116.0625,121.229387 C122.418496,119.969412 127.418496,119.339424 131.0625,119.339424 C134.706504,119.339424 140.039837,119.969412 147.0625,121.229387 C150.530378,121.956144 154.59765,120.652856 159.264317,117.319522 C163.930983,113.986189 162.863711,109.986189 156.0625,105.319522 C177.063664,106.920362 179.797603,115.920362 164.264317,132.319522 C162.586517,134.090848 159.185911,136.379019 154.0625,139.184035 L156.0625,234.627161 C143.523493,209.394979 135.19016,197.425214 131.0625,198.717866 C122.569655,201.377556 114.902988,213.347321 108.0625,234.627161 C105.724059,224.840978 107.057392,193.026602 112.0625,139.184035 C108.390833,142.153944 105.724166,145.93387 104.0625,150.523812 C102.400834,155.113755 100.734167,163.303594 99.0625,175.09333 C93.0625,158.713651 92.3958333,146.113899 97.0625,137.294072 C101.729167,128.474245 108.0625,123.11935 116.0625,121.229387 Z" id="Path-3" fill="#FFFFFF"></path>
                <path d="M122.0625,117.229387 C128.418496,115.969412 133.418496,115.339424 137.0625,115.339424 C140.706504,115.339424 146.039837,115.969412 153.0625,117.229387 C156.530378,117.956144 160.59765,116.652856 165.264317,113.319522 C169.930983,109.986189 168.863711,105.986189 162.0625,101.319522 C183.063664,102.920362 185.797603,111.920362 170.264317,128.319522 C168.586517,130.090848 165.185911,132.379019 160.0625,135.184035 L162.0625,230.627161 C149.523493,205.394979 141.19016,193.425214 137.0625,194.717866 C128.569655,197.377556 120.902988,209.347321 114.0625,230.627161 C111.724059,220.840978 113.057392,189.026602 118.0625,135.184035 C114.390833,138.153944 111.724166,141.93387 110.0625,146.523812 C108.400834,151.113755 106.734167,159.303594 105.0625,171.09333 C99.0625,154.713651 98.3958333,142.113899 103.0625,133.294072 C107.729167,124.474245 114.0625,119.11935 122.0625,117.229387 Z" id="Path-3" stroke="#3A3C3C" stroke-width="2" stroke-linecap="round" stroke-linejoin="bevel"></path>
                <circle id="Oval-11" fill="#FFFFFF" cx="137.5" cy="90.8195222" r="17.5"></circle>
                <circle id="Oval-11" stroke="#3A3C3C" stroke-width="2" transform="translate(142.517633, 93.837155) rotate(11.000000) translate(-142.517633, -93.837155) " cx="142.517633" cy="93.8371553" r="17.5"></circle>
                <rect id="Rectangle-38" fill="#4C80B9" x="71" y="151.319522" width="194" height="10"></rect>
                <rect id="Rectangle-40" fill="#4C80B9" x="92" y="163.319522" width="149" height="55"></rect>
                <rect id="Rectangle-41" fill="#4C80B9" x="243" y="163.319522" width="10" height="69"></rect>
                <rect id="Rectangle-41" fill="#4C80B9" x="80" y="163.319522" width="10" height="69"></rect>
                <rect id="Rectangle-38" stroke="#3A3C3C" stroke-width="2" x="77" y="148.319522" width="192" height="8"></rect>
                <rect id="Rectangle-40" stroke="#3A3C3C" stroke-width="2" x="98" y="160.319522" width="147" height="53"></rect>
                <rect id="Rectangle-41" stroke="#3A3C3C" stroke-width="2" x="249" y="160.319522" width="8" height="67"></rect>
                <rect id="Rectangle-41" stroke="#3A3C3C" stroke-width="2" x="86" y="160.319522" width="8" height="67"></rect>
                <path d="M206.5,193.819522 L234.5,193.819522" id="Line-42" stroke="#3A3C3C" stroke-width="2" stroke-linecap="round" stroke-linejoin="round"></path>
                <path d="M194.5,200.819522 L234.5,200.819522" id="Line-43" stroke="#3A3C3C" stroke-width="2" stroke-linecap="round" stroke-linejoin="round"></path>
                <path d="M172.599441,90.3416355 C170.8818,90.0263262 169.76585,90.2260342 169.251589,90.9407595 C168.480198,92.0128475 169.6848,93.2008197 170.161131,93.7304284 C170.478685,94.0835008 171.291455,94.0835008 172.599441,93.7304284 C172.393068,94.9144712 172.699465,95.6657217 173.518632,95.9841799 C174.747383,96.4618673 175.822484,96.2715548 176.561696,95.9841799 C177.054504,95.7925967 177.054504,95.0413462 176.561696,93.7304284 C178.390429,94.2060225 179.507988,94.2060225 179.914373,93.7304284 C180.320758,93.2548342 180.320758,92.6386901 179.914373,91.8819959 C181.065004,92.0712643 181.877774,91.8658829 182.352683,91.2658517 C183.065047,90.365805 183.065047,89.8227384 182.352683,88.8012751 C181.877774,88.1202996 181.065004,88.1202996 179.914373,88.8012751 C180.215622,87.8991054 180.012429,87.2829612 179.304795,86.9528427 C178.243344,86.4576648 177.176098,85.8178014 175.952118,86.9528427 C175.136132,87.7095368 175.136132,88.325681 175.952118,88.8012751 C174.532987,87.5689868 173.415428,87.2933304 172.599441,87.9743059 C171.783455,88.6552814 171.783455,89.4443913 172.599441,90.3416355 Z" id="Path-5" fill="#FFFFFF"></path>
                <path d="M191.060923,74.6958042 C190.913436,73.1727409 191.503403,72.3813941 192.830825,72.3217638 C194.158247,72.2621335 195.072883,73.3921972 195.574734,75.7119548 C195.112005,74.6117369 195.572657,73.9938461 196.956689,73.8582825 C199.032737,73.654937 199.624623,75.1118095 200.31887,76.41916 C200.781701,77.2907269 200.524818,78.0638224 199.54822,78.7384463 C201.211235,78.9344279 202.026309,79.5552467 201.993442,80.6009027 C201.944142,82.1693867 201.538126,82.7139928 200.150835,83.0724658 C199.225975,83.3114477 198.25735,82.8965925 197.244961,81.8279002 C197.086766,82.8971488 196.626114,83.5150396 195.863005,83.6815725 C195.099897,83.8481054 193.97917,82.9944796 192.500825,81.120695 C192.014939,82.8117506 191.453277,83.5651307 190.815838,83.3808354 C189.859679,83.1043923 188.639246,82.4740492 187.764148,81.0564502 C187.18075,80.1113841 187.435146,79.1239686 188.527338,78.0942034 C186.951674,77.4491968 186.1366,76.828378 186.082116,76.231747 C186.000389,75.3368007 185.680544,73.2253494 187.255654,72.7394343 C188.305727,72.4154908 189.57415,73.0676141 191.060923,74.6958042 Z" id="Path-5-Copy" fill="#FFFFFF"></path>
                <path d="M175.599441,87.3416355 C173.8818,87.0263262 172.76585,87.2260342 172.251589,87.9407595 C171.480198,89.0128475 172.6848,90.2008197 173.161131,90.7304284 C173.478685,91.0835008 174.291455,91.0835008 175.599441,90.7304284 C175.393068,91.9144712 175.699465,92.6657217 176.518632,92.9841799 C177.747383,93.4618673 178.822484,93.2715548 179.561696,92.9841799 C180.054504,92.7925967 180.054504,92.0413462 179.561696,90.7304284 C181.390429,91.2060225 182.507988,91.2060225 182.914373,90.7304284 C183.320758,90.2548342 183.320758,89.6386901 182.914373,88.8819959 C184.065004,89.0712643 184.877774,88.8658829 185.352683,88.2658517 C186.065047,87.365805 186.065047,86.8227384 185.352683,85.8012751 C184.877774,85.1202996 184.065004,85.1202996 182.914373,85.8012751 C183.215622,84.8991054 183.012429,84.2829612 182.304795,83.9528427 C181.243344,83.4576648 180.176098,82.8178014 178.952118,83.9528427 C178.136132,84.7095368 178.136132,85.325681 178.952118,85.8012751 C177.532987,84.5689868 176.415428,84.2933304 175.599441,84.9743059 C174.783455,85.6552814 174.783455,86.4443913 175.599441,87.3416355 Z" id="Path-5" stroke="#3A3C3C" stroke-width="2" stroke-linecap="round" stroke-linejoin="bevel"></path>
                <path d="M193.060923,71.6958042 C192.913436,70.1727409 193.503403,69.3813941 194.830825,69.3217638 C196.158247,69.2621335 197.072883,70.3921972 197.574734,72.7119548 C197.112005,71.6117369 197.572657,70.9938461 198.956689,70.8582825 C201.032737,70.654937 201.624623,72.1118095 202.31887,73.41916 C202.781701,74.2907269 202.524818,75.0638224 201.54822,75.7384463 C203.211235,75.9344279 204.026309,76.5552467 203.993442,77.6009027 C203.944142,79.1693867 203.538126,79.7139928 202.150835,80.0724658 C201.225975,80.3114477 200.25735,79.8965925 199.244961,78.8279002 C199.086766,79.8971488 198.626114,80.5150396 197.863005,80.6815725 C197.099897,80.8481054 195.97917,79.9944796 194.500825,78.120695 C194.014939,79.8117506 193.453277,80.5651307 192.815838,80.3808354 C191.859679,80.1043923 190.639246,79.4740492 189.764148,78.0564502 C189.18075,77.1113841 189.435146,76.1239686 190.527338,75.0942034 C188.951674,74.4491968 188.1366,73.828378 188.082116,73.231747 C188.000389,72.3368007 187.680544,70.2253494 189.255654,69.7394343 C190.305727,69.4154908 191.57415,70.0676141 193.060923,71.6958042 Z" id="Path-5-Copy" stroke="#3A3C3C" stroke-width="2" stroke-linecap="round" stroke-linejoin="bevel"></path>
                <g id="Group-52" transform="translate(189.000000, 8.319522)">
                    <path d="M27.2830911,45.0735373 C19.998175,42.1672245 14.8391702,45.1055994 11.8060766,53.8886622 C8.77298305,62.6717249 14.2995503,66.7628802 28.3857784,66.162128 C29.0122359,76.3944262 34.3438424,79.3813035 44.3805979,75.1227597 C54.4173535,70.864216 57.5573935,66.3854493 53.8007179,61.6864597 C59.6342996,63.4068891 63.5076438,63.1609776 65.4207505,60.9487253 C67.3338573,58.736473 66.8623425,56.0657641 64.0062062,52.9365984 C69.4229416,53.8169907 73.2491552,52.8616479 75.4848468,50.0705699 C78.8383844,45.883953 78.8383844,43.3578486 75.4848468,38.6064559 C73.2491552,35.4388608 69.7596982,34.6222289 65.016476,36.1565603 C67.6091414,26.1035977 64.0966906,21.051563 54.4791235,21.0004563 C44.8615563,20.9493496 40.5905807,25.1910791 41.6661965,33.7256447 C37.1553134,30.2841137 32.9791941,30.1471457 29.1378388,33.3147408 C25.2964835,36.482336 24.6782343,40.4019348 27.2830911,45.0735373 Z" id="Path-5-Copy" fill="#FFFFFF" transform="translate(44.500000, 49.000000) rotate(43.000000) translate(-44.500000, -49.000000) "></path>
                    <path d="M45.4821853,32 C49.543943,32 53,34.5417827 53,38.9637883 C53,40.7047354 52.2517815,42.0278552 51.2541568,43.316156 L48.6175772,46.7284123 C48.2612827,47.2158774 47.976247,47.9470752 47.976247,48.5041783 L47.976247,49.235376 L43.3444181,49.235376 L43.3444181,48.1908078 C43.3444181,46.6935933 43.7719715,45.7534819 44.6983373,44.5696379 L47.3349169,41.2618384 C47.9049881,40.5306407 48.368171,39.729805 48.368171,38.9289694 C48.368171,37.2924791 47.263658,36.0738162 45.4821853,36.0738162 C43.6294537,36.0738162 42.631829,37.362117 42.631829,38.9637883 L38,38.9637883 C38,34.6810585 41.3491686,32 45.4821853,32 Z M48.1187648,54.6845404 L48.1187648,54.6845404 C48.1187648,55.9633334 47.0820983,57 45.8033052,57 L45.5173598,57 C44.2385668,57 43.2019002,55.9633334 43.2019002,54.6845404 L43.2019002,54.6845404 C43.2019002,53.4057474 44.2385668,52.3690808 45.5173598,52.3690808 L45.8033052,52.3690808 C47.0820983,52.3690808 48.1187648,53.4057474 48.1187648,54.6845404 Z" id="?" fill="#4C80B9" transform="translate(45.500000, 44.500000) rotate(-35.000000) translate(-45.500000, -44.500000) "></path>
                    <path d="M48.4821853,32 C52.543943,32 56,34.5417827 56,38.9637883 C56,40.7047354 55.2517815,42.0278552 54.2541568,43.316156 L51.6175772,46.7284123 C51.2612827,47.2158774 50.976247,47.9470752 50.976247,48.5041783 L50.976247,49.235376 L46.3444181,49.235376 L46.3444181,48.1908078 C46.3444181,46.6935933 46.7719715,45.7534819 47.6983373,44.5696379 L50.3349169,41.2618384 C50.9049881,40.5306407 51.368171,39.729805 51.368171,38.9289694 C51.368171,37.2924791 50.263658,36.0738162 48.4821853,36.0738162 C46.6294537,36.0738162 45.631829,37.362117 45.631829,38.9637883 L41,38.9637883 C41,34.6810585 44.3491686,32 48.4821853,32 Z M51.1187648,54.6845404 L51.1187648,54.6845404 C51.1187648,55.9633334 50.0820983,57 48.8033052,57 L48.5173598,57 C47.2385668,57 46.2019002,55.9633334 46.2019002,54.6845404 L46.2019002,54.6845404 C46.2019002,53.4057474 47.2385668,52.3690808 48.5173598,52.3690808 L48.8033052,52.3690808 C50.0820983,52.3690808 51.1187648,53.4057474 51.1187648,54.6845404 Z" id="?" stroke="#3A3C3C" stroke-width="2" stroke-linejoin="round" transform="translate(48.500000, 44.500000) rotate(-35.000000) translate(-48.500000, -44.500000) "></path>
                    <path d="M31.2830911,40.0735373 C23.998175,37.1672245 18.8391702,40.1055994 15.8060766,48.8886622 C12.7729831,57.6717249 18.2995503,61.7628802 32.3857784,61.162128 C33.0122359,71.3944262 38.3438424,74.3813035 48.3805979,70.1227597 C58.4173535,65.864216 61.5573935,61.3854493 57.8007179,56.6864597 C63.6342996,58.4068891 67.5076438,58.1609776 69.4207505,55.9487253 C71.3338573,53.736473 70.8623425,51.0657641 68.0062062,47.9365984 C73.4229416,48.8169907 77.2491552,47.8616479 79.4848468,45.0705699 C82.8383844,40.883953 82.8383844,38.3578486 79.4848468,33.6064559 C77.2491552,30.4388608 73.7596982,29.6222289 69.016476,31.1565603 C71.6091414,21.1035977 68.0966906,16.051563 58.4791235,16.0004563 C48.8615563,15.9493496 44.5905807,20.1910791 45.6661965,28.7256447 C41.1553134,25.2841137 36.9791941,25.1471457 33.1378388,28.3147408 C29.2964835,31.482336 28.6782343,35.4019348 31.2830911,40.0735373 Z" id="Path-5-Copy" stroke="#3A3C3C" stroke-width="2" stroke-linecap="round" stroke-linejoin="bevel" transform="translate(48.500000, 44.000000) rotate(43.000000) translate(-48.500000, -44.000000) "></path>
                </g>
            </g>
        </g>
    </g>
</svg>