<?xml version="1.0" encoding="UTF-8" standalone="no"?>
<svg width="52px" height="52px" viewBox="0 0 52 52" version="1.1" xmlns="http://www.w3.org/2000/svg" xmlns:xlink="http://www.w3.org/1999/xlink">
    <!-- Generator: Sketch 48.2 (47327) - http://www.bohemiancoding.com/sketch -->
    <title>dessa_logo</title>
    <desc>Created with Sketch.</desc>
    <defs>
        <linearGradient x1="508.473995%" y1="255.927759%" x2="-145.745268%" y2="-10.5761691%" id="linearGradient-1">
            <stop stop-color="#0000E2" offset="0.2414416%"></stop>
            <stop stop-color="#38ADFF" offset="100%"></stop>
        </linearGradient>
        <linearGradient x1="160.799051%" y1="2.16535272%" x2="-118.112478%" y2="122.58556%" id="linearGradient-2">
            <stop stop-color="#9BD7FF" offset="0.294441%"></stop>
            <stop stop-color="#38ADFF" offset="100%"></stop>
        </linearGradient>
        <linearGradient x1="137.311794%" y1="-248.988559%" x2="-44.2608508%" y2="372.893836%" id="linearGradient-3">
            <stop stop-color="#9BD7FF" offset="0.294441%"></stop>
            <stop stop-color="#38ADFF" offset="100%"></stop>
        </linearGradient>
        <linearGradient x1="77.9804797%" y1="-47.7111872%" x2="-105.533916%" y2="595.866529%" id="linearGradient-4">
            <stop stop-color="#9BD7FF" offset="0.294441%"></stop>
            <stop stop-color="#38ADFF" offset="100%"></stop>
        </linearGradient>
        <linearGradient x1="58.8440013%" y1="47.4333442%" x2="-218.711395%" y2="70.3153289%" id="linearGradient-5">
            <stop stop-color="#9BD7FF" offset="0.294441%"></stop>
            <stop stop-color="#38ADFF" offset="100%"></stop>
        </linearGradient>
        <linearGradient x1="145.508144%" y1="-65.2734839%" x2="-56.2465803%" y2="142.800137%" id="linearGradient-6">
            <stop stop-color="#9BD7FF" offset="0.294441%"></stop>
            <stop stop-color="#38ADFF" offset="100%"></stop>
        </linearGradient>
        <linearGradient x1="103.898431%" y1="319.399688%" x2="20.0176702%" y2="-74.4064729%" id="linearGradient-7">
            <stop stop-color="#005AFF" offset="0.1923681%"></stop>
            <stop stop-color="#00B8FF" offset="99.95%"></stop>
        </linearGradient>
        <linearGradient x1="169.507407%" y1="-370.364072%" x2="-8.28826796%" y2="255.033483%" id="linearGradient-8">
            <stop stop-color="#9BD7FF" offset="0.294441%"></stop>
            <stop stop-color="#38ADFF" offset="100%"></stop>
        </linearGradient>
        <linearGradient x1="169.507407%" y1="-370.364072%" x2="-8.28826796%" y2="255.033483%" id="linearGradient-9">
            <stop stop-color="#CDEBFF" offset="0.294441%"></stop>
            <stop stop-color="#69C2FF" offset="100%"></stop>
        </linearGradient>
        <linearGradient x1="91.444655%" y1="-94.458654%" x2="-88.0941021%" y2="530.938901%" id="linearGradient-10">
            <stop stop-color="#9BD7FF" offset="0.294441%"></stop>
            <stop stop-color="#38ADFF" offset="100%"></stop>
        </linearGradient>
        <linearGradient x1="91.444655%" y1="-94.458654%" x2="-88.0941021%" y2="530.938901%" id="linearGradient-11">
            <stop stop-color="#9BD7FF" offset="0.294441%"></stop>
            <stop stop-color="#69C2FF" offset="100%"></stop>
        </linearGradient>
        <linearGradient x1="91.444655%" y1="-94.458654%" x2="-88.0941021%" y2="530.938901%" id="linearGradient-12">
            <stop stop-color="#CDEBFF" offset="0.294441%"></stop>
            <stop stop-color="#69C2FF" offset="100%"></stop>
        </linearGradient>
        <linearGradient x1="156.389482%" y1="-320.727315%" x2="-23.149275%" y2="304.67024%" id="linearGradient-13">
            <stop stop-color="#9BD7FF" offset="0.294441%"></stop>
            <stop stop-color="#38ADFF" offset="100%"></stop>
        </linearGradient>
        <linearGradient x1="156.389482%" y1="-320.727315%" x2="-23.149275%" y2="304.67024%" id="linearGradient-14">
            <stop stop-color="#CDEBFF" offset="0.294441%"></stop>
            <stop stop-color="#69C2FF" offset="100%"></stop>
        </linearGradient>
        <linearGradient x1="205.819928%" y1="562.051816%" x2="-4.74378087%" y2="-129.985011%" id="linearGradient-15">
            <stop stop-color="#0000E2" offset="0.2414416%"></stop>
            <stop stop-color="#38ADFF" offset="100%"></stop>
        </linearGradient>
        <linearGradient x1="431.931852%" y1="-97.0454512%" x2="-124.080742%" y2="145.366731%" id="linearGradient-16">
            <stop stop-color="#9BD7FF" offset="0.294441%"></stop>
            <stop stop-color="#38ADFF" offset="100%"></stop>
        </linearGradient>
        <linearGradient x1="-319.888189%" y1="223.31024%" x2="193.382841%" y2="9.83573638%" id="linearGradient-17">
            <stop stop-color="#0000E2" offset="0.1923681%"></stop>
            <stop stop-color="#38ADFF" offset="100%"></stop>
        </linearGradient>
        <linearGradient x1="166.180085%" y1="-347.986034%" x2="-15.3925605%" y2="273.895799%" id="linearGradient-18">
            <stop stop-color="#9BD7FF" offset="0.294441%"></stop>
            <stop stop-color="#38ADFF" offset="100%"></stop>
        </linearGradient>
        <linearGradient x1="-127.727692%" y1="612.081821%" x2="187.664596%" y2="-385.517614%" id="linearGradient-19">
            <stop stop-color="#0000E2" offset="0.1923681%"></stop>
            <stop stop-color="#00D0FF" offset="100%"></stop>
        </linearGradient>
        <linearGradient x1="-79.1629664%" y1="471.936844%" x2="88.4519029%" y2="-75.7096105%" id="linearGradient-20">
            <stop stop-color="#0000E2" offset="0.1923681%"></stop>
            <stop stop-color="#38ADFF" offset="100%"></stop>
        </linearGradient>
        <linearGradient x1="100.358786%" y1="-123.792305%" x2="-80.9453839%" y2="501.602984%" id="linearGradient-21">
            <stop stop-color="#9BD7FF" offset="0.294441%"></stop>
            <stop stop-color="#38ADFF" offset="100%"></stop>
        </linearGradient>
        <linearGradient x1="100.358786%" y1="-123.792305%" x2="-80.9453839%" y2="501.602984%" id="linearGradient-22">
            <stop stop-color="#CDEBFF" offset="0.294441%"></stop>
            <stop stop-color="#69C2FF" offset="100%"></stop>
        </linearGradient>
        <linearGradient x1="100.358786%" y1="-123.792305%" x2="-80.9453839%" y2="501.602984%" id="linearGradient-23">
            <stop stop-color="#69C2FF" offset="0.294441%"></stop>
            <stop stop-color="#38ADFF" offset="100%"></stop>
        </linearGradient>
        <linearGradient x1="353.315917%" y1="35.8993818%" x2="-202.696028%" y2="66.2008496%" id="linearGradient-24">
            <stop stop-color="#9BD7FF" offset="0.294441%"></stop>
            <stop stop-color="#38ADFF" offset="100%"></stop>
        </linearGradient>
        <linearGradient x1="353.315917%" y1="35.8993818%" x2="-202.696028%" y2="66.2008496%" id="linearGradient-25">
            <stop stop-color="#CDEBFF" offset="0.294441%"></stop>
            <stop stop-color="#69C2FF" offset="100%"></stop>
        </linearGradient>
        <linearGradient x1="353.315917%" y1="35.8993818%" x2="-202.696028%" y2="66.2008496%" id="linearGradient-26">
            <stop stop-color="#38ADFF" offset="0.294441%"></stop>
            <stop stop-color="#9BD7FF" offset="100%"></stop>
        </linearGradient>
        <linearGradient x1="131.9332%" y1="-230.710532%" x2="-49.6394448%" y2="391.171863%" id="linearGradient-27">
            <stop stop-color="#9BD7FF" offset="0.294441%"></stop>
            <stop stop-color="#38ADFF" offset="100%"></stop>
        </linearGradient>
        <linearGradient x1="131.9332%" y1="-230.710532%" x2="-49.6394448%" y2="391.171863%" id="linearGradient-28">
            <stop stop-color="#CDEBFF" offset="0.294441%"></stop>
            <stop stop-color="#69C2FF" offset="100%"></stop>
        </linearGradient>
        <linearGradient x1="131.9332%" y1="-230.710532%" x2="-49.6394448%" y2="391.171863%" id="linearGradient-29">
            <stop stop-color="#69C2FF" offset="0.294441%"></stop>
            <stop stop-color="#38ADFF" offset="100%"></stop>
        </linearGradient>
        <linearGradient x1="131.9332%" y1="-230.710532%" x2="-49.6394448%" y2="391.171863%" id="linearGradient-30">
            <stop stop-color="#38ADFF" offset="0.294441%"></stop>
            <stop stop-color="#9BD7FF" offset="100%"></stop>
        </linearGradient>
        <linearGradient x1="178.767853%" y1="-25.5224458%" x2="-379.055532%" y2="217.364761%" id="linearGradient-31">
            <stop stop-color="#9BD7FF" offset="0.294441%"></stop>
            <stop stop-color="#38ADFF" offset="100%"></stop>
        </linearGradient>
        <linearGradient x1="178.767853%" y1="-25.5224458%" x2="-379.055532%" y2="217.364761%" id="linearGradient-32">
            <stop stop-color="#CDEBFF" offset="0.294441%"></stop>
            <stop stop-color="#69C2FF" offset="100%"></stop>
        </linearGradient>
        <linearGradient x1="178.767853%" y1="-25.5224458%" x2="-379.055532%" y2="217.364761%" id="linearGradient-33">
            <stop stop-color="#69C2FF" offset="0.294441%"></stop>
            <stop stop-color="#38ADFF" offset="100%"></stop>
        </linearGradient>
        <linearGradient x1="87.0617047%" y1="-16.3032759%" x2="-42.9795804%" y2="158.357413%" id="linearGradient-34">
            <stop stop-color="#00B8FF" offset="0.2434045%"></stop>
            <stop stop-color="#0000E2" offset="100%"></stop>
        </linearGradient>
        <linearGradient x1="-91.0597389%" y1="113.294181%" x2="231.570286%" y2="-16.4977831%" id="linearGradient-35">
            <stop stop-color="#0000E2" offset="0.1923681%"></stop>
            <stop stop-color="#00D0FF" offset="100%"></stop>
        </linearGradient>
        <linearGradient x1="199.392539%" y1="21.3186528%" x2="-79.5191533%" y2="83.0781228%" id="linearGradient-36">
            <stop stop-color="#69C2FF" offset="0.294441%"></stop>
            <stop stop-color="#38ADFF" offset="100%"></stop>
        </linearGradient>
        <linearGradient x1="90.0828148%" y1="32.2578355%" x2="-187.923807%" y2="155.535782%" id="linearGradient-37">
            <stop stop-color="#9BD7FF" offset="0.294441%"></stop>
            <stop stop-color="#69C2FF" offset="100%"></stop>
        </linearGradient>
        <linearGradient x1="69.6126348%" y1="46.5088089%" x2="-132.368114%" y2="254.974095%" id="linearGradient-38">
            <stop stop-color="#69C2FF" offset="0.294441%"></stop>
            <stop stop-color="#9BD7FF" offset="100%"></stop>
        </linearGradient>
        <linearGradient x1="226.399935%" y1="63.8526077%" x2="-4.01740464%" y2="46.7013647%" id="linearGradient-39">
            <stop stop-color="#005AFF" offset="0.1923681%"></stop>
            <stop stop-color="#00B8FF" offset="99.95%"></stop>
        </linearGradient>
        <linearGradient x1="181.799829%" y1="12.0848336%" x2="-96.6585103%" y2="133.409636%" id="linearGradient-40">
            <stop stop-color="#CDEBFF" offset="0.294441%"></stop>
            <stop stop-color="#38ADFF" offset="99.95%"></stop>
        </linearGradient>
        <linearGradient x1="129.290499%" y1="27.3262147%" x2="-149.167678%" y2="89.2870189%" id="linearGradient-41">
            <stop stop-color="#CDEBFF" offset="0.294441%"></stop>
            <stop stop-color="#69C2FF" offset="100%"></stop>
        </linearGradient>
    </defs>
    <g id="Page-1" stroke="none" stroke-width="1" fill="none" fill-rule="evenodd">
        <g id="dessa_logo" fill-rule="nonzero">
            <g id="Group">
                <polygon id="Shape" fill="url(#linearGradient-1)" points="19.5105691 37.0656 26 33.3632 19.5105691 29.6816"></polygon>
                <polygon id="Shape" fill="url(#linearGradient-2)" points="25.9365854 3.8896 25.9577236 3.8896 25.9365854 3.8688 12.9788618 11.2736 13 18.6368 25.9577236 11.232"></polygon>
                <polygon id="Shape" fill="url(#linearGradient-3)" points="39 40.7264 39 40.7264 32.5105691 44.4288"></polygon>
                <polygon id="Shape" fill="url(#linearGradient-4)" points="32.4471545 14.8928 32.4471545 14.9136 38.7674797 18.4704"></polygon>
                <polygon id="Shape" fill="url(#linearGradient-5)" points="38.9365854 11.232 38.9577236 18.5744 45.4471545 22.256 45.4894309 37.0032 51.9788618 33.3008 51.9365854 18.5952"></polygon>
                <polygon id="Shape" fill="url(#linearGradient-6)" points="39 40.7056 26 33.3632 26.0211382 40.7472 32.5105691 44.4288 39 40.7264"></polygon>
                <polygon id="Shape" fill="url(#linearGradient-7)" points="39 40.7056 26 33.3632 26.0211382 40.7472 32.5105691 44.4288"></polygon>
                <polygon id="Shape" fill="url(#linearGradient-8)" points="13 26 19.5105691 29.6816 19.5105691 29.6816"></polygon>
                <polygon id="Shape" fill="url(#linearGradient-9)" points="13 26 19.5105691 29.6816 19.5105691 29.6816"></polygon>
                <path d="M32.4471545,14.9136 L25.9577236,11.232 L32.4471545,14.9136 Z" id="Shape" fill="url(#linearGradient-10)"></path>
                <path d="M32.4471545,14.9136 L25.9577236,11.232 L32.4471545,14.9136 Z" id="Shape" fill="url(#linearGradient-11)"></path>
                <path d="M32.4471545,14.9136 L25.9577236,11.232 L32.4471545,14.9136 Z" id="Shape" fill="url(#linearGradient-12)"></path>
                <path d="M19.5105691,29.6816 L26,33.3632 L19.5105691,29.6816 Z" id="Shape" fill="url(#linearGradient-13)"></path>
                <path d="M19.5105691,29.6816 L26,33.3632 L19.5105691,29.6816 Z" id="Shape" fill="url(#linearGradient-14)"></path>
                <path d="M19.5105691,29.6816 L26,33.3632 L19.5105691,29.6816 Z" id="Shape" fill="url(#linearGradient-15)"></path>
                <polygon id="Shape" fill="url(#linearGradient-16)" points="19.5105691 37.0656 26.0211382 40.7472 26 33.3632"></polygon>
                <polygon id="Shape" fill="url(#linearGradient-17)" points="19.5105691 37.0656 26.0211382 40.7472 26 33.3632"></polygon>
                <polygon id="Shape" fill="url(#linearGradient-18)" points="19.5105691 37.0656 19.5105691 37.0656 26 33.3632"></polygon>
                <polygon id="Shape" fill="url(#linearGradient-19)" points="19.5105691 37.0656 19.5105691 37.0656 26 33.3632"></polygon>
                <polygon id="Shape" fill="url(#linearGradient-20)" points="19.5105691 37.0656 19.5105691 37.0656 26 33.3632"></polygon>
                <polygon id="Shape" fill="url(#linearGradient-21)" points="32.4471545 14.9136 25.9788618 18.5952 25.9788618 18.5952"></polygon>
                <polygon id="Shape" fill="url(#linearGradient-22)" points="32.4471545 14.9136 25.9788618 18.5952 25.9788618 18.5952"></polygon>
                <polygon id="Shape" fill="url(#linearGradient-23)" points="32.4471545 14.9136 25.9788618 18.5952 25.9788618 18.5952"></polygon>
                <polygon id="Shape" fill="url(#linearGradient-24)" points="19.4894309 22.2976 19.5105691 29.6816 26 33.3632 25.9788618 18.5952"></polygon>
                <polygon id="Shape" fill="url(#linearGradient-25)" points="19.4894309 22.2976 19.5105691 29.6816 26 33.3632 25.9788618 18.5952"></polygon>
                <polygon id="Shape" fill="url(#linearGradient-26)" points="19.4894309 22.2976 19.5105691 29.6816 26 33.3632 25.9788618 18.5952"></polygon>
                <path d="M25.9788618,18.5952 L19.4894309,22.2976 L25.9788618,18.5952 Z" id="Shape" fill="url(#linearGradient-27)"></path>
                <path d="M25.9788618,18.5952 L19.4894309,22.2976 L25.9788618,18.5952 Z" id="Shape" fill="url(#linearGradient-28)"></path>
                <path d="M25.9788618,18.5952 L19.4894309,22.2976 L25.9788618,18.5952 Z" id="Shape" fill="url(#linearGradient-29)"></path>
                <path d="M25.9788618,18.5952 L19.4894309,22.2976 L25.9788618,18.5952 Z" id="Shape" fill="url(#linearGradient-30)"></path>
                <polygon id="Shape" fill="url(#linearGradient-31)" points="25.9577236 11.232 25.9577236 11.232 25.9788618 18.5952 32.4471545 14.9136"></polygon>
                <polygon id="Shape" fill="url(#linearGradient-32)" points="25.9577236 11.232 25.9577236 11.232 25.9788618 18.5952 32.4471545 14.9136"></polygon>
                <polygon id="Shape" fill="url(#linearGradient-33)" points="25.9577236 11.232 25.9577236 11.232 25.9788618 18.5952 32.4471545 14.9136"></polygon>
                <polygon id="Shape" fill="url(#linearGradient-31)" points="25.9577236 11.232 25.9577236 11.232 25.9788618 18.5952 32.4471545 14.9136"></polygon>
                <polygon id="Shape" fill="url(#linearGradient-34)" points="26.0211382 40.7472 26.0211382 48.0896 32.5317073 51.8128 39.0211382 48.1104 39 40.7056 32.5105691 44.4288"></polygon>
                <polygon id="Shape" fill="url(#linearGradient-35)" points="19.5105691 29.6816 13 26 13 18.6368 0.0211382114 26.0416 0.0422764228 33.384 13.0634146 40.7472 19.5105691 37.0656"></polygon>
                <polygon id="Shape" fill="url(#linearGradient-36)" points="19.5105691 29.6816 19.4894309 22.2976 25.9788618 18.5952 25.9577236 11.232 13 18.6368 13 26"></polygon>
                <polygon id="Shape" fill="url(#linearGradient-37)" points="25.9577236 11.232 25.9577236 11.232 32.4471545 14.9136 32.4471545 14.8928 38.7674797 18.4704 38.9577236 18.5744 38.9365854 11.232 25.9577236 3.8896 25.9365854 3.8896"></polygon>
                <polygon id="Shape" fill="url(#linearGradient-38)" points="38.9365854 3.9104 32.4260163 0.1872 25.9577236 3.8896 38.9365854 11.232"></polygon>
                <polygon id="Shape" fill="url(#linearGradient-39)" points="38.9577236 18.5744 38.9788618 25.9584 39 40.7056 45.4894309 37.0032 45.4471545 22.256"></polygon>
                <polygon id="Shape" fill="url(#linearGradient-40)" points="39 40.7056 39 40.7056 38.9788618 25.9584 26 33.3632"></polygon>
                <polygon id="Shape" fill="url(#linearGradient-41)" points="32.4471545 14.9136 32.4471545 14.9136 25.9788618 18.5952 26 33.3632 38.9788618 25.9584 38.9577236 18.5744 38.7674797 18.4704"></polygon>
            </g>
        </g>
    </g>
</svg>